<svg xmlns="http://www.w3.org/2000/svg" xmlns:xlink="http://www.w3.org/1999/xlink" width="793.701" height="249.449" viewBox="0 0 595.276 187.087"><g data-name="图层 1"><path stroke-miterlimit="10" fill="none" stroke="#000" d="M44.135 167.994h543.307"/><symbol id="a"><path d="m0 .597.161.079h.016v-.56C.177.08.18.057.182.048a.037.037 0 0 1 .02-.02A.164.164 0 0 1 .26.017V0H.01v.018c.032 0 .052.003.061.008.01.005.016.011.02.019a.262.262 0 0 1 .005.072v.357c0 .048-.002.08-.005.093A.038.038 0 0 1 .079.59a.032.032 0 0 1-.021.007.13.13 0 0 1-.05-.015L0 .597z"/></symbol><symbol id="b"><path d="M0 .339c0 .075.011.14.034.195a.273.273 0 0 0 .091.122c.03.02.06.031.09.031C.268.688.313.662.354.61A.41.41 0 0 0 .428.35.514.514 0 0 0 .395.152.26.26 0 0 0 .31.036.173.173 0 0 0 .21 0C.149 0 .096.037.054.112A.455.455 0 0 0 0 .339M.096.327c0-.091.01-.166.033-.223C.148.055.176.03.212.03.23.03.248.039.267.054a.152.152 0 0 1 .043.08.965.965 0 0 1 .023.237.648.648 0 0 1-.024.189.168.168 0 0 1-.045.08.077.077 0 0 1-.107-.014.249.249 0 0 1-.049-.128A1.185 1.185 0 0 1 .096.327z"/></symbol><use xlink:href="#a" transform="matrix(10 0 0 -10 24.245 129.87)" fill="#2c292a"/><use xlink:href="#b" transform="matrix(10 0 0 -10 28.434 129.986)" fill="#2c292a"/><symbol id="c"><path d="M.064.194a.2.2 0 0 1 .034.008.121.121 0 0 1 .03.014.064.064 0 0 1 .028.055c0 .01-.002.017-.006.024a.046.046 0 0 1-.014.017.061.061 0 0 1-.02.01.078.078 0 0 1-.023.004A.075.075 0 0 1 .066.32.064.064 0 0 1 .034.296a1.017 1.017 0 0 1-.01-.014L.006.29a.57.57 0 0 0 .011.023c.005.009.012.017.02.025.009.009.02.016.032.022.013.006.03.01.05.01A.117.117 0 0 0 .151.363.099.099 0 0 0 .184.349.077.077 0 0 0 .206.325.06.06 0 0 0 .214.293c0-.025-.016-.05-.05-.076a.107.107 0 0 0 .04-.025.095.095 0 0 0 .029-.054.11.11 0 0 0-.008-.061.11.11 0 0 0-.029-.04A.137.137 0 0 0 .15.01.23.23 0 0 0 .043.003.098.098 0 0 0 .017.01a.035.035 0 0 0-.013.01A.02.02 0 0 0 0 .033C0 .04.003.046.009.049a.035.035 0 0 0 .018.006A.059.059 0 0 0 .05.05 1.374 1.374 0 0 1 .092.032.068.068 0 0 1 .14.035a.07.07 0 0 1 .035.035.064.064 0 0 1 .005.026.07.07 0 0 1-.01.04.079.079 0 0 1-.027.026.115.115 0 0 1-.038.013.195.195 0 0 1-.041.005v.015z"/></symbol><use xlink:href="#c" transform="matrix(10 0 0 -10 33.341 126.578)" fill="#2c292a"/><use xlink:href="#a" transform="matrix(10 0 0 -10 24.245 87.25)" fill="#2c292a"/><use xlink:href="#b" transform="matrix(10 0 0 -10 28.434 87.366)" fill="#2c292a"/><symbol id="d"><path d="M.227.363v-.23h.054V.088H.227V0H.165v.088H0v.045l.186.23h.041M.165.29H.163L.04.133h.126v.156z"/></symbol><use xlink:href="#d" transform="matrix(10 0 0 -10 33.131 83.9)" fill="#2c292a"/><use xlink:href="#a" transform="matrix(10 0 0 -10 24.245 44.63)" fill="#2c292a"/><use xlink:href="#b" transform="matrix(10 0 0 -10 28.434 44.746)" fill="#2c292a"/><symbol id="e"><path d="M.244.363.22.318H.1L.076.272A.285.285 0 0 0 .138.255a.187.187 0 0 0 .05-.03.134.134 0 0 0 .035-.04.104.104 0 0 0 .012-.052A.102.102 0 0 0 .221.08.151.151 0 0 0 .184.039.195.195 0 0 0 .071 0 .113.113 0 0 0 .02.01C.007.017 0 .026 0 .037 0 .044.003.05.009.053a.035.035 0 0 0 .017.005.052.052 0 0 0 .022-.004.493.493 0 0 1 .038-.018.055.055 0 0 1 .02-.004.085.085 0 0 1 .055.022.078.078 0 0 1 .017.091.113.113 0 0 1-.046.05.182.182 0 0 1-.049.02.29.29 0 0 1-.07.01L.09.362h.154z"/></symbol><use xlink:href="#e" transform="matrix(10 0 0 -10 33.36 41.338)" fill="#2c292a"/><path stroke-miterlimit="10" fill="none" stroke="#000" d="M44.135 167.994V40.134"/><path d="M55.741 54.28h13.401v113.713H55.741z" fill="#cb358c"/><path stroke-width=".5" stroke-miterlimit="10" fill="none" stroke="#000" d="M55.741 54.28h13.401v113.713H55.741z"/><path d="M71.354 67.27h13.401v100.723H71.354z" fill="#a10d75"/><path stroke-width=".5" stroke-miterlimit="10" fill="none" stroke="#000" d="M71.354 67.27h13.401v100.723H71.354z"/><path d="M86.966 81.966h13.401v86.028H86.966z" fill="#70206f"/><path stroke-width=".5" stroke-miterlimit="10" fill="none" stroke="#000" d="M86.966 81.966h13.401v86.028H86.966z"/><path d="M117.578 61.457h13.401v106.536h-13.401z" fill="#4289b9"/><path stroke-width=".5" stroke-miterlimit="10" fill="none" stroke="#000" d="M117.578 61.457h13.401v106.536h-13.401z"/><path d="M133.191 114.041h13.401v53.952h-13.401z" fill="#246ba8"/><path stroke-width=".5" stroke-miterlimit="10" fill="none" stroke="#000" d="M133.191 114.041h13.401v53.952h-13.401z"/><path d="M148.803 96.989h13.401v71.004h-13.401z" fill="#044d92"/><path stroke-width=".5" stroke-miterlimit="10" fill="none" stroke="#000" d="M148.803 96.989h13.401v71.004h-13.401z"/><path d="M164.416 132.057h13.401v35.937h-13.401z" fill="#163261"/><path stroke-width=".5" stroke-miterlimit="10" fill="none" stroke="#000" d="M164.416 132.057h13.401v35.937h-13.401z"/><path d="M195.028 95.204h13.401v72.79h-13.401z" fill="#f4ac4e"/><path stroke-width=".5" stroke-miterlimit="10" fill="none" stroke="#000" d="M195.028 95.204h13.401v72.79h-13.401z"/><path d="M225.641 104.785h13.401v63.209h-13.401z" fill="#9a95c1"/><path stroke-width=".5" stroke-miterlimit="10" fill="none" stroke="#000" d="M225.641 104.785h13.401v63.209h-13.401z"/><path d="M241.253 105.901h13.401v62.093h-13.401z" fill="#644d98"/><path stroke-width=".5" stroke-miterlimit="10" fill="none" stroke="#000" d="M241.253 105.901h13.401v62.093h-13.401z"/><path d="M256.865 104.771h13.401v63.222h-13.401z" fill="#352965"/><path stroke-width=".5" stroke-miterlimit="10" fill="none" stroke="#000" d="M256.865 104.771h13.401v63.222h-13.401z"/><path d="M287.478 104.222h13.401v63.772h-13.401z" fill="#014324"/><path stroke-width=".5" stroke-miterlimit="10" fill="none" stroke="#000" d="M287.478 104.222h13.401v63.772h-13.401z"/><path d="M303.09 84.549h13.401v83.445H303.09z" fill="#164e2a"/><path stroke-width=".5" stroke-miterlimit="10" fill="none" stroke="#000" d="M303.09 84.549h13.401v83.445H303.09z"/><path d="M318.702 82.878h13.401v85.116h-13.401z" fill="#295a35"/><path stroke-width=".5" stroke-miterlimit="10" fill="none" stroke="#000" d="M318.702 82.878h13.401v85.116h-13.401z"/><path d="M334.315 98.426h13.4v69.568h-13.4z" fill="#3a6743"/><path stroke-width=".5" stroke-miterlimit="10" fill="none" stroke="#000" d="M334.315 98.426h13.4v69.568h-13.4z"/><path d="M349.928 90.78h13.4v77.214h-13.4z" fill="#4a7352"/><path stroke-width=".5" stroke-miterlimit="10" fill="none" stroke="#000" d="M349.928 90.78h13.4v77.214h-13.4z"/><path d="M365.54 114.774h13.4v53.219h-13.4z" fill="#5a8061"/><path stroke-width=".5" stroke-miterlimit="10" fill="none" stroke="#000" d="M365.54 114.774h13.4v53.219h-13.4z"/><path d="M381.152 130.19h13.4v37.804h-13.4z" fill="#6a8b70"/><path stroke-width=".5" stroke-miterlimit="10" fill="none" stroke="#000" d="M381.152 130.19h13.4v37.804h-13.4z"/><path d="M396.765 110.917h13.401v57.076h-13.401z" fill="#7a987d"/><path stroke-width=".5" stroke-miterlimit="10" fill="none" stroke="#000" d="M396.765 110.917h13.401v57.076h-13.401z"/><path d="M412.377 90.861h13.401v77.133h-13.401z" fill="#8ba58d"/><path stroke-width=".5" stroke-miterlimit="10" fill="none" stroke="#000" d="M412.377 90.861h13.401v77.133h-13.401z"/><path d="M427.989 74.571h13.401v93.422h-13.401z" fill="#9cb49d"/><path stroke-width=".5" stroke-miterlimit="10" fill="none" stroke="#000" d="M427.989 74.571h13.401v93.422h-13.401z"/><path d="M443.602 96.073h13.401v71.92h-13.401z" fill="#adc0ae"/><path stroke-width=".5" stroke-miterlimit="10" fill="none" stroke="#000" d="M443.602 96.073h13.401v71.92h-13.401z"/><path d="M459.214 136.783h13.401v31.21h-13.401z" fill="#becfbe"/><path stroke-width=".5" stroke-miterlimit="10" fill="none" stroke="#000" d="M459.214 136.783h13.401v31.21h-13.401z"/><path d="M474.827 97.411h13.4v70.583h-13.4z" fill="#d0ddcf"/><path stroke-width=".5" stroke-miterlimit="10" fill="none" stroke="#000" d="M474.827 97.411h13.4v70.583h-13.4z"/><path d="M490.439 108.1h13.4v59.894h-13.4z" fill="#e3ece2"/><path stroke-width=".5" stroke-miterlimit="10" fill="none" stroke="#000" d="M490.439 108.1h13.4v59.894h-13.4z"/><path d="M506.052 85.908h13.4v82.085h-13.4z" fill="#f6faf3"/><path stroke-width=".5" stroke-miterlimit="10" fill="none" stroke="#000" d="M506.052 85.908h13.4v82.085h-13.4z"/><path d="M536.664 94.927h13.4v73.067h-13.4z" fill="#eb6749"/><path stroke-width=".5" stroke-miterlimit="10" fill="none" stroke="#000" d="M536.664 94.927h13.4v73.067h-13.4z"/><path d="M555.276 157.744h13.401v10.25h-13.401z" fill="#bf1e20"/><path stroke-width=".5" stroke-miterlimit="10" fill="none" stroke="#000" d="M555.276 157.744h13.401v10.25h-13.401z"/><symbol id="f"><path d="M.271.474V.322H.255C.243.37.227.402.208.419a.106.106 0 0 1-.074.026.082.082 0 0 1-.055-.018C.065.415.058.402.058.387.058.37.063.353.073.34A.174.174 0 0 1 .135.298L.206.263c.066-.032.1-.075.1-.127A.12.12 0 0 0 .258.037.16.16 0 0 0 .156 0a.355.355 0 0 0-.094.015.095.095 0 0 1-.026.005C.028.02.022.015.018.007H.002v.16h.016A.182.182 0 0 1 .07.063.126.126 0 0 1 .157.03c.022 0 .04.006.054.02.015.013.022.029.022.047a.075.075 0 0 1-.024.057.407.407 0 0 1-.094.058.28.28 0 0 0-.093.063.11.11 0 0 0-.022.07c0 .038.013.068.038.093a.135.135 0 0 0 .098.037A.23.23 0 0 0 .2.463.151.151 0 0 1 .233.456a.02.02 0 0 1 .012.003.047.047 0 0 1 .01.015h.016z"/></symbol><symbol id="g"><path d="M.116.694A.046.046 0 0 0 .15.68.046.046 0 0 0 .165.645.048.048 0 0 0 .15.61.046.046 0 0 0 .116.595.048.048 0 0 0 .08.61a.048.048 0 0 0-.015.035C.066.659.07.67.08.68c.01.01.022.014.036.014M.156.46V.101c0-.028.002-.047.006-.056A.045.045 0 0 1 .18.025.098.098 0 0 1 .224.017V0H.007v.018C.029.018.043.02.05.024a.042.042 0 0 1 .017.02c.005.01.007.03.007.057v.172a.61.61 0 0 1-.004.095C.069.378.065.385.06.389A.03.03 0 0 1 .04.396.098.098 0 0 1 .007.388L0 .406.135.46h.021z"/></symbol><symbol id="h"><path d="M.156.366C.208.429.258.46.306.46A.107.107 0 0 0 .369.442.121.121 0 0 0 .41.382c.007-.02.01-.05.01-.09v-.19A.16.16 0 0 1 .428.042.04.04 0 0 1 .445.024.1.1 0 0 1 .49.018V0H.269v.018h.009c.02 0 .035.003.043.009A.05.05 0 0 1 .34.055C.34.06.34.075.34.101v.183c0 .04-.006.07-.016.089C.315.39.297.4.27.4.233.4.194.38.156.337V.1c0-.03.002-.049.005-.056A.047.047 0 0 1 .18.024.122.122 0 0 1 .229.018V0H.007v.018h.01c.023 0 .038.005.046.017C.071.046.075.069.075.1v.166a.677.677 0 0 1-.004.098C.07.377.065.385.061.39A.03.03 0 0 1 .04.396.094.094 0 0 1 .007.388L0 .406.135.46h.02V.366z"/></symbol><symbol id="i"><path d="M.121.379a.148.148 0 0 0-.085.135c0 .044.017.083.05.114a.179.179 0 0 0 .128.048c.043 0 .08-.01.111-.031H.42L.444.644A.007.007 0 0 0 .45.64C.451.637.452.632.452.624S.452.61.45.606A.01.01 0 0 0 .444.603.104.104 0 0 0 .42.6H.362a.142.142 0 0 0 .027-.09.14.14 0 0 0-.048-.107A.181.181 0 0 0 .213.36a.25.25 0 0 0-.068.01.131.131 0 0 1-.03-.033.052.052 0 0 1-.007-.024c0-.005.003-.01.008-.016C.122.292.132.288.148.287A.841.841 0 0 1 .216.282C.283.28.326.279.346.276A.121.121 0 0 0 .42.242.092.092 0 0 0 .446.175C.446.138.43.104.395.07A.28.28 0 0 0 .195 0a.285.285 0 0 0-.158.042C.012.06 0 .076 0 .093 0 .101.002.11.005.117a.273.273 0 0 0 .035.05L.09.22a.166.166 0 0 0-.037.027.041.041 0 0 0-.01.027c0 .011.005.025.014.04.01.015.03.037.064.065m.085.274a.076.076 0 0 1-.06-.029C.129.604.12.575.12.536a.19.19 0 0 1 .033-.12A.079.079 0 0 1 .22.384c.024 0 .045.01.06.028.017.018.025.047.025.087A.196.196 0 0 1 .27.621a.077.077 0 0 1-.064.032M.116.216A.24.24 0 0 1 .082.169.084.084 0 0 1 .07.13C.07.115.08.102.098.09A.27.27 0 0 1 .24.059c.059 0 .102.01.13.03C.397.11.41.133.41.157.41.173.402.185.386.192a.326.326 0 0 1-.1.013C.211.207.155.21.115.215z"/></symbol><symbol id="j"><path d="M.155.694V.101c0-.028.002-.046.006-.056a.046.046 0 0 1 .02-.02.112.112 0 0 1 .047-.007V0h-.22v.018c.02 0 .035.002.042.006a.042.042 0 0 1 .018.02c.004.01.006.03.006.057v.406c0 .05 0 .082-.003.093C.069.612.065.62.06.624A.028.028 0 0 1 .04.63.091.091 0 0 1 .009.623L0 .64l.133.054h.022z"/></symbol><symbol id="k"><path d="M.07.292A.23.23 0 0 1 .117.136.147.147 0 0 1 .232.08c.03 0 .055.008.077.024a.18.18 0 0 1 .054.083l.015-.01a.234.234 0 0 0-.06-.122A.16.16 0 0 0 .196 0c-.053 0-.1.02-.138.063A.242.242 0 0 0 0 .23c0 .077.02.137.059.18.039.042.088.064.148.064.05 0 .09-.017.123-.05A.18.18 0 0 0 .378.292H.07m0 .029h.207a.191.191 0 0 1-.01.06.096.096 0 0 1-.037.043.09.09 0 0 1-.05.016.101.101 0 0 1-.073-.032A.136.136 0 0 1 .07.321z"/></symbol><symbol id="l"><path d="M0 0z"/></symbol><symbol id="m"><path d="M.314.064A.23.23 0 0 0 .25.014.157.157 0 0 0 .183 0a.167.167 0 0 0-.128.061A.229.229 0 0 0 0 .219C0 .283.02.34.06.395c.04.053.093.08.156.08.04 0 .072-.013.098-.038V.52A.633.633 0 0 1 .31.614C.308.625.304.634.3.638a.03.03 0 0 1-.02.006.103.103 0 0 1-.033-.008L.239.653l.134.055h.022V.191c0-.052 0-.085.003-.096C.4.083.404.075.41.07A.03.03 0 0 1 .429.064c.009 0 .02.003.035.008L.469.055.336 0H.314v.064m0 .034v.23A.156.156 0 0 1 .296.39.1.1 0 0 1 .257.43.092.092 0 0 1 .21.444.1.1 0 0 1 .134.406C.104.372.089.322.089.257.09.192.104.141.132.106.161.071.192.054.228.054c.03 0 .058.015.086.044z"/></symbol><symbol id="n"><path d="M.216.474A.198.198 0 0 0 .38.397.237.237 0 0 0 .432.246c0-.04-.01-.081-.03-.122A.21.21 0 0 0 .324.031.208.208 0 0 0 .211 0a.19.19 0 0 0-.16.08A.25.25 0 0 0 0 .234c0 .04.01.082.03.122a.208.208 0 0 0 .186.12M.201.441A.102.102 0 0 1 .15.427.107.107 0 0 1 .107.373a.26.26 0 0 1-.016-.1C.09.21.104.154.129.106.155.058.19.035.232.035.264.035.29.048.31.074.33.1.34.144.34.208.34.288.325.35.29.396A.106.106 0 0 1 .2.442z"/></symbol><symbol id="o"><path d="M.156.46v-.1c.037.067.076.1.115.1A.062.062 0 0 0 .315.444.05.05 0 0 0 .333.406.045.045 0 0 0 .32.374.04.04 0 0 0 .29.361C.279.36.266.366.251.377.237.39.227.395.221.395.213.395.207.39.2.385A.235.235 0 0 1 .156.319V.104C.156.08.159.061.165.048A.05.05 0 0 1 .187.026.099.099 0 0 1 .234.018V0h-.23v.018c.024 0 .04.003.052.01a.042.042 0 0 1 .017.025.251.251 0 0 1 .002.048v.173a.663.663 0 0 1-.003.093.035.035 0 0 1-.012.022.032.032 0 0 1-.02.007.097.097 0 0 1-.035-.008L0 .406.135.46h.02z"/></symbol><symbol id="p"><path d="M.422.46V.19c0-.052.002-.084.004-.095C.428.083.432.075.438.07A.03.03 0 0 1 .457.064c.01 0 .021.003.034.008L.498.055.364 0H.342v.095A.407.407 0 0 0 .254.016.134.134 0 0 0 .19 0a.104.104 0 0 0-.065.021.114.114 0 0 0-.039.057.338.338 0 0 0-.01.096v.2a.098.098 0 0 1-.007.044.044.044 0 0 1-.02.019A.113.113 0 0 1 0 .443V.46h.157v-.3C.157.12.164.094.178.08A.077.077 0 0 1 .231.06c.014 0 .03.004.047.013.018.009.04.026.064.05v.254c0 .025-.005.042-.014.051C.318.438.299.442.27.443V.46h.152z"/></symbol><symbol id="q"><path d="M.156.384c.044.06.09.09.14.09.046 0 .086-.02.12-.059a.236.236 0 0 0 .052-.16.248.248 0 0 0-.08-.193.218.218 0 0 0-.23-.048.366.366 0 0 0-.082.043V.52c0 .05-.002.082-.004.094C.069.625.066.634.06.638a.03.03 0 0 1-.02.006.1.1 0 0 1-.034-.008L0 .653l.134.055h.022V.384m0-.031V.085A.194.194 0 0 1 .208.048.13.13 0 0 1 .262.036c.03 0 .057.016.083.048.025.033.038.08.038.143a.2.2 0 0 1-.038.131C.319.39.29.405.258.405A.113.113 0 0 1 .206.392a.224.224 0 0 1-.05-.04z"/></symbol><symbol id="r"><path d="M0 .46h.188V.444C.17.442.158.438.152.433.148.43.146.423.146.414c0-.01.002-.023.008-.037L.25.119l.096.21L.32.393a.079.079 0 0 1-.03.04.09.09 0 0 1-.04.009V.46h.212V.443C.44.442.422.438.412.43.407.425.403.417.403.405.403.4.405.392.408.385L.508.128l.095.248a.13.13 0 0 1 .01.042c0 .006-.004.012-.01.017C.596.439.584.442.565.443V.46h.142V.443C.678.439.657.419.644.385L.494 0h-.02L.364.286.233 0H.213L.071.376a.132.132 0 0 1-.028.048A.091.091 0 0 1 0 .443V.46z"/></symbol><symbol id="s"><path d="M.249.074A.737.737 0 0 0 .163.012.132.132 0 0 0 .106 0C.076 0 .05.01.03.032A.117.117 0 0 0 0 .115c0 .022.005.04.015.057a.194.194 0 0 0 .069.062c.033.02.088.044.165.072v.017c0 .045-.007.075-.021.092C.214.432.193.44.166.44A.07.07 0 0 1 .117.423.05.05 0 0 1 .1.385V.357C.1.342.097.33.089.322A.039.039 0 0 0 .058.31a.039.039 0 0 0-.03.013.05.05 0 0 0-.01.034c0 .028.013.054.042.078A.186.186 0 0 0 .18.47.21.21 0 0 0 .279.45.092.092 0 0 0 .321.402.267.267 0 0 0 .33.316V.165c0-.043 0-.07.002-.08C.334.077.336.07.34.068A.02.02 0 0 1 .353.062c.005 0 .01.001.014.003l.04.036V.074C.37.024.334 0 .301 0a.047.047 0 0 0-.038.017C.254.028.249.047.249.074m0 .031v.17a.964.964 0 0 1-.095-.04.164.164 0 0 1-.055-.046.087.087 0 0 1-.017-.05c0-.024.007-.044.021-.06A.064.064 0 0 1 .151.058C.176.057.21.073.25.105z"/></symbol><symbol id="t"><path d="M0 .663h.208V.645h-.01C.184.645.173.642.165.635a.03.03 0 0 1-.01-.023C.154.599.16.582.17.559L.28.333l.1.248a.103.103 0 0 1 .008.04c0 .005-.001.01-.004.012a.025.025 0 0 1-.012.009.086.086 0 0 1-.03.003v.018h.146V.645A.07.07 0 0 1 .46.637.08.08 0 0 1 .44.615.305.305 0 0 1 .422.578L.24.13A.23.23 0 0 0 .17.033.135.135 0 0 0 .09 0a.068.068 0 0 0-.047.017.05.05 0 0 0-.02.038c0 .013.005.024.014.033C.046.096.058.1.073.1.084.1.1.097.117.09A.105.105 0 0 1 .142.081c.01 0 .02.005.031.015.012.01.024.03.035.059L.24.233.08.571a.27.27 0 0 1-.044.06A.11.11 0 0 1 0 .645v.018z"/></symbol><symbol id="u"><path d="M.002.617.14.672H.16V.568c.023.04.046.067.069.082a.13.13 0 0 0 .074.024.142.142 0 0 0 .112-.052A.25.25 0 0 0 .47.454.28.28 0 0 0 .403.262.176.176 0 0 0 .265.2a.172.172 0 0 0-.062.01.146.146 0 0 0-.044.03V.104c0-.031.001-.05.005-.059a.043.043 0 0 1 .02-.02.122.122 0 0 1 .05-.007V0H0v.018h.012c.018 0 .033.003.046.01.006.004.011.01.014.018a.196.196 0 0 1 .006.06V.53a.23.23 0 0 1-.004.055.033.033 0 0 1-.013.018.04.04 0 0 1-.023.006A.088.088 0 0 1 .008.6L.002.617M.16.539V.372c0-.036.001-.06.004-.071A.092.092 0 0 1 .196.25.104.104 0 0 1 .264.229c.032 0 .059.013.079.039a.22.22 0 0 1 .04.14c0 .068-.016.12-.046.157a.093.093 0 0 1-.12.027.272.272 0 0 1-.058-.053z"/></symbol><symbol id="v"><path d="M.156.365c.032.033.052.052.057.056.015.013.03.022.048.03.017.006.033.01.05.01A.112.112 0 0 0 .383.435a.12.12 0 0 0 .04-.07C.458.403.487.43.51.441A.15.15 0 0 0 .58.46.11.11 0 0 0 .643.442a.12.12 0 0 0 .044-.06.27.27 0 0 0 .01-.089V.101C.698.073.7.054.705.043A.043.043 0 0 1 .722.025.093.093 0 0 1 .765.018V0h-.22v.018h.009c.019 0 .034.003.045.01a.044.044 0 0 1 .016.026A.313.313 0 0 1 .617.1v.192a.163.163 0 0 1-.013.078C.59.39.57.4.542.4A.116.116 0 0 1 .49.39.278.278 0 0 1 .427.34V.1c0-.03.002-.05.005-.057a.044.044 0 0 1 .02-.02A.114.114 0 0 1 .5.019V0H.274v.018c.025 0 .042.003.05.008.01.006.017.015.02.027A.26.26 0 0 1 .347.1v.192C.347.33.34.356.33.373a.069.069 0 0 1-.06.03A.108.108 0 0 1 .218.39.201.201 0 0 1 .156.341V.1c0-.03.002-.048.006-.057A.045.045 0 0 1 .18.024.122.122 0 0 1 .229.018V0H.007v.018c.02 0 .035.002.043.006a.044.044 0 0 1 .019.02c.004.01.006.03.006.057v.171a.62.62 0 0 1-.004.095C.069.377.065.385.06.39A.03.03 0 0 1 .04.396.094.094 0 0 1 .007.388L0 .406.135.46h.02V.365z"/></symbol><symbol id="w"><path d="M.151.602V.455h.105V.42H.15V.13c0-.029.004-.048.013-.058A.04.04 0 0 1 .196.057c.01 0 .021.003.031.01.01.006.018.016.023.03h.02A.155.155 0 0 0 .22.023.105.105 0 0 0 .157 0a.088.088 0 0 0-.044.012.077.077 0 0 0-.032.036.19.19 0 0 0-.01.072v.3H0v.017c.018.007.036.019.055.036a.29.29 0 0 1 .081.129h.015z"/></symbol><symbol id="x"><path d="M0 .46h.21V.444H.197C.184.443.174.44.167.433A.033.033 0 0 1 .157.41c0-.012.004-.025.011-.04L.272.12l.104.256A.122.122 0 0 1 .388.42.016.016 0 0 1 .384.43.026.026 0 0 1 .37.44a.123.123 0 0 1-.034.003V.46h.146V.443C.465.442.454.438.447.433a.125.125 0 0 1-.03-.05L.257 0h-.02L.079.377a.14.14 0 0 1-.02.038.08.08 0 0 1-.025.02A.122.122 0 0 1 0 .443V.46z"/></symbol><symbol id="y"><path d="M.167.412V.118C.167.076.172.05.181.04A.06.06 0 0 1 .23.018H.27V0H.003v.018h.02c.013 0 .025.003.036.01A.05.05 0 0 1 .08.053a.213.213 0 0 1 .006.064v.294H0v.035h.087v.03c0 .044.007.082.021.113a.18.18 0 0 0 .165.104A.15.15 0 0 0 .368.66C.387.646.396.63.396.61A.04.04 0 0 0 .383.584.038.038 0 0 0 .356.57a.046.046 0 0 0-.024.008.138.138 0 0 0-.03.035.122.122 0 0 1-.033.036.063.063 0 0 1-.034.01.06.06 0 0 1-.038-.013.066.066 0 0 1-.023-.037.692.692 0 0 1-.007-.13V.447h.116V.412H.167z"/></symbol><symbol id="z"><path d="M.156.694V.367a.37.37 0 0 0 .086.076.133.133 0 0 0 .064.017A.104.104 0 0 0 .37.44a.124.124 0 0 0 .04-.066.467.467 0 0 0 .01-.115V.101C.42.073.423.053.428.043A.038.038 0 0 1 .444.024.094.094 0 0 1 .487.018V0h-.22v.018h.01C.3.018.314.02.322.027a.052.052 0 0 1 .017.028C.34.06.34.075.34.101V.26C.34.31.337.34.332.355a.062.062 0 0 1-.064.046.113.113 0 0 1-.05-.012.238.238 0 0 1-.062-.052V.101c0-.03.002-.05.005-.057a.045.045 0 0 1 .02-.02.114.114 0 0 1 .048-.006V0H.007v.018c.02 0 .035.003.047.009.006.003.011.01.015.018.004.01.006.028.006.056v.405A.633.633 0 0 1 .071.6C.07.612.065.62.061.624A.03.03 0 0 1 .04.63.12.12 0 0 1 .007.623L0 .64l.134.054h.022z"/></symbol><symbol id="A"><path d="M.377.184a.244.244 0 0 0-.07-.137A.17.17 0 0 0 .188 0a.172.172 0 0 0-.132.064A.251.251 0 0 0 0 .237c0 .07.02.127.063.171a.201.201 0 0 0 .15.066C.257.474.293.462.322.44.35.416.364.392.364.367a.04.04 0 0 0-.012-.03A.046.046 0 0 0 .32.324c-.02 0-.034.006-.044.019C.27.35.266.364.265.383a.063.063 0 0 1-.02.044.07.07 0 0 1-.048.014A.097.097 0 0 1 .12.405.192.192 0 0 1 .079.28c0-.054.013-.1.04-.142a.121.121 0 0 1 .106-.06c.032 0 .06.01.086.032A.22.22 0 0 1 .363.19L.377.184z"/></symbol><symbol id="B"><path d="M.548.662.556.507H.537a.188.188 0 0 1-.015.058.096.096 0 0 1-.04.042.137.137 0 0 1-.066.014H.323V.115c0-.04.004-.066.013-.076.012-.014.031-.02.057-.02h.023V0h-.28v.018h.023c.028 0 .048.009.06.025.006.01.01.035.01.072V.62h-.08A.222.222 0 0 1 .083.614.09.09 0 0 1 .04.578.144.144 0 0 1 .019.507H0l.008.155h.54z"/></symbol><symbol id="C"><path d="M.701.677V.66A.108.108 0 0 1 .648.637.203.203 0 0 1 .602.563L.372 0H.352L.105.57a.315.315 0 0 1-.027.055.083.083 0 0 1-.03.023A.133.133 0 0 1 0 .659v.018h.27V.66C.24.656.22.651.21.644a.036.036 0 0 1-.013-.03A.22.22 0 0 1 .22.54L.388.15l.156.384a.258.258 0 0 1 .023.078c0 .01-.004.019-.014.027a.092.092 0 0 1-.048.019L.497.659v.018h.204z"/></symbol><symbol id="D"><path d="M0 .074h.252V0H0v.074z"/></symbol><symbol id="E"><path d="M.155.694V.25L.27.353a.381.381 0 0 1 .042.042.021.021 0 0 1 .004.012.02.02 0 0 1-.008.016C.3.428.293.431.28.432v.015h.195V.432A.186.186 0 0 1 .408.419.217.217 0 0 1 .35.38L.235.273.35.128A1.02 1.02 0 0 1 .414.052a.133.133 0 0 1 .041-.03.128.128 0 0 1 .043-.004V0H.28v.018C.293.018.3.02.305.023a.018.018 0 0 1 .007.015c0 .007-.006.02-.02.036L.155.249V.101c0-.03.002-.048.006-.058A.04.04 0 0 1 .18.023.13.13 0 0 1 .228.019V0H0v.018c.023 0 .04.002.051.008.007.003.012.009.016.016.005.011.007.03.007.056v.407A.722.722 0 0 1 .071.6C.069.612.065.62.06.624a.03.03 0 0 1-.02.007.092.092 0 0 1-.032-.008L0 .64l.133.054h.022z"/></symbol><symbol id="F"><path d="M.394.674V.1C.394.07.396.052.4.044a.043.043 0 0 1 .018-.02.117.117 0 0 1 .049-.006V0H.24v.018h.01c.018 0 .032.003.041.008.007.003.012.01.016.02a.16.16 0 0 1 .005.053v.193A.333.333 0 0 0 .236.219.137.137 0 0 0 .167.2a.151.151 0 0 0-.116.06A.234.234 0 0 0 0 .416c0 .076.022.138.067.186a.215.215 0 0 0 .214.064.127.127 0 0 0 .042-.024c.02.01.037.02.054.031h.017M.314.322v.21a.14.14 0 0 1-.01.058.08.08 0 0 1-.034.035.105.105 0 0 1-.055.015A.119.119 0 0 1 .12.594C.095.563.082.516.082.454c0-.061.013-.107.04-.138A.122.122 0 0 1 .218.269c.019 0 .036.004.051.012.015.009.03.022.044.041z"/></symbol><use xlink:href="#f" transform="matrix(0 -10 -10 0 64.69 47.366)" fill="#231815"/><use xlink:href="#g" transform="matrix(0 -10 -10 0 64.553 43.672)" fill="#231815"/><use xlink:href="#h" transform="matrix(0 -10 -10 0 64.553 41.126)" fill="#231815"/><use xlink:href="#i" transform="matrix(0 -10 -10 0 66.711 35.887)" fill="#231815"/><use xlink:href="#j" transform="matrix(0 -10 -10 0 64.553 30.887)" fill="#231815"/><use xlink:href="#k" transform="matrix(0 -10 -10 0 64.69 28.034)" fill="#231815"/><use xlink:href="#l" transform="matrix(0 -10 -10 0 64.553 23.965)" fill="#231815"/><use xlink:href="#m" transform="matrix(0 -10 -10 0 64.69 21.133)" fill="#231815"/><use xlink:href="#n" transform="matrix(0 -10 -10 0 64.69 16.128)" fill="#231815"/><use xlink:href="#n" transform="matrix(0 -10 -10 0 64.69 11.128)" fill="#231815"/><use xlink:href="#o" transform="matrix(0 -10 -10 0 64.553 6.401)" fill="#231815"/><use xlink:href="#m" transform="matrix(0 -10 -10 0 81.2 61.373)" fill="#231815"/><use xlink:href="#n" transform="matrix(0 -10 -10 0 81.2 56.368)" fill="#231815"/><use xlink:href="#p" transform="matrix(0 -10 -10 0 81.2 51.695)" fill="#231815"/><use xlink:href="#q" transform="matrix(0 -10 -10 0 81.2 46.729)" fill="#231815"/><use xlink:href="#j" transform="matrix(0 -10 -10 0 81.063 41.407)" fill="#231815"/><use xlink:href="#k" transform="matrix(0 -10 -10 0 81.2 38.553)" fill="#231815"/><use xlink:href="#l" transform="matrix(0 -10 -10 0 81.063 34.485)" fill="#231815"/><use xlink:href="#m" transform="matrix(0 -10 -10 0 81.2 31.653)" fill="#231815"/><use xlink:href="#n" transform="matrix(0 -10 -10 0 81.2 26.648)" fill="#231815"/><use xlink:href="#n" transform="matrix(0 -10 -10 0 81.2 21.648)" fill="#231815"/><use xlink:href="#o" transform="matrix(0 -10 -10 0 81.063 16.921)" fill="#231815"/><use xlink:href="#f" transform="matrix(0 -10 -10 0 97.45 76.316)" fill="#231815"/><use xlink:href="#j" transform="matrix(0 -10 -10 0 97.313 72.617)" fill="#231815"/><use xlink:href="#g" transform="matrix(0 -10 -10 0 97.313 69.842)" fill="#231815"/><use xlink:href="#m" transform="matrix(0 -10 -10 0 97.45 67.023)" fill="#231815"/><use xlink:href="#g" transform="matrix(0 -10 -10 0 97.313 62.062)" fill="#231815"/><use xlink:href="#h" transform="matrix(0 -10 -10 0 97.313 59.516)" fill="#231815"/><use xlink:href="#i" transform="matrix(0 -10 -10 0 99.471 54.277)" fill="#231815"/><use xlink:href="#l" transform="matrix(0 -10 -10 0 97.313 49.575)" fill="#231815"/><use xlink:href="#m" transform="matrix(0 -10 -10 0 97.45 46.743)" fill="#231815"/><use xlink:href="#n" transform="matrix(0 -10 -10 0 97.45 41.738)" fill="#231815"/><use xlink:href="#n" transform="matrix(0 -10 -10 0 97.45 36.738)" fill="#231815"/><use xlink:href="#o" transform="matrix(0 -10 -10 0 97.313 32.011)" fill="#231815"/><use xlink:href="#r" transform="matrix(0 -10 -10 0 127.66 56.121)" fill="#231815"/><use xlink:href="#g" transform="matrix(0 -10 -10 0 127.523 48.672)" fill="#231815"/><use xlink:href="#h" transform="matrix(0 -10 -10 0 127.523 46.126)" fill="#231815"/><use xlink:href="#m" transform="matrix(0 -10 -10 0 127.66 40.853)" fill="#231815"/><use xlink:href="#n" transform="matrix(0 -10 -10 0 127.66 35.848)" fill="#231815"/><use xlink:href="#r" transform="matrix(0 -10 -10 0 127.66 31.121)" fill="#231815"/><use xlink:href="#q" transform="matrix(0 -10 -10 0 143.6 110.419)" fill="#231815"/><use xlink:href="#s" transform="matrix(0 -10 -10 0 143.556 105.038)" fill="#231815"/><use xlink:href="#t" transform="matrix(0 -10 -10 0 145.621 100.896)" fill="#231815"/><use xlink:href="#l" transform="matrix(0 -10 -10 0 143.463 95.955)" fill="#231815"/><use xlink:href="#r" transform="matrix(0 -10 -10 0 143.6 93.391)" fill="#231815"/><use xlink:href="#g" transform="matrix(0 -10 -10 0 143.463 85.942)" fill="#231815"/><use xlink:href="#h" transform="matrix(0 -10 -10 0 143.463 83.396)" fill="#231815"/><use xlink:href="#m" transform="matrix(0 -10 -10 0 143.6 78.123)" fill="#231815"/><use xlink:href="#n" transform="matrix(0 -10 -10 0 143.6 73.118)" fill="#231815"/><use xlink:href="#r" transform="matrix(0 -10 -10 0 143.6 68.391)" fill="#231815"/><use xlink:href="#q" transform="matrix(0 -10 -10 0 158.08 91.939)" fill="#231815"/><use xlink:href="#j" transform="matrix(0 -10 -10 0 157.943 86.617)" fill="#231815"/><use xlink:href="#g" transform="matrix(0 -10 -10 0 157.943 83.842)" fill="#231815"/><use xlink:href="#h" transform="matrix(0 -10 -10 0 157.943 81.296)" fill="#231815"/><use xlink:href="#m" transform="matrix(0 -10 -10 0 158.08 76.023)" fill="#231815"/><use xlink:href="#l" transform="matrix(0 -10 -10 0 157.943 71.355)" fill="#231815"/><use xlink:href="#r" transform="matrix(0 -10 -10 0 158.08 68.791)" fill="#231815"/><use xlink:href="#g" transform="matrix(0 -10 -10 0 157.943 61.342)" fill="#231815"/><use xlink:href="#h" transform="matrix(0 -10 -10 0 157.943 58.796)" fill="#231815"/><use xlink:href="#m" transform="matrix(0 -10 -10 0 158.08 53.523)" fill="#231815"/><use xlink:href="#n" transform="matrix(0 -10 -10 0 158.08 48.518)" fill="#231815"/><use xlink:href="#r" transform="matrix(0 -10 -10 0 158.08 43.791)" fill="#231815"/><use xlink:href="#n" transform="matrix(0 -10 -10 0 174.79 127.258)" fill="#231815"/><use xlink:href="#u" transform="matrix(0 -10 -10 0 176.792 122.629)" fill="#231815"/><use xlink:href="#k" transform="matrix(0 -10 -10 0 174.79 117.224)" fill="#231815"/><use xlink:href="#h" transform="matrix(0 -10 -10 0 174.653 113.096)" fill="#231815"/><use xlink:href="#g" transform="matrix(0 -10 -10 0 174.653 107.862)" fill="#231815"/><use xlink:href="#h" transform="matrix(0 -10 -10 0 174.653 105.316)" fill="#231815"/><use xlink:href="#i" transform="matrix(0 -10 -10 0 176.811 100.077)" fill="#231815"/><use xlink:href="#l" transform="matrix(0 -10 -10 0 174.653 95.375)" fill="#231815"/><use xlink:href="#f" transform="matrix(0 -10 -10 0 174.79 92.386)" fill="#231815"/><use xlink:href="#t" transform="matrix(0 -10 -10 0 176.811 88.926)" fill="#231815"/><use xlink:href="#v" transform="matrix(0 -10 -10 0 174.653 83.902)" fill="#231815"/><use xlink:href="#q" transform="matrix(0 -10 -10 0 174.79 76.229)" fill="#231815"/><use xlink:href="#n" transform="matrix(0 -10 -10 0 174.79 70.868)" fill="#231815"/><use xlink:href="#j" transform="matrix(0 -10 -10 0 174.653 65.907)" fill="#231815"/><use xlink:href="#f" transform="matrix(0 -10 -10 0 204.17 91.456)" fill="#231815"/><use xlink:href="#w" transform="matrix(0 -10 -10 0 204.106 87.957)" fill="#231815"/><use xlink:href="#s" transform="matrix(0 -10 -10 0 204.126 84.918)" fill="#231815"/><use xlink:href="#g" transform="matrix(0 -10 -10 0 204.033 80.542)" fill="#231815"/><use xlink:href="#o" transform="matrix(0 -10 -10 0 204.033 77.991)" fill="#231815"/><use xlink:href="#i" transform="matrix(0 -10 -10 0 237.361 101.127)" fill="#231815"/><use xlink:href="#s" transform="matrix(0 -10 -10 0 235.296 96.068)" fill="#231815"/><use xlink:href="#f" transform="matrix(0 -10 -10 0 235.34 91.496)" fill="#231815"/><use xlink:href="#l" transform="matrix(0 -10 -10 0 235.203 88.095)" fill="#231815"/><use xlink:href="#f" transform="matrix(0 -10 -10 0 235.34 85.106)" fill="#231815"/><use xlink:href="#w" transform="matrix(0 -10 -10 0 235.276 81.607)" fill="#231815"/><use xlink:href="#n" transform="matrix(0 -10 -10 0 235.34 78.588)" fill="#231815"/><use xlink:href="#x" transform="matrix(0 -10 -10 0 235.34 73.842)" fill="#231815"/><use xlink:href="#k" transform="matrix(0 -10 -10 0 235.34 68.554)" fill="#231815"/><use xlink:href="#o" transform="matrix(0 -10 -10 0 250.643 101.061)" fill="#231815"/><use xlink:href="#k" transform="matrix(0 -10 -10 0 250.78 97.424)" fill="#231815"/><use xlink:href="#y" transform="matrix(0 -10 -10 0 250.643 92.969)" fill="#231815"/><use xlink:href="#o" transform="matrix(0 -10 -10 0 250.643 89.961)" fill="#231815"/><use xlink:href="#g" transform="matrix(0 -10 -10 0 250.643 86.402)" fill="#231815"/><use xlink:href="#i" transform="matrix(0 -10 -10 0 252.801 83.617)" fill="#231815"/><use xlink:href="#k" transform="matrix(0 -10 -10 0 250.78 78.543)" fill="#231815"/><use xlink:href="#o" transform="matrix(0 -10 -10 0 250.643 74.411)" fill="#231815"/><use xlink:href="#s" transform="matrix(0 -10 -10 0 250.736 70.788)" fill="#231815"/><use xlink:href="#w" transform="matrix(0 -10 -10 0 250.716 66.607)" fill="#231815"/><use xlink:href="#n" transform="matrix(0 -10 -10 0 250.78 63.588)" fill="#231815"/><use xlink:href="#o" transform="matrix(0 -10 -10 0 250.643 58.861)" fill="#231815"/><use xlink:href="#r" transform="matrix(0 -10 -10 0 266.23 101.061)" fill="#231815"/><use xlink:href="#s" transform="matrix(0 -10 -10 0 266.186 93.548)" fill="#231815"/><use xlink:href="#f" transform="matrix(0 -10 -10 0 266.23 88.976)" fill="#231815"/><use xlink:href="#z" transform="matrix(0 -10 -10 0 266.093 85.511)" fill="#231815"/><use xlink:href="#g" transform="matrix(0 -10 -10 0 266.093 80.282)" fill="#231815"/><use xlink:href="#h" transform="matrix(0 -10 -10 0 266.093 77.736)" fill="#231815"/><use xlink:href="#i" transform="matrix(0 -10 -10 0 268.251 72.497)" fill="#231815"/><use xlink:href="#l" transform="matrix(0 -10 -10 0 266.093 67.795)" fill="#231815"/><use xlink:href="#v" transform="matrix(0 -10 -10 0 266.093 65.212)" fill="#231815"/><use xlink:href="#s" transform="matrix(0 -10 -10 0 266.186 57.158)" fill="#231815"/><use xlink:href="#A" transform="matrix(0 -10 -10 0 266.23 52.733)" fill="#231815"/><use xlink:href="#z" transform="matrix(0 -10 -10 0 266.093 48.571)" fill="#231815"/><use xlink:href="#g" transform="matrix(0 -10 -10 0 266.093 43.342)" fill="#231815"/><use xlink:href="#h" transform="matrix(0 -10 -10 0 266.093 40.796)" fill="#231815"/><use xlink:href="#k" transform="matrix(0 -10 -10 0 266.23 35.483)" fill="#231815"/><use xlink:href="#f" transform="matrix(0 -10 -10 0 296.37 97.976)" fill="#231815"/><use xlink:href="#n" transform="matrix(0 -10 -10 0 296.37 94.238)" fill="#231815"/><use xlink:href="#y" transform="matrix(0 -10 -10 0 296.233 89.189)" fill="#231815"/><use xlink:href="#s" transform="matrix(0 -10 -10 0 296.326 85.888)" fill="#231815"/><use xlink:href="#q" transform="matrix(0 -10 -10 0 312.82 79.939)" fill="#231815"/><use xlink:href="#k" transform="matrix(0 -10 -10 0 312.82 74.543)" fill="#231815"/><use xlink:href="#m" transform="matrix(0 -10 -10 0 312.82 70.143)" fill="#231815"/><use xlink:href="#A" transform="matrix(0 -10 -10 0 326.71 75.983)" fill="#231815"/><use xlink:href="#z" transform="matrix(0 -10 -10 0 326.573 71.821)" fill="#231815"/><use xlink:href="#s" transform="matrix(0 -10 -10 0 326.666 66.528)" fill="#231815"/><use xlink:href="#g" transform="matrix(0 -10 -10 0 326.573 62.152)" fill="#231815"/><use xlink:href="#o" transform="matrix(0 -10 -10 0 326.573 59.601)" fill="#231815"/><use xlink:href="#w" transform="matrix(0 -10 -10 0 344.596 93.847)" fill="#231815"/><use xlink:href="#s" transform="matrix(0 -10 -10 0 344.616 90.808)" fill="#231815"/><use xlink:href="#q" transform="matrix(0 -10 -10 0 344.66 86.749)" fill="#231815"/><use xlink:href="#j" transform="matrix(0 -10 -10 0 344.523 81.427)" fill="#231815"/><use xlink:href="#k" transform="matrix(0 -10 -10 0 344.66 78.573)" fill="#231815"/><use xlink:href="#q" transform="matrix(0 -10 -10 0 359.36 84.579)" fill="#231815"/><use xlink:href="#k" transform="matrix(0 -10 -10 0 359.36 79.183)" fill="#231815"/><use xlink:href="#m" transform="matrix(0 -10 -10 0 359.36 74.783)" fill="#231815"/><use xlink:href="#f" transform="matrix(0 -10 -10 0 359.36 69.626)" fill="#231815"/><use xlink:href="#g" transform="matrix(0 -10 -10 0 359.223 65.932)" fill="#231815"/><use xlink:href="#m" transform="matrix(0 -10 -10 0 359.36 63.113)" fill="#231815"/><use xlink:href="#k" transform="matrix(0 -10 -10 0 359.36 58.074)" fill="#231815"/><use xlink:href="#l" transform="matrix(0 -10 -10 0 359.223 54.005)" fill="#231815"/><use xlink:href="#A" transform="matrix(0 -10 -10 0 359.36 51.163)" fill="#231815"/><use xlink:href="#p" transform="matrix(0 -10 -10 0 359.36 47.055)" fill="#231815"/><use xlink:href="#u" transform="matrix(0 -10 -10 0 361.362 42.099)" fill="#231815"/><use xlink:href="#q" transform="matrix(0 -10 -10 0 359.36 37.089)" fill="#231815"/><use xlink:href="#n" transform="matrix(0 -10 -10 0 359.36 31.728)" fill="#231815"/><use xlink:href="#s" transform="matrix(0 -10 -10 0 359.316 26.708)" fill="#231815"/><use xlink:href="#o" transform="matrix(0 -10 -10 0 359.223 22.561)" fill="#231815"/><use xlink:href="#m" transform="matrix(0 -10 -10 0 359.36 18.963)" fill="#231815"/><use xlink:href="#B" transform="matrix(0 -10 -10 0 375.633 110.132)" fill="#231815"/><use xlink:href="#C" transform="matrix(0 -10 -10 0 375.785 104.237)" fill="#231815"/><use xlink:href="#l" transform="matrix(0 -10 -10 0 375.633 97.286)" fill="#231815"/><use xlink:href="#A" transform="matrix(0 -10 -10 0 375.77 94.444)" fill="#231815"/><use xlink:href="#s" transform="matrix(0 -10 -10 0 375.726 89.99)" fill="#231815"/><use xlink:href="#q" transform="matrix(0 -10 -10 0 375.77 85.93)" fill="#231815"/><use xlink:href="#g" transform="matrix(0 -10 -10 0 375.633 80.613)" fill="#231815"/><use xlink:href="#h" transform="matrix(0 -10 -10 0 375.633 78.067)" fill="#231815"/><use xlink:href="#k" transform="matrix(0 -10 -10 0 375.77 72.754)" fill="#231815"/><use xlink:href="#w" transform="matrix(0 -10 -10 0 375.707 68.588)" fill="#231815"/><use xlink:href="#z" transform="matrix(0 -10 -10 0 390.413 125.051)" fill="#231815"/><use xlink:href="#s" transform="matrix(0 -10 -10 0 390.506 119.758)" fill="#231815"/><use xlink:href="#j" transform="matrix(0 -10 -10 0 390.413 115.377)" fill="#231815"/><use xlink:href="#y" transform="matrix(0 -10 -10 0 390.413 112.509)" fill="#231815"/><use xlink:href="#D" transform="matrix(0 -10 -10 0 388.538 109.16)" fill="#231815"/><use xlink:href="#z" transform="matrix(0 -10 -10 0 390.413 106.171)" fill="#231815"/><use xlink:href="#k" transform="matrix(0 -10 -10 0 390.55 100.864)" fill="#231815"/><use xlink:href="#g" transform="matrix(0 -10 -10 0 390.413 96.502)" fill="#231815"/><use xlink:href="#i" transform="matrix(0 -10 -10 0 392.571 93.717)" fill="#231815"/><use xlink:href="#z" transform="matrix(0 -10 -10 0 390.413 88.951)" fill="#231815"/><use xlink:href="#w" transform="matrix(0 -10 -10 0 390.486 83.917)" fill="#231815"/><use xlink:href="#l" transform="matrix(0 -10 -10 0 390.413 81.235)" fill="#231815"/><use xlink:href="#A" transform="matrix(0 -10 -10 0 390.55 78.393)" fill="#231815"/><use xlink:href="#s" transform="matrix(0 -10 -10 0 390.506 73.938)" fill="#231815"/><use xlink:href="#q" transform="matrix(0 -10 -10 0 390.55 69.879)" fill="#231815"/><use xlink:href="#g" transform="matrix(0 -10 -10 0 390.413 64.562)" fill="#231815"/><use xlink:href="#h" transform="matrix(0 -10 -10 0 390.413 62.016)" fill="#231815"/><use xlink:href="#k" transform="matrix(0 -10 -10 0 390.55 56.703)" fill="#231815"/><use xlink:href="#w" transform="matrix(0 -10 -10 0 390.486 52.537)" fill="#231815"/><use xlink:href="#z" transform="matrix(0 -10 -10 0 405.093 105.171)" fill="#231815"/><use xlink:href="#g" transform="matrix(0 -10 -10 0 405.093 99.942)" fill="#231815"/><use xlink:href="#i" transform="matrix(0 -10 -10 0 407.251 97.157)" fill="#231815"/><use xlink:href="#z" transform="matrix(0 -10 -10 0 405.093 92.391)" fill="#231815"/><use xlink:href="#l" transform="matrix(0 -10 -10 0 405.093 87.455)" fill="#231815"/><use xlink:href="#A" transform="matrix(0 -10 -10 0 405.23 84.613)" fill="#231815"/><use xlink:href="#s" transform="matrix(0 -10 -10 0 405.186 80.158)" fill="#231815"/><use xlink:href="#q" transform="matrix(0 -10 -10 0 405.23 76.099)" fill="#231815"/><use xlink:href="#g" transform="matrix(0 -10 -10 0 405.093 70.782)" fill="#231815"/><use xlink:href="#h" transform="matrix(0 -10 -10 0 405.093 68.236)" fill="#231815"/><use xlink:href="#k" transform="matrix(0 -10 -10 0 405.23 62.924)" fill="#231815"/><use xlink:href="#w" transform="matrix(0 -10 -10 0 405.166 58.757)" fill="#231815"/><use xlink:href="#r" transform="matrix(0 -10 -10 0 421.28 87.551)" fill="#231815"/><use xlink:href="#s" transform="matrix(0 -10 -10 0 421.236 80.038)" fill="#231815"/><use xlink:href="#o" transform="matrix(0 -10 -10 0 421.143 75.891)" fill="#231815"/><use xlink:href="#m" transform="matrix(0 -10 -10 0 421.28 72.293)" fill="#231815"/><use xlink:href="#o" transform="matrix(0 -10 -10 0 421.143 67.561)" fill="#231815"/><use xlink:href="#n" transform="matrix(0 -10 -10 0 421.28 63.958)" fill="#231815"/><use xlink:href="#q" transform="matrix(0 -10 -10 0 421.28 59.319)" fill="#231815"/><use xlink:href="#k" transform="matrix(0 -10 -10 0 421.28 53.924)" fill="#231815"/><use xlink:href="#f" transform="matrix(0 -10 -10 0 436.84 71.176)" fill="#231815"/><use xlink:href="#g" transform="matrix(0 -10 -10 0 436.703 67.482)" fill="#231815"/><use xlink:href="#h" transform="matrix(0 -10 -10 0 436.703 64.936)" fill="#231815"/><use xlink:href="#E" transform="matrix(0 -10 -10 0 436.703 59.912)" fill="#231815"/><use xlink:href="#q" transform="matrix(0 -10 -10 0 452.83 91.979)" fill="#231815"/><use xlink:href="#s" transform="matrix(0 -10 -10 0 452.786 86.598)" fill="#231815"/><use xlink:href="#w" transform="matrix(0 -10 -10 0 452.766 82.417)" fill="#231815"/><use xlink:href="#z" transform="matrix(0 -10 -10 0 452.693 79.671)" fill="#231815"/><use xlink:href="#q" transform="matrix(0 -10 -10 0 468.52 131.909)" fill="#231815"/><use xlink:href="#s" transform="matrix(0 -10 -10 0 468.476 126.528)" fill="#231815"/><use xlink:href="#w" transform="matrix(0 -10 -10 0 468.456 122.347)" fill="#231815"/><use xlink:href="#z" transform="matrix(0 -10 -10 0 468.383 119.601)" fill="#231815"/><use xlink:href="#l" transform="matrix(0 -10 -10 0 468.383 114.665)" fill="#231815"/><use xlink:href="#w" transform="matrix(0 -10 -10 0 468.456 112.067)" fill="#231815"/><use xlink:href="#p" transform="matrix(0 -10 -10 0 468.52 109.375)" fill="#231815"/><use xlink:href="#q" transform="matrix(0 -10 -10 0 468.52 104.409)" fill="#231815"/><use xlink:href="#f" transform="matrix(0 -10 -10 0 484.11 90.976)" fill="#231815"/><use xlink:href="#F" transform="matrix(0 -10 -10 0 486.112 87.243)" fill="#231815"/><use xlink:href="#p" transform="matrix(0 -10 -10 0 484.11 82.565)" fill="#231815"/><use xlink:href="#s" transform="matrix(0 -10 -10 0 484.066 77.218)" fill="#231815"/><use xlink:href="#w" transform="matrix(0 -10 -10 0 484.046 73.037)" fill="#231815"/><use xlink:href="#l" transform="matrix(0 -10 -10 0 483.973 70.355)" fill="#231815"/><use xlink:href="#w" transform="matrix(0 -10 -10 0 484.046 67.757)" fill="#231815"/><use xlink:href="#n" transform="matrix(0 -10 -10 0 484.11 64.738)" fill="#231815"/><use xlink:href="#g" transform="matrix(0 -10 -10 0 483.973 59.782)" fill="#231815"/><use xlink:href="#j" transform="matrix(0 -10 -10 0 483.973 56.997)" fill="#231815"/><use xlink:href="#k" transform="matrix(0 -10 -10 0 484.11 54.144)" fill="#231815"/><use xlink:href="#w" transform="matrix(0 -10 -10 0 484.046 49.977)" fill="#231815"/><use xlink:href="#p" transform="matrix(0 -10 -10 0 499.24 103.125)" fill="#231815"/><use xlink:href="#o" transform="matrix(0 -10 -10 0 499.103 98.071)" fill="#231815"/><use xlink:href="#g" transform="matrix(0 -10 -10 0 499.103 94.512)" fill="#231815"/><use xlink:href="#h" transform="matrix(0 -10 -10 0 499.103 91.966)" fill="#231815"/><use xlink:href="#s" transform="matrix(0 -10 -10 0 499.196 86.668)" fill="#231815"/><use xlink:href="#j" transform="matrix(0 -10 -10 0 499.103 82.287)" fill="#231815"/><use xlink:href="#w" transform="matrix(0 -10 -10 0 515.386 81.737)" fill="#231815"/><use xlink:href="#n" transform="matrix(0 -10 -10 0 515.45 78.718)" fill="#231815"/><use xlink:href="#g" transform="matrix(0 -10 -10 0 515.313 73.762)" fill="#231815"/><use xlink:href="#j" transform="matrix(0 -10 -10 0 515.313 70.977)" fill="#231815"/><use xlink:href="#k" transform="matrix(0 -10 -10 0 515.45 68.124)" fill="#231815"/><use xlink:href="#w" transform="matrix(0 -10 -10 0 515.386 63.957)" fill="#231815"/><use xlink:href="#k" transform="matrix(0 -10 -10 0 545.3 90.604)" fill="#231815"/><use xlink:href="#j" transform="matrix(0 -10 -10 0 545.163 86.237)" fill="#231815"/><use xlink:href="#k" transform="matrix(0 -10 -10 0 545.3 83.384)" fill="#231815"/><use xlink:href="#x" transform="matrix(0 -10 -10 0 545.3 79.232)" fill="#231815"/><use xlink:href="#s" transform="matrix(0 -10 -10 0 545.256 73.958)" fill="#231815"/><use xlink:href="#w" transform="matrix(0 -10 -10 0 545.236 69.777)" fill="#231815"/><use xlink:href="#n" transform="matrix(0 -10 -10 0 545.3 66.758)" fill="#231815"/><use xlink:href="#o" transform="matrix(0 -10 -10 0 545.163 62.031)" fill="#231815"/><use xlink:href="#k" transform="matrix(0 -10 -10 0 564.87 153.854)" fill="#231815"/><use xlink:href="#f" transform="matrix(0 -10 -10 0 564.87 149.296)" fill="#231815"/><use xlink:href="#A" transform="matrix(0 -10 -10 0 564.87 145.553)" fill="#231815"/><use xlink:href="#s" transform="matrix(0 -10 -10 0 564.826 141.098)" fill="#231815"/><use xlink:href="#j" transform="matrix(0 -10 -10 0 564.733 136.717)" fill="#231815"/><use xlink:href="#s" transform="matrix(0 -10 -10 0 564.826 133.878)" fill="#231815"/><use xlink:href="#w" transform="matrix(0 -10 -10 0 564.806 129.697)" fill="#231815"/><use xlink:href="#n" transform="matrix(0 -10 -10 0 564.87 126.678)" fill="#231815"/><use xlink:href="#o" transform="matrix(0 -10 -10 0 564.733 121.951)" fill="#231815"/><use xlink:href="#h" transform="matrix(0 -10 -10 0 16.353 127.206)" fill="#231815"/><use xlink:href="#p" transform="matrix(0 -10 -10 0 16.49 122.255)" fill="#231815"/><use xlink:href="#v" transform="matrix(0 -10 -10 0 16.353 117.182)" fill="#231815"/><use xlink:href="#q" transform="matrix(0 -10 -10 0 16.49 109.509)" fill="#231815"/><use xlink:href="#k" transform="matrix(0 -10 -10 0 16.49 104.114)" fill="#231815"/><use xlink:href="#o" transform="matrix(0 -10 -10 0 16.353 99.981)" fill="#231815"/><use xlink:href="#l" transform="matrix(0 -10 -10 0 16.353 96.715)" fill="#231815"/><use xlink:href="#n" transform="matrix(0 -10 -10 0 16.49 93.878)" fill="#231815"/><use xlink:href="#y" transform="matrix(0 -10 -10 0 16.353 88.829)" fill="#231815"/><use xlink:href="#l" transform="matrix(0 -10 -10 0 16.353 85.885)" fill="#231815"/><use xlink:href="#g" transform="matrix(0 -10 -10 0 16.353 83.092)" fill="#231815"/><use xlink:href="#h" transform="matrix(0 -10 -10 0 16.353 80.546)" fill="#231815"/><use xlink:href="#f" transform="matrix(0 -10 -10 0 16.49 75.116)" fill="#231815"/><use xlink:href="#w" transform="matrix(0 -10 -10 0 16.426 71.617)" fill="#231815"/><use xlink:href="#s" transform="matrix(0 -10 -10 0 16.446 68.578)" fill="#231815"/><use xlink:href="#h" transform="matrix(0 -10 -10 0 16.353 64.436)" fill="#231815"/><use xlink:href="#A" transform="matrix(0 -10 -10 0 16.49 59.153)" fill="#231815"/><use xlink:href="#k" transform="matrix(0 -10 -10 0 16.49 54.684)" fill="#231815"/><use xlink:href="#f" transform="matrix(0 -10 -10 0 16.49 50.126)" fill="#231815"/><clipPath id="G"><path transform="matrix(1 0 0 -1 0 187.087)" d="M0 187.087h595.276V0H0z"/></clipPath><g clip-path="url(#G)" fill="#231815"><use xlink:href="#m" transform="matrix(10 0 0 -10 69.667 184.118)"/><use xlink:href="#n" transform="matrix(10 0 0 -10 74.671 184.118)"/><use xlink:href="#n" transform="matrix(10 0 0 -10 79.671 184.118)"/><use xlink:href="#o" transform="matrix(10 0 0 -10 84.398 183.982)"/><use xlink:href="#r" transform="matrix(10 0 0 -10 131.908 184.118)"/><use xlink:href="#g" transform="matrix(10 0 0 -10 139.357 183.982)"/><use xlink:href="#h" transform="matrix(10 0 0 -10 141.903 183.982)"/><use xlink:href="#m" transform="matrix(10 0 0 -10 147.177 184.118)"/><use xlink:href="#n" transform="matrix(10 0 0 -10 152.181 184.118)"/><use xlink:href="#r" transform="matrix(10 0 0 -10 156.908 184.118)"/><use xlink:href="#f" transform="matrix(10 0 0 -10 192.993 184.118)"/><use xlink:href="#w" transform="matrix(10 0 0 -10 196.492 184.055)"/><use xlink:href="#s" transform="matrix(10 0 0 -10 199.53 184.074)"/><use xlink:href="#g" transform="matrix(10 0 0 -10 203.907 183.982)"/><use xlink:href="#o" transform="matrix(10 0 0 -10 206.458 183.982)"/><use xlink:href="#z" transform="matrix(10 0 0 -10 218.308 183.982)"/><use xlink:href="#n" transform="matrix(10 0 0 -10 223.581 184.118)"/><use xlink:href="#v" transform="matrix(10 0 0 -10 228.328 183.982)"/><use xlink:href="#k" transform="matrix(10 0 0 -10 236.396 184.118)"/><use xlink:href="#l" transform="matrix(10 0 0 -10 240.465 183.982)"/><use xlink:href="#s" transform="matrix(10 0 0 -10 243.321 184.074)"/><use xlink:href="#u" transform="matrix(10 0 0 -10 247.37 186.12)"/><use xlink:href="#u" transform="matrix(10 0 0 -10 252.37 186.12)"/><use xlink:href="#j" transform="matrix(10 0 0 -10 257.702 183.982)"/><use xlink:href="#g" transform="matrix(10 0 0 -10 260.477 183.982)"/><use xlink:href="#s" transform="matrix(10 0 0 -10 263.321 184.074)"/><use xlink:href="#h" transform="matrix(10 0 0 -10 267.463 183.982)"/><use xlink:href="#A" transform="matrix(10 0 0 -10 272.746 184.118)"/><use xlink:href="#k" transform="matrix(10 0 0 -10 277.216 184.118)"/><use xlink:href="#y" transform="matrix(10 0 0 -10 401.47 183.982)"/><use xlink:href="#p" transform="matrix(10 0 0 -10 404.424 184.118)"/><use xlink:href="#o" transform="matrix(10 0 0 -10 409.478 183.982)"/><use xlink:href="#h" transform="matrix(10 0 0 -10 412.803 183.982)"/><use xlink:href="#g" transform="matrix(10 0 0 -10 418.037 183.982)"/><use xlink:href="#w" transform="matrix(10 0 0 -10 420.622 184.055)"/><use xlink:href="#p" transform="matrix(10 0 0 -10 423.314 184.118)"/><use xlink:href="#o" transform="matrix(10 0 0 -10 428.368 183.982)"/><use xlink:href="#k" transform="matrix(10 0 0 -10 432.006 184.118)"/><use xlink:href="#k" transform="matrix(10 0 0 -10 531.566 184.118)"/><use xlink:href="#F" transform="matrix(10 0 0 -10 535.967 186.12)"/><use xlink:href="#p" transform="matrix(10 0 0 -10 540.644 184.118)"/><use xlink:href="#g" transform="matrix(10 0 0 -10 545.928 183.982)"/><use xlink:href="#u" transform="matrix(10 0 0 -10 548.38 186.12)"/><use xlink:href="#v" transform="matrix(10 0 0 -10 553.498 183.982)"/><use xlink:href="#k" transform="matrix(10 0 0 -10 561.566 184.118)"/><use xlink:href="#h" transform="matrix(10 0 0 -10 565.693 183.982)"/><use xlink:href="#w" transform="matrix(10 0 0 -10 570.732 184.055)"/></g><path stroke-width=".5" stroke-miterlimit="10" fill="none" stroke="#231815" d="M108.714 168.372v5.999M186.703 167.693v5.999M217.138 168.372v5.999M279.366 167.693v5.999M528.28 167.693v5.999M49.72 168.372v5.999M578.408 167.693v5.999"/></g></svg>