<svg xmlns="http://www.w3.org/2000/svg" xmlns:xlink="http://www.w3.org/1999/xlink" width="468.661" height="257.008" viewBox="0 0 351.496 192.756"><g data-name="图层 1"><path stroke-width=".75" stroke-linecap="round" stroke-linejoin="round" fill="none" stroke="#8ca68e" d="M47.07 86.547h24.01M71.08 86.547v8.47M71.08 95.017H47.07M47.07 95.017v-8.47M47.07 95.017l24.01-8.47M47.07 86.547l24.01 8.47"/><path stroke-width=".75" stroke-linecap="round" stroke-linejoin="round" fill="none" stroke="#184f2a" d="M76.729 79.487v-.71M76.729 78.777h.71M76.729 78.777v-21.19M76.729 78.777v-21.19M47.07 78.777h29.66M53.14 78.777v-21.19M53.14 57.587h-5.08M48.06 57.587v21.19M52.72 76.657v-7.91M52.72 68.747h-4.24M48.479 68.747v7.91M48.479 76.657h4.24M52.72 59.707v7.91M52.72 67.617h-4.24M48.479 67.617v-7.91M48.479 59.707h4.24M73.91 78.777v-21.19M73.91 57.587h-5.66M68.25 57.587v21.19M68.25 78.777h5.66M69.67 78.777l-1.42-4.94M76.729 56.888v.699M76.729 57.587h.71M76.729 61.827h-2.82M76.729 60.417h-2.82M76.729 57.587h-29.66M47.07 57.587v21.19M48.06 78.777h5.08"/><path stroke-width=".75" stroke-linecap="round" stroke-linejoin="round" fill="none" stroke="#4b7352" d="M54.13 85.138h-.71M53.42 85.138v.699M47.07 85.138h6.35M53.42 85.138v-6.36"/><path stroke-width=".75" stroke-linecap="round" stroke-linejoin="round" fill="none" stroke="#184f2a" d="M53.42 78.777h-6.35"/><path stroke-width=".75" stroke-linecap="round" stroke-linejoin="round" fill="none" stroke="#4b7352" d="M47.07 78.777v6.36"/><clipPath id="a"><path transform="matrix(1 0 0 -1 0 192.756)" d="M0 192.756h351.496V0H0z"/></clipPath><g clip-path="url(#a)"><path stroke-width=".75" stroke-linecap="round" stroke-linejoin="round" fill="none" stroke="#4b7352" d="M50.25 81.247a.71.71 0 1 1 0 1.419.71.71 0 0 1 0-1.419z"/><path stroke-width=".75" stroke-linecap="round" stroke-linejoin="round" fill="none" stroke="#4b7352" d="M50.25 80.547a1.41 1.41 0 1 1-.001 2.82 1.41 1.41 0 0 1 0-2.82zM48.13 81.957h4.23M50.25 79.837v4.24M54.13 51.237h-.71M53.42 51.237v-.71M47.07 51.237h6.35M53.42 51.237v6.35"/><path stroke-width=".75" stroke-linecap="round" stroke-linejoin="round" fill="none" stroke="#184f2a" d="M53.42 57.587h-6.35"/><path stroke-width=".75" stroke-linecap="round" stroke-linejoin="round" fill="none" stroke="#4b7352" d="M47.07 57.587v-6.35M50.25 53.707a.71.71 0 1 1 0 1.419.71.71 0 0 1 0-1.419z"/><path stroke-width=".75" stroke-linecap="round" stroke-linejoin="round" fill="none" stroke="#4b7352" d="M50.25 53.008a1.41 1.41 0 1 1 0 2.819 1.41 1.41 0 0 1 0-2.82zM48.13 54.417h4.23M50.25 56.537v-4.24"/><path stroke-width=".75" stroke-linecap="round" stroke-linejoin="round" fill="none" stroke="#f6faf4" d="M88.45 80.547h2.4M90.85 80.117c0 .23-.19.42-.42.42M90.85 80.117v-5.51M90.43 74.187c.23 0 .42.19.42.42M90.85 74.187h-2.4M88.03 80.117v-5.51M88.45 80.547a.422.422 0 0 1-.42-.42M88.03 74.607c0-.23.19-.42.42-.42M90.85 80.547l6.5-1.3M97.92 78.557c0 .34-.24.63-.57.69M97.92 78.557v-2.38M97.35 75.487c.33.07.57.36.57.69M97.35 75.487l-6.5-1.3M92.18 79.848l5.08-1.021M97.49 78.557c0 .13-.1.25-.23.28M97.49 78.557v-2.38M97.26 75.897c.13.03.23.14.23.28M97.26 75.897l-5.08-1.01M91.84 75.167a.28.28 0 0 1 .28-.28c.02 0 .04 0 .05.01M91.84 75.167v4.4M92.18 79.848a.284.284 0 0 1-.33-.221c0-.02-.01-.04-.01-.05"/><path stroke-width=".75" stroke-linecap="round" stroke-linejoin="round" fill="none" stroke="#9eb49e" d="M88.03 95.017h6.35M94.38 83.017h-6.35M88.03 83.017v12M90.15 92.897h5.65M90.57 92.477h4.8M90.15 85.138h5.65M90.57 85.557h4.8M95.8 92.897v-7.76M95.37 92.477v-6.92M90.15 85.138v3.67M90.15 89.227v3.67M90.57 85.557v3.25M90.57 89.227v3.25M91.56 89.227h-2.51M91.56 88.807h-2.51M91.56 89.227v-.42M89.37 88.027a.32.32 0 1 1-.001.64.32.32 0 0 1 0-.64zM89.37 89.367a.32.32 0 1 1-.001.64.32.32 0 0 1 0-.64zM89.37 88.527v-.36M89.19 88.348h.36M89.37 89.517v.35M89.19 89.687h.36M89.05 89.227v-.42M94.38 83.017v2.12M94.38 92.897v2.12"/><path stroke-width=".75" stroke-linecap="round" stroke-linejoin="round" fill="none" stroke="#aec2b0" d="M111.62 60.138H88.45M88.45 60.138v11.159M88.45 71.297h23.17M111.62 71.297v-11.16M112.04 59.707H88.03M88.03 59.707v12.011M88.03 71.718h24.01M112.04 71.718V59.707M87.04 65.497h2.12M87.04 65.928h2.12M89.16 65.497v.431M90.01 66.557v-1.69M88.31 66.557h1.7M88.31 64.867h1.7M87.04 65.497h2.12M87.04 65.928h2.12M89.16 65.497v.431M90.01 66.557v-1.69M88.31 66.557h1.7M88.31 64.867h1.7"/><path stroke-width=".25" stroke-linecap="round" stroke-linejoin="round" fill="none" stroke="#040000" d="M96.5 55.477h11.3M107.8 55.477v-4.24M107.8 51.237H96.5M96.5 51.237v4.24M96.5 55.477l3.6-1.44M107.8 55.477l-4.06-1.63M103.74 52.857l4.06-1.62M100.1 52.678l-3.6-1.44M121.93 55.477v-15.54M121.93 39.937h39.55M161.479 39.937v15.54"/><path stroke-width=".75" stroke-linecap="round" stroke-linejoin="round" fill="none" stroke="#9b97c1" d="M120.87 53.357v-11.3M120.87 42.057h-6.36M114.51 42.057v11.3M114.51 53.357h6.36M120.16 48.267a.28.28 0 1 1 0 .56.28.28 0 1 1 0-.56zM119.88 48.547h.56M120.16 46.577a.28.28 0 1 1-.001.56.28.28 0 0 1 0-.56zM119.88 46.857h.56M115.92 49.678l1.04 1.04M117.86 51.617l1.03 1.03M117.41 50.107a1.06 1.06 0 1 1-.002 2.121 1.06 1.06 0 0 1 .001-2.12zM115.92 52.647l1.04-1.03M117.86 50.718l1.03-1.04M115.92 52.647v-2.97M115.92 49.678h2.97M118.89 49.678v2.97M118.89 52.647h-2.97M115.92 45.727l1.04-1.03M117.86 43.797l1.03-1.04M117.41 43.187a1.06 1.06 0 1 1-.002 2.121 1.06 1.06 0 0 1 .001-2.12zM115.92 42.758l1.04 1.039M117.86 44.697l1.03 1.03M115.92 42.758v2.97M115.92 45.727h2.97M118.89 45.727v-2.97M118.89 42.758h-2.97"/><path stroke-width=".25" stroke-linecap="round" stroke-linejoin="round" fill="none" stroke="#040000" d="M120.87 37.468v-5.65M120.87 31.817h-7.06M113.81 31.817v5.65M113.81 37.468h7.06M121.93 37.817v-6.36M121.93 31.457h-8.48M113.45 31.457v6.36M113.45 37.817h8.48M120.66 37.057v-4.83M120.66 32.227l-.21-.2M120.45 32.027h-6.23M114.22 32.027l-.2.2M114.02 32.227v4.83M114.02 37.057l.2.2M114.22 37.258h6.23M120.45 37.258l.21-.2M120.66 33.367h.21M120.66 35.907h.21M120.45 37.258l-5.89-.66M114.56 36.598l-.54-4.37M122.35 35.067v-.85M122.35 34.218l-.42.42M121.93 34.638l.42.43"/><path stroke-width=".75" stroke-linecap="round" stroke-linejoin="round" fill="none" stroke="#3b6743" d="M128.99 85.138h29.66M158.65 85.138V73.127M158.65 73.127h-29.66M128.99 73.127v12.01M137.6 85.138h.57"/><path stroke-width=".75" stroke-linecap="round" stroke-linejoin="round" fill="none" stroke="#2c5b35" d="M138.17 85.138v4.939M138.17 90.077h-7.06M131.11 90.077v-4.939"/><path stroke-width=".75" stroke-linecap="round" stroke-linejoin="round" fill="none" stroke="#3b6743" d="M131.11 85.138h.56"/><path stroke-width=".75" stroke-linecap="round" stroke-linejoin="round" fill="none" stroke="#2c5b35" d="M137.6 85.138v4.38M137.6 89.517h-5.93M137.6 88.807h-5.93M131.67 89.517v-4.38M131.11 90.077h-.71M131.11 90.077v.71M138.17 90.077h.71M138.17 90.077v.71"/><path stroke-width=".75" stroke-linecap="round" stroke-linejoin="round" fill="none" stroke="#3b6743" d="M128.99 85.138h29.66M158.65 85.138V73.127M158.65 73.127h-29.66M128.99 73.127v12.01M137.6 85.138h.57M131.11 85.138h.56"/><path stroke-width=".75" stroke-linecap="round" stroke-linejoin="round" fill="none" stroke="#2c5b35" d="M137.6 88.807h-5.93M131.67 89.517h5.93M137.6 89.517v-6.5"/><path stroke-width=".75" stroke-linecap="round" stroke-linejoin="round" fill="none" stroke="#3b6743" d="M137.6 83.017h-5.93"/><path stroke-width=".75" stroke-linecap="round" stroke-linejoin="round" fill="none" stroke="#2c5b35" d="M131.67 83.017v6.5"/><path stroke-width=".75" stroke-linecap="round" stroke-linejoin="round" fill="none" stroke="#3b6743" d="M150.03 85.138h-.56"/><path stroke-width=".75" stroke-linecap="round" stroke-linejoin="round" fill="none" stroke="#2c5b35" d="M149.47 85.138v4.939M149.47 90.077h7.06M156.53 90.077v-4.939"/><path stroke-width=".75" stroke-linecap="round" stroke-linejoin="round" fill="none" stroke="#3b6743" d="M156.53 85.138h-.56"/><path stroke-width=".75" stroke-linecap="round" stroke-linejoin="round" fill="none" stroke="#2c5b35" d="M150.03 85.138v4.38M150.03 89.517h5.94M150.03 88.807h5.94M155.97 89.517v-4.38M156.53 90.077h.71M156.53 90.077v.71M149.47 90.077h-.71M149.47 90.077v.71"/><path stroke-width=".75" stroke-linecap="round" stroke-linejoin="round" fill="none" stroke="#3b6743" d="M150.03 85.138h-.56M156.53 85.138h-.56"/><path stroke-width=".75" stroke-linecap="round" stroke-linejoin="round" fill="none" stroke="#2c5b35" d="M150.03 88.807h5.94M155.97 89.517h-5.94M150.03 89.517v-6.5"/><path stroke-width=".75" stroke-linecap="round" stroke-linejoin="round" fill="none" stroke="#3b6743" d="M150.03 83.017h5.94"/><path stroke-width=".75" stroke-linecap="round" stroke-linejoin="round" fill="none" stroke="#2c5b35" d="M155.97 83.017v6.5"/><path stroke-width=".75" stroke-linecap="round" stroke-linejoin="round" fill="none" stroke="#3b6743" d="M146.78 85.138h.57"/><path stroke-width=".75" stroke-linecap="round" stroke-linejoin="round" fill="none" stroke="#2c5b35" d="M147.35 85.138v4.939M147.35 90.077h-7.06M140.29 90.077v-4.939"/><path stroke-width=".75" stroke-linecap="round" stroke-linejoin="round" fill="none" stroke="#3b6743" d="M140.29 85.138h.56"/><path stroke-width=".75" stroke-linecap="round" stroke-linejoin="round" fill="none" stroke="#2c5b35" d="M146.78 85.138v4.38M146.78 89.517h-5.93M146.78 88.807h-5.93M140.85 89.517v-4.38M140.29 90.077h-.71M140.29 90.077v.71M147.35 90.077h.71M147.35 90.077v.71"/><path stroke-width=".75" stroke-linecap="round" stroke-linejoin="round" fill="none" stroke="#3b6743" d="M146.78 85.138h.57M140.29 85.138h.56"/><path stroke-width=".75" stroke-linecap="round" stroke-linejoin="round" fill="none" stroke="#2c5b35" d="M146.78 88.807h-5.93M140.85 89.517h5.93M146.78 89.517v-6.5"/><path stroke-width=".75" stroke-linecap="round" stroke-linejoin="round" fill="none" stroke="#3b6743" d="M146.78 83.017h-5.93"/><path stroke-width=".75" stroke-linecap="round" stroke-linejoin="round" fill="none" stroke="#2c5b35" d="M140.85 83.017v6.5"/><path stroke-width=".75" stroke-linecap="round" stroke-linejoin="round" fill="none" stroke="#3b6743" d="M137.6 73.127h.57"/><path stroke-width=".75" stroke-linecap="round" stroke-linejoin="round" fill="none" stroke="#2c5b35" d="M138.17 73.127v-4.94M138.17 68.187h-7.06M131.11 68.187v4.94"/><path stroke-width=".75" stroke-linecap="round" stroke-linejoin="round" fill="none" stroke="#3b6743" d="M131.11 73.127h.56"/><path stroke-width=".75" stroke-linecap="round" stroke-linejoin="round" fill="none" stroke="#2c5b35" d="M137.6 73.127v-4.38M137.6 68.747h-5.93M137.6 69.457h-5.93M131.67 68.747v4.38M131.11 68.187h-.71M131.11 68.187v-.71M138.17 68.187h.71M138.17 68.187v-.71"/><path stroke-width=".75" stroke-linecap="round" stroke-linejoin="round" fill="none" stroke="#3b6743" d="M137.6 73.127h.57M131.11 73.127h.56"/><path stroke-width=".75" stroke-linecap="round" stroke-linejoin="round" fill="none" stroke="#2c5b35" d="M137.6 69.457h-5.93M131.67 68.747h5.93"/><path stroke-width=".75" stroke-linecap="round" stroke-linejoin="round" fill="none" stroke="#040000" d="M137.6 68.747v6.5"/><path stroke-width=".75" stroke-linecap="round" stroke-linejoin="round" fill="none" stroke="#3b6743" d="M137.6 75.247h-5.93"/><path stroke-width=".75" stroke-linecap="round" stroke-linejoin="round" fill="none" stroke="#040000" d="M131.67 75.247v-6.5"/><path stroke-width=".75" stroke-linecap="round" stroke-linejoin="round" fill="none" stroke="#3b6743" d="M150.03 73.127h-.56"/><path stroke-width=".75" stroke-linecap="round" stroke-linejoin="round" fill="none" stroke="#2c5b35" d="M149.47 73.127v-4.94M149.47 68.187h7.06M156.53 68.187v4.94"/><path stroke-width=".75" stroke-linecap="round" stroke-linejoin="round" fill="none" stroke="#3b6743" d="M156.53 73.127h-.56"/><path stroke-width=".75" stroke-linecap="round" stroke-linejoin="round" fill="none" stroke="#2c5b35" d="M150.03 73.127v-4.38M150.03 68.747h5.94M150.03 69.457h5.94M155.97 68.747v4.38M156.53 68.187h.71M156.53 68.187v-.71M149.47 68.187h-.71M149.47 68.187v-.71"/><path stroke-width=".75" stroke-linecap="round" stroke-linejoin="round" fill="none" stroke="#3b6743" d="M150.03 73.127h-.56M156.53 73.127h-.56"/><path stroke-width=".75" stroke-linecap="round" stroke-linejoin="round" fill="none" stroke="#2c5b35" d="M150.03 69.457h5.94M155.97 68.747h-5.94"/><path stroke-width=".75" stroke-linecap="round" stroke-linejoin="round" fill="none" stroke="#040000" d="M150.03 68.747v6.5"/><path stroke-width=".75" stroke-linecap="round" stroke-linejoin="round" fill="none" stroke="#3b6743" d="M150.03 75.247h5.94"/><path stroke-width=".75" stroke-linecap="round" stroke-linejoin="round" fill="none" stroke="#040000" d="M155.97 75.247v-6.5"/><path stroke-width=".75" stroke-linecap="round" stroke-linejoin="round" fill="none" stroke="#3b6743" d="M146.78 73.127h.57"/><path stroke-width=".75" stroke-linecap="round" stroke-linejoin="round" fill="none" stroke="#2c5b35" d="M147.35 73.127v-4.94M147.35 68.187h-7.06M140.29 68.187v4.94"/><path stroke-width=".75" stroke-linecap="round" stroke-linejoin="round" fill="none" stroke="#3b6743" d="M140.29 73.127h.56"/><path stroke-width=".75" stroke-linecap="round" stroke-linejoin="round" fill="none" stroke="#2c5b35" d="M146.78 73.127v-4.38M146.78 68.747h-5.93M146.78 69.457h-5.93M140.85 68.747v4.38M140.29 68.187h-.71M140.29 68.187v-.71M147.35 68.187h.71M147.35 68.187v-.71"/><path stroke-width=".75" stroke-linecap="round" stroke-linejoin="round" fill="none" stroke="#3b6743" d="M146.78 73.127h.57M140.29 73.127h.56"/><path stroke-width=".75" stroke-linecap="round" stroke-linejoin="round" fill="none" stroke="#2c5b35" d="M146.78 69.457h-5.93M140.85 68.747h5.93"/><path stroke-width=".75" stroke-linecap="round" stroke-linejoin="round" fill="none" stroke="#040000" d="M146.78 68.747v6.5"/><path stroke-width=".75" stroke-linecap="round" stroke-linejoin="round" fill="none" stroke="#3b6743" d="M146.78 75.247h-5.93"/><path stroke-width=".75" stroke-linecap="round" stroke-linejoin="round" fill="none" stroke="#040000" d="M140.85 75.247v-6.5"/><path stroke-width=".75" stroke-linecap="round" stroke-linejoin="round" fill="none" stroke="#7b997f" d="M113.45 56.888h5.65M119.1 56.888v39.55M119.1 96.437h-5.65M113.45 96.437v-39.55M119.1 96.437l-5.65-39.55M119.1 56.888l-5.65 39.55"/><path stroke-width=".75" stroke-linecap="round" stroke-linejoin="round" fill="none" stroke="#8ca68e" d="M112.04 121.857H86.62M86.62 121.857v-8.47M86.62 113.388h25.42M112.04 113.388v8.47M112.04 113.388l-25.42 8.47M112.04 121.857l-25.42-8.47"/><path stroke-width=".75" stroke-linecap="round" stroke-linejoin="round" fill="none" stroke="#184f2a" d="M82.38 156.457v-.699M82.38 155.758h-.71M82.38 155.758v-25.431M82.38 130.327h29.66M112.04 130.327v25.431M112.04 155.758H82.38M105.97 155.758v-25.431M105.97 130.327h5.08M111.05 130.327v25.431M111.05 155.758h-5.08M106.39 153.638v-10.03M106.39 143.607h4.24M110.63 143.607v10.03M110.63 153.638h-4.24M106.39 132.447v10.03M106.39 142.477h4.24M110.63 142.477v-10.03M110.63 132.447h-4.24M85.2 155.758v-25.431M85.2 130.327h5.65M90.85 130.327v25.431M90.85 155.758H85.2M89.44 155.758l1.41-7.061M82.38 129.627v.7M82.38 130.327h-.71M82.38 135.987h2.82M82.38 134.567h2.82M82.38 133.157h2.82M82.38 156.457v-.699M82.38 155.758h-.71M89.44 155.758l1.41-7.061M82.38 129.627v.7M82.38 130.327h-.71M82.38 135.987h2.82M82.38 134.567h2.82M82.38 133.157h2.82"/><path stroke-width=".75" stroke-linecap="round" stroke-linejoin="round" fill="none" stroke="#4b7352" d="M104.979 163.527v-.71M104.979 162.817h-.71M104.979 155.758v7.06M104.979 162.817h7.06M112.04 162.817v-7.06"/><path stroke-width=".75" stroke-linecap="round" stroke-linejoin="round" fill="none" stroke="#184f2a" d="M112.04 155.758h-7.06"/><path stroke-width=".75" stroke-linecap="round" stroke-linejoin="round" fill="none" stroke="#4b7352" d="M108.51 158.577a.71.71 0 1 1-.001 1.42.71.71 0 0 1 0-1.42z"/><path stroke-width=".75" stroke-linecap="round" stroke-linejoin="round" fill="none" stroke="#4b7352" d="M108.51 157.877a1.41 1.41 0 1 1-.001 2.82 1.41 1.41 0 0 1 0-2.82zM108.51 157.167v4.24M110.63 159.287h-4.24M104.979 122.567v.7M104.979 123.267h-.71M104.979 130.327v-7.06M104.979 123.267h7.06M112.04 123.267v7.06"/><path stroke-width=".75" stroke-linecap="round" stroke-linejoin="round" fill="none" stroke="#184f2a" d="M112.04 130.327h-7.06"/><path stroke-width=".75" stroke-linecap="round" stroke-linejoin="round" fill="none" stroke="#4b7352" d="M108.51 126.087a.71.71 0 1 1-.001 1.42.71.71 0 0 1 0-1.42z"/><path stroke-width=".75" stroke-linecap="round" stroke-linejoin="round" fill="none" stroke="#4b7352" d="M108.51 125.388a1.41 1.41 0 1 1 0 2.818 1.41 1.41 0 0 1 0-2.818zM108.51 128.917v-4.24M110.63 126.797h-4.24"/><path stroke-width=".25" stroke-linecap="round" stroke-linejoin="round" fill="none" stroke="#040000" d="M113.45 186.827h55.09M113.45 185.417h55.09"/><path stroke-width=".75" stroke-linecap="round" stroke-linejoin="round" fill="none" stroke="#f6faf4" d="M206.32 113.807v2.4M206.74 116.207a.422.422 0 0 1-.42-.42M206.74 116.207h5.51M212.68 115.787c0 .23-.19.42-.421.42M212.68 116.207v-2.399M206.74 113.388h5.51M206.32 113.807c0-.23.188-.42.42-.42M212.25 113.388c.23 0 .42.189.42.42M206.32 116.207l1.3 6.5M208.31 123.267c-.34 0-.63-.24-.69-.57M208.31 123.267h2.38M211.379 122.707a.712.712 0 0 1-.69.57M211.379 122.707l1.3-6.5M207.02 117.537l1.02 5.08M208.31 122.848a.299.299 0 0 1-.28-.23M208.31 122.848h2.38M210.959 122.617a.288.288 0 0 1-.279.23M210.959 122.617l1.021-5.08M211.7 117.197c.16 0 .28.13.28.28 0 .02 0 .04-.01.05M211.7 117.197h-4.41M207.02 117.537a.283.283 0 0 1 .22-.33c.019 0 .04-.01.05-.01"/><path stroke-width=".75" stroke-linecap="round" stroke-linejoin="round" fill="none" stroke="#aec2b0" d="M227.44 134.147v-20.34M227.44 113.807h-11.16M216.28 113.807v20.34M216.28 134.147h11.16M227.86 134.567v-21.18M227.86 113.388h-12.01M215.85 113.388v21.18M215.85 134.567h12.01"/><path stroke-width=".75" stroke-linecap="round" stroke-linejoin="round" fill="none" stroke="#034324" d="M123.62 153.917v-26.83M123.62 127.087h-8.19M115.43 127.087v26.83M115.43 153.917h8.19M122.21 153.917v-1.55M122.21 152.367h-6.78M115.43 152.367v1.55M115.43 153.917h6.78M122.21 128.638v-1.551M122.21 127.087h-6.78M115.43 127.087v1.55M115.43 128.638h6.78M123.62 144.457h-8.19M123.62 154.558v-.641M123.62 153.917h.64M123.62 126.447v.64M123.62 127.087h.64M123.62 136.547h-8.19M115.43 153.917h-1.98M113.45 153.917v-26.83M113.45 127.087h1.98M115.43 127.087v26.83"/><path stroke-width=".75" stroke-linecap="round" stroke-linejoin="round" fill="none" stroke="#3b6743" d="M130.33 148.268h8.48M138.81 148.268v-15.53M138.81 132.737h-8.48M130.33 132.737v15.53M130.33 148.268h-.71M130.33 148.268v.71M138.81 148.268h.7M138.81 148.268v.71M130.33 132.737h-.71M130.33 132.737v-.71M138.81 132.737h.7M138.81 132.737v-.71"/><path stroke-width=".75" stroke-linecap="round" stroke-linejoin="round" fill="none" stroke="#034324" d="M139.87 126.377h-11.3M128.57 126.377v-8.19M128.57 118.187h11.3M139.87 118.187v8.19M139.87 124.968h-1.56M138.31 124.968v-6.78M138.31 118.187h1.56M139.87 118.187v6.78M130.12 124.968h-1.55M128.57 124.968v-6.78M128.57 118.187h1.55M130.12 118.187v6.78M140.5 126.377h-.63M139.87 126.377v.64M127.93 126.377h.64M128.57 126.377v.64M139.87 118.187v-1.98M139.87 116.207h-11.3M128.57 116.207v1.98M128.57 118.187h11.3"/><path stroke-width=".75" stroke-linecap="round" stroke-linejoin="round" fill="none" stroke="#4b7352" d="M115.43 117.337v.71M115.43 118.047h-.7M122.49 125.107h-7.06M115.43 125.107v-7.06M115.43 118.047h7.06M122.49 118.047v7.06M115.43 125.107v-7.06M115.43 118.047h7.06M122.49 118.047v7.06M122.49 125.107h-7.06M118.96 120.867a.71.71 0 1 1 0 1.42.71.71 0 0 1 0-1.42z"/><path stroke-width=".75" stroke-linecap="round" stroke-linejoin="round" fill="none" stroke="#4b7352" d="M118.96 120.167a1.41 1.41 0 1 1-.002 2.822 1.41 1.41 0 0 1 .002-2.822zM118.96 123.697v-4.24M121.08 121.577h-4.24M115.43 125.807v-.7M115.43 125.107h-.7M122.49 117.337v.71M122.49 118.047h.71M122.49 125.807v-.7M122.49 125.107h.71"/><path stroke-width=".25" stroke-linecap="round" stroke-linejoin="round" fill="none" stroke="#040000" d="M116.14 127.087v-1.98M146.64 158.577h-8.19M129.979 158.577h-13.84M116.14 153.917v4.66"/><path stroke-width=".75" stroke-linecap="round" stroke-linejoin="round" fill="none" stroke="#034324" d="M134.22 154.337a4.24 4.24 0 1 1 0 8.479 4.24 4.24 0 0 1 0-8.48z"/><path stroke-width=".75" stroke-linecap="round" stroke-linejoin="round" fill="none" stroke="#034324" d="M134.22 155.397a3.18 3.18 0 1 1-.001 6.361 3.18 3.18 0 0 1 0-6.36zM139.87 126.377h-11.3M128.57 126.377v-8.19M128.57 118.187h11.3M139.87 118.187v8.19M139.87 124.968h-1.56M138.31 124.968v-6.78M138.31 118.187h1.56M139.87 118.187v6.78M130.12 124.968h-1.55M128.57 124.968v-6.78M128.57 118.187h1.55M130.12 118.187v6.78M140.5 126.377h-.63M139.87 126.377v.64M127.93 126.377h.64M128.57 126.377v.64M139.87 118.187v-1.98M139.87 116.207h-11.3M128.57 116.207v1.98M128.57 118.187h11.3"/><path stroke-width=".25" stroke-linecap="round" stroke-linejoin="round" fill="none" stroke="#040000" d="M116.14 127.087v-1.98M146.64 120.157h-6.8M128.59 120.157h-6.1M116.14 127.087v-1.98M146.64 158.577v-38.42"/><path stroke-width=".75" stroke-linecap="round" stroke-linejoin="round" fill="none" stroke="#5b8061" d="M165.01 128.077v25.42M165.01 153.497h4.94M169.95 153.497v-25.42M169.95 128.077h-4.94M165.01 153.497h4.94M169.95 153.497v-25.42M169.95 128.077h-4.94M165.01 128.077v25.42M164.3 128.077h.71M165.01 128.077v-.71M164.3 153.497h.71M165.01 153.497v.7M168.54 149.258h.84M169.38 149.258v-16.95M169.38 132.308h-.84M168.54 132.308v16.95M169.95 147.138v-12.71M169.38 147.138h.57M169.38 134.428h.57M164.3 128.077h.71M165.01 128.077v-.71M164.3 153.497h.71M165.01 153.497v.7M169.95 147.138v-12.71"/><path stroke-width=".75" stroke-linecap="round" stroke-linejoin="round" fill="none" stroke="#8ca68e" d="M21.64 120.447h32.49M54.13 120.447v-8.479M54.13 111.968H21.64M21.64 111.968v8.479M54.13 111.968l-32.49 8.479M54.13 120.447l-32.49-8.479M30.12 111.968v-15.53M30.12 96.437h-8.48M21.64 96.437v15.53M21.64 111.968h8.48M21.64 96.437l8.48 15.53M30.12 96.437l-8.48 15.53"/><path stroke-width=".75" stroke-linecap="round" stroke-linejoin="round" fill="none" stroke="#184f2a" d="M51.31 156.457v-.699M51.31 155.758h.7M51.31 155.758v-25.431M51.31 130.327H21.64M21.64 130.327v25.431M21.64 155.758h29.67M27.72 155.758v-25.431M27.72 130.327h-5.09M22.63 130.327v25.431M22.63 155.758h5.09M27.29 153.638v-10.03M27.29 143.607h-4.23M23.06 143.607v10.03M23.06 153.638h4.23M27.29 132.447v10.03M27.29 142.477h-4.23M23.06 142.477v-10.03M23.06 132.447h4.23M48.479 155.758v-25.431M48.479 130.327h-5.65M42.83 130.327v25.431M42.83 155.758h5.65M44.24 155.758l-1.41-7.061M51.31 129.627v.7M51.31 130.327h.7M51.31 135.987h-2.83M51.31 134.567h-2.83M51.31 133.157h-2.83M51.31 156.457v-.699M51.31 155.758h.7M44.24 155.758l-1.41-7.061M51.31 129.627v.7M51.31 130.327h.7M51.31 135.987h-2.83M51.31 134.567h-2.83M51.31 133.157h-2.83"/><path stroke-width=".75" stroke-linecap="round" stroke-linejoin="round" fill="none" stroke="#4b7352" d="M28.71 163.527v-.71M28.71 162.817h.7M28.71 155.758v7.06M28.71 162.817h-7.07M21.64 162.817v-7.06"/><path stroke-width=".75" stroke-linecap="round" stroke-linejoin="round" fill="none" stroke="#184f2a" d="M21.64 155.758h7.07"/><path stroke-width=".75" stroke-linecap="round" stroke-linejoin="round" fill="none" stroke="#4b7352" d="M25.18 158.577a.71.71 0 1 1-.001 1.42.71.71 0 0 1 0-1.42z"/><path stroke-width=".75" stroke-linecap="round" stroke-linejoin="round" fill="none" stroke="#4b7352" d="M25.18 157.877a1.41 1.41 0 1 1-.001 2.82 1.41 1.41 0 0 1 0-2.82zM25.18 157.167v4.24M23.06 159.287h4.23M28.71 122.567v.7M28.71 123.267h.7M28.71 130.327v-7.06M28.71 123.267h-7.07M21.64 123.267v7.06"/><path stroke-width=".75" stroke-linecap="round" stroke-linejoin="round" fill="none" stroke="#184f2a" d="M21.64 130.327h7.07"/><path stroke-width=".75" stroke-linecap="round" stroke-linejoin="round" fill="none" stroke="#4b7352" d="M25.18 126.087a.71.71 0 1 1-.001 1.42.71.71 0 0 1 0-1.42z"/><path stroke-width=".75" stroke-linecap="round" stroke-linejoin="round" fill="none" stroke="#4b7352" d="M25.18 125.388a1.41 1.41 0 1 1 0 2.818 1.41 1.41 0 0 1 0-2.818zM25.18 128.917v-4.24M23.06 126.797h4.23"/><path stroke-width=".75" stroke-linecap="round" stroke-linejoin="round" fill="none" stroke="#256ca9" d="M51.31 162.817H21.64"/><path stroke-width=".75" stroke-linecap="round" stroke-linejoin="round" fill="none" stroke="#644e9a" d="M169.53 55.047v-7.62M169.53 47.428h-7.63M161.9 47.428v7.619M161.9 55.047h7.63M169.95 55.477v-8.48M169.95 46.997h-8.47M161.26 46.997h-.49M161.479 46.997v8.48M160.77 55.477h.49M161.479 55.477h8.47M160.77 46.997v8.48M161.26 46.997v8.48M160.979 55.047h-.21M160.77 55.047v-.56M160.77 54.487h.21M160.979 54.487v.56"/><path stroke-width=".75" stroke-linecap="round" stroke-linejoin="round" fill="none" stroke="#9eb49e" d="M192.549 119.737h-2.82M189.73 119.737v-6.35M189.73 113.388h13.41M203.14 113.388v6.35M203.14 119.737h-2.82M195.759 114.407a.32.32 0 1 1 0 .64.32.32 0 0 1 0-.64zM197.1 114.407a.32.32 0 1 1-.001.64.32.32 0 0 1 0-.64zM195.94 114.727h-.36M195.759 114.547v.35M196.93 114.727h.35M197.1 114.547v.35M196.64 114.407h-.42M196.22 114.407v2.51M196.22 116.917h.42M196.64 116.917v-2.51M196.64 115.928h3.25M199.89 115.928v4.8M199.89 120.727h-6.92M192.97 120.727v-4.8M192.97 115.928h3.25M196.64 115.497h3.68M200.32 115.497v5.65M200.32 121.147h-7.772M192.549 121.147v-5.65M192.549 115.497h3.67"/><path stroke-width=".75" stroke-linecap="round" stroke-linejoin="round" fill="none" stroke="#aec2b0" d="M222.07 113.807v2.12M221.64 113.807v2.12M222.07 115.928h-.43M221.009 116.767h1.69M221.009 115.077v1.69M222.7 115.077v1.69M222.07 113.807v2.12M221.64 113.807v2.12M222.07 115.928h-.43M221.009 116.767h1.69M221.009 115.077v1.69M222.7 115.077v1.69"/><path stroke-width=".75" stroke-linecap="round" stroke-linejoin="round" fill="none" stroke="#256ca9" d="M76.729 162.817h25.42"/><path stroke-width=".75" stroke-linecap="round" stroke-linejoin="round" fill="none" stroke="#f6faf4" d="M252.23 113.807v2.4M251.799 116.207c.23 0 .42-.189.43-.42M251.799 116.207h-5.51M245.87 115.787c0 .23.19.42.42.42M245.87 116.207v-2.399M251.799 113.388h-5.51M252.23 113.807c0-.23-.19-.42-.42-.42M246.29 113.388a.423.423 0 0 0-.42.42M252.23 116.207l-1.3 6.5M250.23 123.267c.34 0 .63-.24.689-.57M250.23 123.267h-2.37M247.169 122.707c.07.33.36.57.69.57M247.169 122.707l-1.3-6.5M251.53 117.537l-1.022 5.08M250.23 122.848c.13 0 .25-.101.279-.23M250.23 122.848h-2.37M247.58 122.617c.03.13.14.23.28.23M247.58 122.617l-1.02-5.08M246.839 117.197a.28.28 0 0 0-.28.28c0 .02 0 .04.01.05M246.839 117.197h4.41M251.53 117.537a.283.283 0 0 0-.22-.33c-.02 0-.04-.01-.052-.01"/><path stroke-width=".75" stroke-linecap="round" stroke-linejoin="round" fill="none" stroke="#aec2b0" d="M231.11 134.147v-20.34M231.11 113.807h11.16M242.27 113.807v20.34M242.27 134.147h-11.16M230.68 134.567v-21.18M230.68 113.388h12.01M242.69 113.388v21.18M242.69 134.567h-12.01"/><path stroke-width=".75" stroke-linecap="round" stroke-linejoin="round" fill="none" stroke="#9eb49e" d="M266 119.737h2.82M268.82 119.737v-6.35M268.82 113.388H255.4M255.4 113.388v6.35M255.4 119.737h2.83M262.78 114.407a.32.32 0 1 1-.001.64.32.32 0 0 1 0-.64zM261.44 114.407a.32.32 0 1 1-.001.64.32.32 0 0 1 0-.64zM262.6 114.727h.359M262.78 114.547v.35M261.62 114.727h-.36M261.44 114.547v.35M261.9 114.407h.42M262.32 114.407v2.51M262.32 116.917h-.42M261.9 116.917v-2.51M261.9 115.928h-3.25M258.65 115.928v4.8M258.65 120.727h6.92M265.57 120.727v-4.8M265.57 115.928h-3.25M261.9 115.497h-3.67M258.23 115.497v5.65M258.23 121.147H266M266 121.147v-5.65M266 115.497h-3.68"/><path stroke-width=".75" stroke-linecap="round" stroke-linejoin="round" fill="none" stroke="#aec2b0" d="M236.48 113.807v2.12M236.9 113.807v2.12M236.48 115.928h.42M237.53 116.767h-1.69M237.53 115.077v1.69M235.839 115.077v1.69M236.48 113.807v2.12M236.9 113.807v2.12M236.48 115.928h.42M237.53 116.767h-1.69M237.53 115.077v1.69M235.839 115.077v1.69"/><path stroke-width=".25" stroke-linecap="round" stroke-linejoin="round" fill="none" stroke="#040000" d="M179.839 186.827h25.42M179.839 185.417h25.42"/><path stroke-width=".75" stroke-linecap="round" stroke-linejoin="round" fill="none" stroke="#184f2a" d="M185.49 150.107h2.82M185.49 135.277v.71M185.49 135.987h-.71M185.49 135.987v16.94M213.74 152.928v-16.94M213.74 135.987h-28.25M207.66 135.987v16.94M207.66 152.928h5.09M212.75 152.928v-16.94M188.31 135.987v16.94M193.959 152.928v-16.94M192.549 135.987l1.41 4.94M185.49 153.638v-.71M185.49 152.928h-.71M185.49 150.107h2.82M208.089 139.508v9.89M208.089 149.397h4.23M212.32 149.397v-9.89M212.32 139.508h-4.23M213.74 152.928h-28.25M213.74 152.227v.7M213.74 152.928h.7"/><path stroke-width=".75" stroke-linecap="round" stroke-linejoin="round" fill="none" stroke="#4b7352" d="M213.74 159.997v-7.069"/><path stroke-width=".75" stroke-linecap="round" stroke-linejoin="round" fill="none" stroke="#184f2a" d="M213.74 152.928h-7.07"/><path stroke-width=".75" stroke-linecap="round" stroke-linejoin="round" fill="none" stroke="#4b7352" d="M206.669 152.928v7.069M206.669 159.997h7.07M210.2 155.747a.71.71 0 1 1 0 1.419.71.71 0 0 1 0-1.419z"/><path stroke-width=".75" stroke-linecap="round" stroke-linejoin="round" fill="none" stroke="#4b7352" d="M210.2 155.047a1.41 1.41 0 1 1-.003 2.822 1.41 1.41 0 0 1 .002-2.822zM210.2 158.577v-4.24M208.089 156.457h4.23"/><path stroke-width=".75" stroke-linecap="round" stroke-linejoin="round" fill="none" stroke="#184f2a" d="M273.06 150.107h-2.83M273.06 135.277v.71M273.06 135.987h.699M273.06 135.987v16.94M244.81 152.928v-16.94M244.81 135.987h28.25M250.879 135.987v16.94M250.879 152.928h-5.08M245.799 152.928v-16.94M270.23 135.987v16.94M264.58 152.928v-16.94M266 135.987l-1.42 4.94M273.06 153.638v-.71M273.06 152.928h.699M273.06 150.107h-2.83M250.459 139.508v9.89M250.459 149.397h-4.239M246.22 149.397v-9.89M246.22 139.508h4.239M244.81 152.928h28.25M244.81 152.227v.7M244.81 152.928h-.71"/><path stroke-width=".75" stroke-linecap="round" stroke-linejoin="round" fill="none" stroke="#4b7352" d="M244.81 159.997v-7.069"/><path stroke-width=".75" stroke-linecap="round" stroke-linejoin="round" fill="none" stroke="#184f2a" d="M244.81 152.928h7.06"/><path stroke-width=".75" stroke-linecap="round" stroke-linejoin="round" fill="none" stroke="#4b7352" d="M251.87 152.928v7.069M251.87 159.997h-7.06M248.339 155.747a.71.71 0 1 1 0 1.419.71.71 0 0 1 0-1.419z"/><path stroke-width=".75" stroke-linecap="round" stroke-linejoin="round" fill="none" stroke="#4b7352" d="M248.339 155.047a1.41 1.41 0 1 1 0 2.82 1.41 1.41 0 0 1 0-2.82zM248.339 158.577v-4.24M250.459 156.457h-4.239"/><path stroke-width=".25" stroke-linecap="round" stroke-linejoin="round" fill="none" stroke="#040000" d="M18.82 96.437H6.72M7.52 68.187v26.83M7.52 95.017h11.3M89.44 48.407h21.19M89.44 49.827h21.19"/><path stroke-width=".75" stroke-linecap="round" stroke-linejoin="round" fill="none" stroke="#71206f" d="M179.839 164.227h25.42"/><path stroke-width=".75" stroke-linecap="round" stroke-linejoin="round" fill="none" stroke="#9eb49e" d="M145.94 38.877h-11.3M134.64 38.877v-6.36M145.51 33.787v3.96M145.51 37.747c0 .391-.32.71-.71.71M144.81 38.457h-3.39M141.42 38.457a.712.712 0 0 1-.71-.71M139.16 38.457h-3.39M135.77 38.457a.712.712 0 0 1-.71-.71M135.06 37.747v-3.96M135.06 33.787c0-.39.32-.71.71-.71M135.77 33.087h3.39M139.16 33.087c.39 0 .71.32.71.71M141.42 33.087h3.39M144.81 33.087c.39 0 .71.32.71.71M140.71 33.787v3.96M140.71 33.787c0-.39.32-.71.71-.71M139.87 33.787v3.96M139.87 37.747c0 .391-.32.71-.71.71M140.08 35.348v-2.83M140.5 35.348v-2.83M140.08 35.348h.42M140.82 32.517a.32.32 0 1 1 0 .64.32.32 0 0 1 0-.64zM139.76 32.517a.32.32 0 1 1 0 .64.32.32 0 0 1 0-.64zM140.64 32.837h.35M140.82 32.657v.36M139.93 32.837h-.35M139.76 32.657v.36M145.94 32.517v6.36M134.64 32.517h11.3M145.51 33.787v3.96"/><path stroke-width=".75" stroke-linecap="round" stroke-linejoin="round" fill="none" stroke="#9eb49e" d="M145.51 37.747c0 .391-.32.71-.71.71M144.81 38.457h-3.39M141.42 38.457a.712.712 0 0 1-.71-.71M139.16 33.087c.39 0 .71.32.71.71M141.42 33.087h3.39M144.81 33.087c.39 0 .71.32.71.71M140.71 33.787v3.96M140.71 33.787c0-.39.32-.71.71-.71M139.76 32.517a.32.32 0 1 1 0 .64.32.32 0 0 1 0-.64z"/><path stroke-width=".25" stroke-linecap="round" stroke-linejoin="round" fill="none" stroke="#040000" d="M205.259 164.227v19.78M206.669 164.227v19.78M207.93 180.477v-11.3M207.93 169.178h4.239M212.169 169.178v11.3M212.169 180.477h-4.239M207.93 180.477l1.439-3.6M207.93 169.178l1.63 4.06M210.54 173.237l1.63-4.06M210.73 176.877l1.439 3.6M110.78 184.008v-11.301M110.78 172.707h-4.24M106.54 172.707v11.301M106.54 184.008h4.24M110.78 184.008l-1.44-3.601M110.78 172.707l-1.62 4.061M108.17 176.768l-1.63-4.061M107.979 180.407l-1.44 3.601"/><path stroke-width=".75" stroke-linecap="round" stroke-linejoin="round" fill="none" stroke="#7b997f" d="M171.36 104.907h19.78M191.14 104.907v7.061M191.14 111.968h-19.78M171.36 111.968v-7.061M191.14 111.968l-19.78-7.061M191.14 104.907l-19.78 7.061"/><path stroke-width=".75" stroke-linecap="round" stroke-linejoin="round" fill="none" stroke="#ec684a" d="M236.049 76.307v-2.47M236.049 73.837h-13.56M222.49 73.837v2.47M222.49 76.307h13.56M239.86 71.367v-19.78M239.86 51.587h-21.18M218.68 51.587v19.78M218.68 71.367h21.18M239.86 71.367l-21.18-19.78M239.86 51.587l-21.18 19.78"/><path stroke-width=".75" stroke-linecap="round" stroke-linejoin="round" fill="none" stroke="#7b997f" d="M287.18 104.907h-19.771M267.41 104.907v7.061M267.41 111.968h19.77M287.18 111.968v-7.061M267.41 111.968l19.77-7.061M267.41 104.907l19.77 7.061"/><path stroke-width=".25" stroke-linecap="round" stroke-linejoin="round" fill="none" stroke="#040000" d="M172.77 79.487h39.55M212.32 79.487v-67.8M212.32 11.687h-39.55M172.77 11.687v67.8M174.89 77.367h35.31M210.2 77.367v-63.56M210.2 13.807h-35.31M174.89 13.807v63.56M285.77 79.487h-39.55M246.22 79.487v-67.8M246.22 11.687h39.55M285.77 11.687v67.8M283.65 77.367h-35.312M248.339 77.367v-63.56M248.339 13.807h35.31M283.65 13.807v63.56M264.58 82.307h-70.62M193.959 82.307v18.36M193.959 100.667h70.62M264.58 100.667v-18.36M262.459 84.428h-66.38M196.08 84.428v14.13M196.08 98.557h66.38M262.459 98.557v-14.13"/><path stroke-width=".75" stroke-linecap="round" stroke-linejoin="round" fill="none" stroke="#7b997f" d="M171.36 104.907h19.78M191.14 104.907v7.061M191.14 111.968h-19.78M171.36 111.968v-7.061M191.14 111.968l-19.78-7.061M191.14 104.907l-19.78 7.061"/><path stroke-width=".25" stroke-linecap="round" stroke-linejoin="round" fill="none" stroke="#040000" d="M267.41 104.907h19.77M287.18 104.907v-22.6M287.18 82.307h-19.771M267.41 82.307v22.6M269.53 102.787h15.53M285.06 102.787V84.428M285.06 84.428h-15.53M269.53 84.428v18.359M191.14 104.907h-19.78M171.36 104.907v-22.6M171.36 82.307h19.78M191.14 82.307v22.6M189.02 102.787h-15.541M173.479 102.787V84.428M173.479 84.428h15.541M189.02 84.428v18.359"/><path stroke-width=".75" stroke-linecap="round" stroke-linejoin="round" fill="none" stroke="#040000" d="M247.629 108.437a.709.709 0 1 1 0 1.42.71.71 0 0 1 0-1.42zM248.39 103.447l-1.5 1.5M247.64 103.138a1.06 1.06 0 1 1-.001 2.12 1.06 1.06 0 0 1 0-2.12zM248.39 105.567l-1.5 1.5"/><path stroke-width=".75" stroke-linecap="round" stroke-linejoin="round" fill="none" stroke="#040000" d="M247.64 105.258a1.06 1.06 0 1 1 0 2.12 1.06 1.06 0 0 1 0-2.12zM247.64 107.377v1.06M247.629 109.147h1.95"/><path stroke-width=".25" stroke-linecap="round" stroke-linejoin="round" fill="none" stroke="#040000" d="M208.32 10.987a.56.56 0 1 1 0 1.12.56.56 0 0 1 0-1.12zM199.61 12.817l8.02 4.77M199.61 12.817h9.89M209.5 10.277v2.54M216.56 110.557h-21.19M195.37 110.557v-5.65M195.37 104.907h21.19M216.56 104.907v5.65M196.43 105.617v1.41M196.43 107.027h1.42M197.85 107.027v-1.41M197.85 105.617h-1.42M196.43 106.607h1.42M198.47 105.207a.18.18 0 1 1 0 .36.18.18 0 0 1 0-.36zM203.49 110.557h8.48M211.97 110.557v-2.83M211.97 107.727h-8.48M203.49 107.727v2.83M215.5 109.848v-2.82M215.5 107.027h-1.41M214.089 107.027v2.82M214.089 109.848h1.41M213.03 110.557v-5.65M213.03 104.907h3.53M216.56 104.907v5.65M216.56 110.557h-3.53M198.549 108.087v1.41M198.549 109.497h2.83M201.379 109.497v-1.41M201.379 108.087h-2.83M199.959 109.497v-1.41M202.43 107.027v3.53M202.43 110.557h-7.061M195.37 110.557v-5.65M195.37 104.907h3.54M198.91 104.907v2.12M198.91 107.027h3.52M216.02 105.388v.75M216.02 105.758h.54M239.86 105.617v-.71M239.86 104.907h.71M240.57 104.907v.71M240.57 105.617h-.71M237.04 108.017h-12.71M224.33 108.017v2.54M224.33 110.557h12.71M237.04 110.557v-2.54M240.919 106.317v1.41M240.919 107.727h-1.41M239.509 107.727v-1.41M239.509 106.317h1.41M240.919 109.848h-1.41M239.509 109.848v-1.41M239.509 108.437h1.41M240.919 108.437v1.41M241.44 103.987v.75M241.44 104.367h.54M222.209 109.147v-4.24M222.209 104.907h-2.12M220.089 104.907v4.24M220.089 109.147h2.12M238.45 103.497h3.53M241.98 103.497v7.061M241.98 110.557h-3.53M238.45 110.557v-7.06M219.39 103.497h3.529M222.919 103.497v7.061M222.919 110.557h-3.529M219.39 110.557v-7.06"/><path stroke-width=".75" stroke-linecap="round" stroke-linejoin="round" fill="none" stroke="#71206f" d="M155.82 55.477h-28.24M120.52 165.647h39.54"/><path stroke-width=".75" stroke-linecap="round" stroke-linejoin="round" fill="none" stroke="#ec684a" d="M236.049 14.867v2.47M236.049 17.337h-13.56M222.49 17.337v-2.47M222.49 14.867h13.56M239.86 19.807v19.78M239.86 39.587h-21.18M218.68 39.587v-19.78M218.68 19.807h21.18M239.86 19.807l-21.18 19.78M239.86 39.587l-21.18-19.78"/><path stroke-width=".75" stroke-linecap="round" stroke-linejoin="round" fill="none" stroke="#71206f" d="M278.709 164.227h-25.43"/><path stroke-width=".25" stroke-linecap="round" stroke-linejoin="round" fill="none" stroke="#040000" d="M250.61 180.477v-11.3M250.61 169.178h-4.24M246.37 169.178v11.3M246.37 180.477h4.24M250.61 180.477l-1.44-3.6M250.61 169.178l-1.62 4.06M248 173.237l-1.63-4.06M247.82 176.877l-1.45 3.6M158.65 100.697v7.95M158.65 108.647h-18.54M140.11 108.647v-7.95M140.11 100.697h18.54M154.41 11.687v16.24"/><path stroke-width=".75" stroke-linecap="round" stroke-linejoin="round" fill="none" stroke="#f6faf4" d="M45.229 62.888h-2.4M42.83 63.307c0-.23.19-.42.42-.42M42.83 63.307v5.51M43.25 69.247a.422.422 0 0 1-.42-.42M42.83 69.247h2.4M45.66 63.307v5.51M45.229 62.888c.23 0 .42.189.42.42M45.66 68.817c0 .23-.19.42-.42.42M42.83 62.888l-6.49 1.3M35.77 64.877c0-.34.24-.63.57-.69M35.77 64.877v2.38M36.34 67.947a.714.714 0 0 1-.57-.689M36.34 67.947l6.49 1.3M41.5 63.587l-5.08 1.02M36.19 64.877c0-.13.1-.25.23-.28M36.19 64.877v2.38M36.42 67.527a.289.289 0 0 1-.23-.28M36.42 67.527l5.08 1.02M41.84 68.267c0 .16-.13.28-.28.28-.02 0-.04 0-.05-.01M41.84 68.267v-4.4M41.5 63.587c.15-.03.3.07.33.22 0 .02.01.04.01.05"/><path stroke-width=".25" stroke-linecap="round" stroke-linejoin="round" fill="none" stroke="#040000" d="M40.01 95.017h5.65M45.66 95.017v-22.6M45.66 72.417h-5.65M40.01 72.417v7.42M40.01 87.607v7.41"/><path stroke-width=".75" stroke-linecap="round" stroke-linejoin="round" fill="none" stroke="#9eb49e" d="M43.54 87.607h-5.65M43.11 87.187h-4.8M43.54 79.837h-5.65M43.11 80.258h-4.8M37.89 87.607v-7.77M38.31 87.187v-6.93M43.54 79.837v3.67M43.54 83.937v3.67M43.11 80.258v3.25M43.11 83.937v3.25M42.12 83.937h2.51M42.12 83.508h2.51M42.12 83.937v-.43M44.31 82.727a.32.32 0 1 1 0 .64.32.32 0 0 1 0-.64zM44.31 84.067a.32.32 0 1 1-.001.64.32.32 0 0 1 0-.64zM44.31 83.227v-.35M44.49 83.047h-.35M44.31 84.218v.35M44.49 84.388h-.35"/><path stroke-width=".25" stroke-linecap="round" stroke-linejoin="round" fill="none" stroke="#040000" d="M28 59.707v2.12M27.58 59.707v2.12M28 61.827h-.42M26.94 62.678h1.7M26.94 60.977v1.7M28.64 60.977v1.7M28 59.707v2.12M27.58 59.707v2.12M28 61.827h-.42M26.94 62.678h1.7M26.94 60.977v1.7M28.64 60.977v1.7M62.61 174.117v2.82M62.61 176.937h-11.3M51.31 176.937v-2.82M93.68 48.407v-1.41M93.68 46.997h-11.3M82.38 46.997v1.41M44.24 48.407v-1.41M44.24 46.997h12.72M56.96 46.997v1.41M110.63 28.638v-1.41M110.63 27.227h11.3M121.93 27.227v1.41M169.95 28.638v-1.41M169.95 27.227h-11.3M158.65 27.227v1.41M288.589 28.638v-1.41M288.589 27.227h0M103.57 179.768H7.52M7.52 179.768v-24.01M7.52 155.758h7.77M15.29 155.758v-55.091M15.29 100.667h0M41.42 54.057H6.72M41.42 54.057v-9.88M41.42 44.178h66.38M107.8 44.178v-19.78M107.8 24.397h46.61M21.64 174.117v2.82M21.64 176.937h-11.3M10.34 176.937v-2.82M158.65 27.928h-36.72M290.009 186.827h.18M290.009 185.417h.18M278.709 186.827h-25.43M278.709 185.417h-25.43M253.28 164.227v19.78M251.87 164.227v19.78M205.259 186.827v2.83M205.259 189.657h11.3M216.56 189.657v-2.83M168.54 186.827v2.83M168.54 189.657h11.3M179.839 189.657v-2.83M205.259 187.537h-25.42M161.479 187.537h-48.03M253.28 186.827v2.83M253.28 189.657h-11.3M241.98 189.657v-2.83M290.009 186.827v2.83M290.009 189.657h-11.3M278.709 189.657v-2.83M253.28 187.537h25.43M153.71 11.687v12.71M102.15 188.247v1.41M102.15 189.657h11.3M113.45 189.657v-1.41M102.86 179.768v5.649M13.17 161.407l1.46 7.95M14.63 169.357l4.19 1.94M228.57 150.107h-12.01M229.98 150.107h12M230.77 141.218l7.989 7.989M238.759 149.207l2.99-3M241.75 146.207l-7.99-7.989M233.759 138.218l-2.99 3M230.77 141.218l3.56 1.52M238.759 149.207l-1.73-4.029M237.73 144.487l4.02 1.72M235.29 141.777l-1.53-3.56M227.78 141.218l-7.99 7.989M219.79 149.207l-3-3M216.79 146.207l7.99-7.989M224.78 138.218l3 3M227.78 141.218l-3.56 1.52M219.79 149.207l1.72-4.029M220.81 144.487l-4.021 1.72M223.25 141.777l1.53-3.56M62.61 171.297h11.3M73.91 171.297v-4.24M73.91 167.058h-11.3M62.61 167.058v4.239M62.61 171.297l3.59-1.44M73.91 171.297l-4.07-1.63M69.84 168.687l4.07-1.63M66.2 168.497l-3.59-1.439"/><path stroke-width=".75" stroke-linecap="round" stroke-linejoin="round" fill="none" stroke="#641014" d="M121.93 28.638v2.819M121.93 31.457h-8.48M113.45 31.457v64.98M113.45 96.437h-2.82M110.63 96.437v-67.8M110.63 28.638h11.3M172.77 28.638v53.67M172.77 82.307h-2.82M169.95 82.307v-50.85M169.95 31.457h-8.48M161.47 31.457v-2.819M161.47 28.638h11.3M93.68 48.407v11.3M93.68 59.707h-7.07M86.61 59.707v-11.3M86.61 48.407h7.07M54.13 48.407v2.83M54.13 51.237h-7.06M47.07 51.237v8.47M47.07 59.707H18.82M18.82 59.707v-2.819M18.82 56.888h25.42M44.24 56.888v-8.48M44.24 48.407h9.89M288.589 31.457h1.6M288.589 31.457v50.851M288.589 82.307h-2.82M285.77 82.307v-53.67M285.77 28.638h0M172.78 142.337v23.31M172.78 165.647l-.01 2.82M172.77 168.468h-5.65M167.12 168.468v-5.65M167.12 162.817h2.83M169.95 162.817v-20.48M169.95 142.337h2.83M216.56 158.577h2.819M219.379 158.577v5.65M219.379 164.227h-5.65M213.73 164.227v-29.66M213.73 134.567h2.83M216.56 134.567v24.01M244.81 134.567v29.66M244.81 164.227h-5.65M239.16 164.227v-5.65M239.16 158.577h2.82M241.98 158.577v-24.01M241.98 134.567h2.83M113.45 162.817v8.48M113.45 171.297h-11.3M102.15 171.297v-8.48M102.15 162.817h11.3M288.589 162.817h0M285.77 168.468h4.42M285.77 168.468v-26.131M285.77 142.337h2.819M288.589 142.337v20.48M30.12 93.607v2.83M30.12 96.437h-8.48M21.64 96.437v69.21M21.64 165.647h-7.06M14.58 165.647v-7.07M14.58 158.577h3.53M18.11 158.577v-64.97M18.11 93.607h12.01M246.22 20.157v-11.3M246.22 8.857h-33.9M212.32 8.857v11.3M212.32 20.157h2.82M215.14 20.157v-8.47M215.14 11.687h28.26M243.4 11.687v8.47M243.4 20.157h2.82M243.4 71.008h2.82M246.22 71.008v11.3M246.22 82.307h-33.9M212.32 82.307v-11.3M212.32 71.008h2.82M215.14 71.008v8.479M215.14 79.487h28.26M243.4 79.487v-8.479M244.81 110.557v2.83M244.81 113.388h-14.13M230.68 113.388v7.06M230.68 120.447h-2.82M227.86 120.447v-7.06M227.86 113.388h-14.13M213.73 113.388v-2.83M213.73 110.557h31.08M289.299 11.687h.89M169.24 3.218v8.47M169.24 11.687h-5.65M163.59 11.687v-8.47M163.59 3.218h5.65M171.36 82.307v7.06M171.36 89.367h-1.41M169.95 89.367v-8.47M268.82 111.968h18.36M270.23 113.388h16.95M217.97 113.388h9.89M219.39 110.557h9.88M110.63 55.477v-26.84M113.45 55.477v-24.02M88.03 59.707h9.18"/><path stroke-width=".75" stroke-linecap="round" stroke-linejoin="round" fill="none" stroke="#448bbb" d="M97.21 59.707v-2.819"/><path stroke-width=".75" stroke-linecap="round" stroke-linejoin="round" fill="none" stroke="#641014" d="M97.21 56.888h-7.77M110.63 56.888h-3.53"/><path stroke-width=".75" stroke-linecap="round" stroke-linejoin="round" fill="none" stroke="#448bbb" d="M107.1 56.888v2.819"/><path stroke-width=".75" stroke-linecap="round" stroke-linejoin="round" fill="none" stroke="#641014" d="M107.1 59.707h4.94"/><path stroke-width=".75" stroke-linecap="round" stroke-linejoin="round" fill="none" stroke="#448bbb" d="M107.1 56.888v2.819M107.1 59.707h-9.89M97.21 59.707v-2.819M97.21 56.888h9.89M97.21 58.767h9.89M97.21 57.827h9.89"/><path stroke-width=".75" stroke-linecap="round" stroke-linejoin="round" fill="none" stroke="#641014" d="M86.61 95.017v-36.72M88.03 95.017v-35.31M44.24 48.407h12.71M56.95 48.407v2.83M56.95 51.237h-9.88M89.44 48.407h-7.06"/><path stroke-width=".75" stroke-linecap="round" stroke-linejoin="round" fill="none" stroke="#448bbb" d="M82.38 48.407v2.83"/><path stroke-width=".75" stroke-linecap="round" stroke-linejoin="round" fill="none" stroke="#641014" d="M82.38 51.237h4.23"/><path stroke-width=".75" stroke-linecap="round" stroke-linejoin="round" fill="none" stroke="#448bbb" d="M82.38 48.407v2.83M82.38 51.237H56.95M56.95 51.237v-2.83M56.95 48.407h25.43M56.95 50.297h25.43M56.95 49.357h25.43"/><path stroke-width=".75" stroke-linecap="round" stroke-linejoin="round" fill="none" stroke="#641014" d="M102.15 188.247h11.3M104.979 186.827h7.06M112.04 186.827v-1.41M112.04 185.417h1.41M113.45 185.417v2.83M113.45 165.647v5.65M113.45 171.297h-1.41M112.04 171.297v-5.65"/><path stroke-width=".75" stroke-linecap="round" stroke-linejoin="round" fill="none" stroke="#a20d75" d="m112.75 185.417 4.99-4.99M112.75 171.297l4.99 4.99M112.75 178.357c1.87 0 3.67-.74 5-2.07M117.74 180.428a7.077 7.077 0 0 0-5-2.07"/><path stroke-width=".75" stroke-linecap="round" stroke-linejoin="round" fill="none" stroke="#641014" d="M102.15 171.297v-8.48M104.979 172.707v-7.06M215.15 134.567h2.82M217.97 134.567v2.83M217.97 137.397h-1.41"/><path stroke-width=".75" stroke-linecap="round" stroke-linejoin="round" fill="none" stroke="#448bbb" d="M227.86 134.567v2.83"/><path stroke-width=".75" stroke-linecap="round" stroke-linejoin="round" fill="none" stroke="#641014" d="M227.86 137.397h.71"/><path stroke-width=".75" stroke-linecap="round" stroke-linejoin="round" fill="none" stroke="#448bbb" d="M227.86 134.567v2.83M227.86 137.397h-9.89M217.97 137.397v-2.83M217.97 134.567h9.89M217.97 136.457h9.89M217.97 135.508h9.89"/><path stroke-width=".75" stroke-linecap="round" stroke-linejoin="round" fill="none" stroke="#641014" d="M110.63 56.888v-1.41M113.45 58.297v-1.41M88.03 96.437h9.89M97.92 96.437v-1.42M97.92 95.017h-9.89M112.04 95.017h-2.83M109.21 95.017v1.42M109.21 96.437h4.24"/><path stroke-width=".75" stroke-linecap="round" stroke-linejoin="round" fill="none" stroke="#cc368d" d="M109.21 95.727v-11.02M109.21 84.707h-.56M108.65 84.707v11.021M108.65 95.727h.56M108.65 84.718c-5.97.149-10.73 5.04-10.73 11.01"/><path stroke-width=".75" stroke-linecap="round" stroke-linejoin="round" fill="none" stroke="#641014" d="M86.61 58.297v-7.06M89.44 56.888v-8.48M69.67 95.017h2.82M72.49 95.017v1.42M72.49 96.437h-1.41M86.61 95.017H85.2M85.2 95.017v1.42M85.2 96.437h2.83"/><path stroke-width=".75" stroke-linecap="round" stroke-linejoin="round" fill="none" stroke="#cc368d" d="M85.2 95.727v-12.4M85.2 83.327h-.63M84.57 83.327v12.4M84.57 95.727h.63M84.57 83.337c-6.72.17-12.08 5.67-12.08 12.39"/><path stroke-width=".75" stroke-linecap="round" stroke-linejoin="round" fill="none" stroke="#641014" d="M45.66 96.437h24.01M47.07 95.017h22.6M69.67 162.817v-50.85M71.08 162.817v-49.43M69.67 111.968v-1.41M69.67 110.557h1.41M71.08 110.557v1.41M71.08 96.437v1.41M71.08 97.848h-1.41M69.67 97.848v-1.41"/><path stroke-width=".75" stroke-linecap="round" stroke-linejoin="round" fill="none" stroke="#cc368d" d="M70.37 97.848v.63M70.37 98.477H57.98M57.979 98.477v-.63M57.979 97.848h12.39M57.979 98.477c.17 6.72 5.67 12.08 12.39 12.08"/><path stroke-width=".75" stroke-linecap="round" stroke-linejoin="round" fill="none" stroke="#641014" d="M71.08 113.388h1.41M72.49 113.388v-1.42M72.49 111.968h-1.41M113.45 111.968H85.2M85.2 111.968v1.42M85.2 113.388h26.84"/><path stroke-width=".75" stroke-linecap="round" stroke-linejoin="round" fill="none" stroke="#cc368d" d="M73.13 125.067v-12.39M73.13 112.678h-.64M72.49 112.678v12.39M72.49 125.067h.64M73.13 125.067c6.72-.17 12.08-5.67 12.08-12.39"/><path stroke-width=".75" stroke-linecap="round" stroke-linejoin="round" fill="none" stroke="#641014" d="M113.45 165.647h7.07M120.52 165.647v-2.83M120.52 162.817h-7.07M169.95 162.817h-9.89M160.06 162.817v2.83M160.06 165.647h12.71"/><path stroke-width=".75" stroke-linecap="round" stroke-linejoin="round" fill="none" stroke="#71206f" d="M120.52 164.227h11.12M131.64 164.227v-.39M131.64 163.837h-11.12M120.52 163.837v.39M120.52 164.227v-.55M151.66 164.227v.44M151.66 164.667h-22.74M128.92 164.667v-.44M128.92 164.227h22.74M132.95 163.707h5.87M138.82 163.707l-2.56-.21M136.26 163.497v.21M140.29 164.667v-.44M144.32 163.707v-.21M144.32 163.497l-2.56.21M141.76 163.707h5.87M160.06 163.837v.39M160.06 164.227h-11.12M148.94 164.227v-.39M148.94 163.837h11.12"/><path stroke-width=".75" stroke-linecap="round" stroke-linejoin="round" fill="none" stroke="#641014" d="M112.04 162.817v-49.43M113.45 162.817v-50.85"/><path stroke-width=".75" stroke-linecap="round" stroke-linejoin="round" fill="none" stroke="#cc368d" d="M183.049 114.797v.63M183.049 115.428h-12.4M170.65 115.428v-.631M170.65 114.797h12.398M170.66 127.508c6.72 0 12.22-5.36 12.39-12.08"/><path stroke-width=".75" stroke-linecap="round" stroke-linejoin="round" fill="none" stroke="#641014" d="M188.31 135.977v-2.82M188.31 133.157h1.41M189.72 133.157v1.41M189.72 113.388v8.47M189.72 121.857h-1.41M188.31 121.857v-8.47"/><path stroke-width=".75" stroke-linecap="round" stroke-linejoin="round" fill="none" stroke="#cc368d" d="M200.04 132.598v.56M200.04 133.157h-11.02M189.02 133.157v-.56M189.02 132.598h11.02M200.03 132.598c-.15-5.971-5.04-10.74-11.022-10.73"/><path stroke-width=".75" stroke-linecap="round" stroke-linejoin="round" fill="none" stroke="#641014" d="M188.31 135.977h25.43M189.72 134.567h25.43M51.31 171.297v-8.48M54.13 172.707v-7.06M52.72 174.117h9.88"/><path stroke-width=".75" stroke-linecap="round" stroke-linejoin="round" fill="none" stroke="#0d4e93" d="M62.6 174.117v-1.41"/><path stroke-width=".75" stroke-linecap="round" stroke-linejoin="round" fill="none" stroke="#641014" d="M62.6 172.707h-8.47M75.32 174.117v-1.41"/><path stroke-width=".75" stroke-linecap="round" stroke-linejoin="round" fill="none" stroke="#0d4e93" d="M75.32 172.707v1.41M75.32 174.117H62.6M62.6 174.117v-1.41M62.6 172.707h12.72M62.6 173.647h12.72M62.6 173.527l.62-.35M62.6 173.178h12.72M75.32 173.178l-.82.47M63.26 173.647l.82-.47M64.13 173.647l.82-.47M64.99 173.647l.82-.47M65.86 173.647l.81-.47M66.72 173.647l.82-.47M67.59 173.647l.81-.47M68.45 173.647l.82-.47M69.32 173.647l.81-.47M70.18 173.647l.81-.47M71.04 173.647l.82-.47M71.91 173.647l.81-.47M72.77 173.647l.82-.47M73.64 173.647l.81-.47"/><path stroke-width=".75" stroke-linecap="round" stroke-linejoin="round" fill="none" stroke="#641014" d="M172.77 165.647v-1.42M75.32 172.707v-7.06M76.729 171.297v-8.48M102.15 162.817h9.89M104.979 165.647h7.06M51.31 162.817h18.36M54.13 165.647h15.54M69.67 165.647h5.65M71.08 162.817h5.65M75.32 174.117h1.41"/><path stroke-width=".75" stroke-linecap="round" stroke-linejoin="round" fill="none" stroke="#256ca9" d="M76.729 174.117v-2.82"/><path stroke-width=".75" stroke-linecap="round" stroke-linejoin="round" fill="none" stroke="#641014" d="M102.15 174.117v-2.82"/><path stroke-width=".75" stroke-linecap="round" stroke-linejoin="round" fill="none" stroke="#256ca9" d="M102.15 171.297v2.82M102.15 174.117H76.73M76.729 174.117v-2.82M76.729 171.297h25.42M76.729 173.178h25.42M76.729 172.237h25.42"/><path stroke-width=".75" stroke-linecap="round" stroke-linejoin="round" fill="none" stroke="#641014" d="M10.34 174.117h9.89M13.17 171.297h5.65"/><path stroke-width=".75" stroke-linecap="round" stroke-linejoin="round" fill="none" stroke="#256ca9" d="M51.31 171.297v2.82M51.31 174.117H21.64M21.64 174.117v-2.82M21.64 171.297h29.67M21.64 173.178h29.67M21.64 172.237h29.67"/><path stroke-width=".75" stroke-linecap="round" stroke-linejoin="round" fill="none" stroke="#641014" d="M213.74 184.008h-8.48M205.259 184.008v2.819M205.259 186.827h11.3M179.839 186.827v-2.819M179.839 184.008h-11.3M168.54 184.008v2.819M168.54 186.827h11.3M113.45 56.888h14.13M127.58 56.888v-1.41M127.58 55.477h-14.13M169.95 55.477h-14.13M155.82 55.477v1.41M155.82 56.888h14.13"/><path stroke-width=".75" stroke-linecap="round" stroke-linejoin="round" fill="none" stroke="#71206f" d="M135.52 56.178v.199M135.52 56.377h-7.94M127.58 56.377v-.2M127.58 56.178h7.94M149.82 55.957v.221M149.82 56.178h-16.24M133.58 56.178v-.221M133.58 55.957h16.24M136.46 56.437h4.19M140.65 56.437l-1.83.11M138.82 56.547v-.11M141.7 56.178v-.221M144.58 56.437v.11M144.58 56.547l-1.83-.11M142.75 56.437h4.2M155.82 56.457v-.279M155.82 56.178h-7.94M147.88 56.178v.199M147.88 56.377h7.94M155.82 56.377v-.2"/><path stroke-width=".75" stroke-linecap="round" stroke-linejoin="round" fill="none" stroke="#641014" d="M169.95 79.487v-22.6M171.36 79.487h1.41M172.77 79.487v-24.01M112.04 95.017v-35.31M113.45 96.437v-38.14M45.66 95.017v-35.31M47.07 95.017v-36.72M227.86 134.567v-21.18M230.68 134.567v-21.18M229.98 137.397h.7"/><path stroke-width=".75" stroke-linecap="round" stroke-linejoin="round" fill="none" stroke="#448bbb" d="M230.68 137.397v-2.83"/><path stroke-width=".75" stroke-linecap="round" stroke-linejoin="round" fill="none" stroke="#641014" d="M243.4 134.567h-2.83"/><path stroke-width=".75" stroke-linecap="round" stroke-linejoin="round" fill="none" stroke="#448bbb" d="M240.57 134.567v2.83"/><path stroke-width=".75" stroke-linecap="round" stroke-linejoin="round" fill="none" stroke="#641014" d="M240.57 137.397h1.41"/><path stroke-width=".75" stroke-linecap="round" stroke-linejoin="round" fill="none" stroke="#448bbb" d="M240.57 134.567v2.83M240.57 137.397h-9.89M230.68 137.397v-2.83M230.68 134.567h9.89M230.68 136.457h9.89M230.68 135.508h9.89"/><path stroke-width=".75" stroke-linecap="round" stroke-linejoin="round" fill="none" stroke="#cc368d" d="M287.89 114.797v.63M287.89 115.428h-12.4M275.49 115.428v-.631M275.49 114.797h12.4M275.5 115.428c.17 6.72 5.67 12.08 12.39 12.08"/><path stroke-width=".75" stroke-linecap="round" stroke-linejoin="round" fill="none" stroke="#641014" d="M268.82 134.567v-1.41M268.82 133.157h1.41M270.23 133.157v2.82M270.23 113.388v8.47M270.23 121.857h-1.41M268.82 121.857v-8.47"/><path stroke-width=".75" stroke-linecap="round" stroke-linejoin="round" fill="none" stroke="#cc368d" d="M269.53 132.598v.56M269.53 133.157h-11.022M258.509 133.157v-.56M258.509 132.598h11.02M269.53 121.857c-5.97 0-10.86 4.76-11.01 10.73"/><path stroke-width=".75" stroke-linecap="round" stroke-linejoin="round" fill="none" stroke="#641014" d="M243.4 134.567h25.42M244.81 135.977h25.42M288.589 56.888h0M288.589 55.477h1.6M266 113.388h2.82M267.41 111.968h1.41M285.77 55.477v24.01M285.77 79.487h1.41M288.589 79.487v-22.6M20.229 56.888h24.01M21.64 59.707h24.02M8.93 59.707v8.48M8.93 68.187h0M44.24 56.888v-8.48M47.07 58.297v-7.06M171.36 161.407h8.478M179.839 161.407v2.82M179.839 164.227h-7.07M213.74 161.407h-8.48M205.259 161.407v2.82M205.259 164.227h8.48"/><path stroke-width=".75" stroke-linecap="round" stroke-linejoin="round" fill="none" stroke="#71206f" d="M193.04 162.817v.35M193.04 163.167h-13.2M179.839 163.167v-.35M179.839 162.817h13.2M183.65 162.468h5.08M188.73 162.468l-2.08-.21M186.65 162.258v.21M205.259 162.817v-.35M205.259 162.468h-13.32M191.94 162.468v.35M191.94 162.817h13.319M201.45 163.167h-5.09M196.36 163.167l2.09.21M198.45 163.377v-.21"/><path stroke-width=".75" stroke-linecap="round" stroke-linejoin="round" fill="none" stroke="#641014" d="M213.74 161.407v-25.43M216.56 162.817v-25.42M169.95 162.817v-35.31M169.95 127.508h1.41M171.36 127.508v33.899M171.36 113.388v1.409M171.36 114.797h-1.41M169.95 114.797v-2.83M241.98 162.817v-25.42M244.81 161.407v-25.43M287.18 161.407v-33.899M287.18 127.508h1.409M288.589 127.508v35.31M288.589 111.968v2.829M288.589 114.797h-1.41M287.18 114.797v-1.41M18.82 95.017v-7.06"/><path stroke-width=".75" stroke-linecap="round" stroke-linejoin="round" fill="none" stroke="#448bbb" d="M18.82 87.957h2.82"/><path stroke-width=".75" stroke-linecap="round" stroke-linejoin="round" fill="none" stroke="#641014" d="M21.64 87.957v7.061M21.64 59.707v8.48M21.64 68.187h-2.82M18.82 68.187v-8.48"/><path stroke-width=".75" stroke-linecap="round" stroke-linejoin="round" fill="none" stroke="#cc368d" d="M20.229 68.187v.49M20.229 68.678h-9.64M10.59 68.678v-.49M10.59 68.187h9.64M10.6 68.678c.13 5.229 4.41 9.39 9.64 9.39"/><path stroke-width=".75" stroke-linecap="round" stroke-linejoin="round" fill="none" stroke="#448bbb" d="M21.64 87.957v-9.89M21.64 78.067h-2.82M18.82 78.067v9.89M18.82 87.957h2.82M19.76 87.957v-9.89M20.7 87.957v-9.89"/><path stroke-width=".75" stroke-linecap="round" stroke-linejoin="round" fill="none" stroke="#641014" d="M229.27 110.557h11.3M230.68 113.388h11.3M171.36 113.388h16.95M171.36 111.968h18.36M169.95 28.638v-2.83"/><path stroke-width=".75" stroke-linecap="round" stroke-linejoin="round" fill="none" stroke="#448bbb" d="M169.95 25.807h2.82"/><path stroke-width=".75" stroke-linecap="round" stroke-linejoin="round" fill="none" stroke="#641014" d="M172.77 25.807v4.24M169.95 11.687h2.82"/><path stroke-width=".75" stroke-linecap="round" stroke-linejoin="round" fill="none" stroke="#448bbb" d="M172.77 25.807v-14.12M172.77 11.687h-2.82M169.95 11.687v14.12M169.95 25.807h2.82M170.89 25.807v-14.12M171.84 25.807v-14.12"/><path stroke-width=".75" stroke-linecap="round" stroke-linejoin="round" fill="none" stroke="#641014" d="M285.77 30.047v-4.24"/><path stroke-width=".75" stroke-linecap="round" stroke-linejoin="round" fill="none" stroke="#448bbb" d="M285.77 25.807h2.819"/><path stroke-width=".75" stroke-linecap="round" stroke-linejoin="round" fill="none" stroke="#641014" d="M288.589 25.807v2.83M285.77 11.687h2.819"/><path stroke-width=".75" stroke-linecap="round" stroke-linejoin="round" fill="none" stroke="#448bbb" d="M288.589 25.807v-14.12M288.589 11.687h-2.82M285.77 11.687v14.12M285.77 25.807h2.819M286.709 25.807v-14.12M287.66 25.807v-14.12"/><path stroke-width=".75" stroke-linecap="round" stroke-linejoin="round" fill="none" stroke="#641014" d="M288.589 31.457h0M288.589 28.638h1.6M110.63 28.638h16.95M127.58 28.638v2.819M127.58 31.457h-14.13M169.95 28.638H153"/><path stroke-width=".75" stroke-linecap="round" stroke-linejoin="round" fill="none" stroke="#448bbb" d="M153 28.638v2.819"/><path stroke-width=".75" stroke-linecap="round" stroke-linejoin="round" fill="none" stroke="#641014" d="M153 31.457h16.95"/><path stroke-width=".75" stroke-linecap="round" stroke-linejoin="round" fill="none" stroke="#448bbb" d="M153 28.638v2.819M153 31.457h-25.42M127.58 31.457v-2.819M127.58 28.638H153M127.58 30.518H153M127.58 29.577H153"/><path stroke-width=".75" stroke-linecap="round" stroke-linejoin="round" fill="none" stroke="#641014" d="M169.95 111.968v-7.061M169.95 104.907h1.41M171.36 104.907v7.061M288.589 80.897v8.47M288.589 89.367h-1.41M287.18 89.367v-7.06M287.18 111.968v-7.061M287.18 104.907h1.409M288.589 104.907v7.061M20.229 56.888H6.719M8.93 59.707h9.89"/><path stroke-width=".75" stroke-linecap="round" stroke-linejoin="round" fill="none" stroke="#cc368d" d="M189.72 96.047v-15.15M189.72 80.897h-.771M188.95 80.897v15.15M188.95 96.047h.77M174.19 80.897c0 8.22 6.55 14.93 14.76 15.14"/><path stroke-width=".75" stroke-linecap="round" stroke-linejoin="round" fill="none" stroke="#641014" d="M171.36 82.307h2.83M174.19 82.307v-2.82M174.19 79.487h-2.83M193.959 79.487h-4.239M189.72 79.487v2.82M189.72 82.307h1.42M191.14 111.968v-9.881M193.959 110.557v-8.47M212.32 82.307h33.9M215.15 79.487h28.25M215.15 46.997h28.25M215.15 44.178h28.25M243.4 44.178v-7.07M243.4 37.107h2.82M246.22 37.107v8.48M246.22 11.687v8.47M246.22 20.157h-2.82M243.4 20.157v-8.47"/><path stroke-width=".75" stroke-linecap="round" stroke-linejoin="round" fill="none" stroke="#71206f" d="M242.86 29.197v8.48M242.86 37.678h-.3M242.56 37.678v-8.48M242.56 29.197h.3M242.86 28.067v-8.47M242.86 19.598h-.3M242.56 19.598v8.47M242.56 28.067h.3M243.4 37.107v-16.95"/><path stroke-width=".75" stroke-linecap="round" stroke-linejoin="round" fill="none" stroke="#641014" d="M212.32 45.587v-8.48M212.32 37.107h2.83M215.15 37.107v7.07M215.15 11.687v8.47M215.15 20.157h-2.83M212.32 20.157v-8.47"/><path stroke-width=".75" stroke-linecap="round" stroke-linejoin="round" fill="none" stroke="#71206f" d="M215.15 37.107v-16.95M215.98 29.197v8.48M215.98 37.678h-.3M215.68 37.678v-8.48M215.68 29.197h.3M215.98 28.067v-8.47M215.98 19.598h-.3M215.68 19.598v8.47M215.68 28.067h.3"/><path stroke-width=".75" stroke-linecap="round" stroke-linejoin="round" fill="none" stroke="#641014" d="M243.4 79.487v-8.479M243.4 71.008h2.82M246.22 71.008v11.3M246.22 45.587v8.47M246.22 54.057h-2.82M243.4 54.057v-7.06"/><path stroke-width=".75" stroke-linecap="round" stroke-linejoin="round" fill="none" stroke="#71206f" d="M242.86 71.577v-8.479M242.86 63.098h-.3M242.56 63.098v8.479M242.56 71.577h.3M242.86 53.497v8.471M242.86 61.968h-.3M242.56 61.968v-8.471M242.56 53.497h.3M243.4 71.008v-16.95"/><path stroke-width=".75" stroke-linecap="round" stroke-linejoin="round" fill="none" stroke="#641014" d="M212.32 82.307v-11.3M212.32 71.008h2.83M215.15 71.008v8.479M215.15 46.997v7.061M215.15 54.057h-2.83M212.32 54.057v-8.47"/><path stroke-width=".75" stroke-linecap="round" stroke-linejoin="round" fill="none" stroke="#71206f" d="M215.15 71.008v-16.95M215.98 71.577v-8.479M215.98 63.098h-.3M215.68 63.098v8.479M215.68 71.577h.3M215.98 53.497v8.471M215.98 61.968h-.3M215.68 61.968v-8.471M215.68 53.497h.3"/><path stroke-width=".75" stroke-linecap="round" stroke-linejoin="round" fill="none" stroke="#641014" d="M166.42 11.687v-5.65M169.24 8.867v-4.24"/><path stroke-width=".75" stroke-linecap="round" stroke-linejoin="round" fill="none" stroke="#a20d75" d="m247.629 101.377 6-5.99M258.589 95.388l5.99 5.989M256.11 101.377c0-2.25-.89-4.4-2.48-5.99"/><path stroke-width=".75" stroke-linecap="round" stroke-linejoin="round" fill="none" stroke="#a20d75" d="M258.589 95.388a8.458 8.458 0 0 0-2.48 5.989"/><path stroke-width=".75" stroke-linecap="round" stroke-linejoin="round" fill="none" stroke="#641014" d="M217.97 100.667h3.529M221.5 100.667v1.42M221.5 102.087h-2.11M241.98 100.667h-3.53M238.45 100.667v1.42M238.45 102.087h2.12"/><path stroke-width=".75" stroke-linecap="round" stroke-linejoin="round" fill="none" stroke="#a20d75" d="m221.5 101.377 5.99-5.99M232.459 95.388l5.99 5.989M232.459 95.388a8.458 8.458 0 0 0-2.479 5.989"/><path stroke-width=".75" stroke-linecap="round" stroke-linejoin="round" fill="none" stroke="#a20d75" d="M229.98 101.377c0-2.25-.891-4.4-2.48-5.99"/><path stroke-width=".75" stroke-linecap="round" stroke-linejoin="round" fill="none" stroke="#641014" d="M216.56 110.557v-8.47M219.39 110.557v-8.47M264.58 110.557v-8.47M267.41 111.968v-9.881"/><path stroke-width=".75" stroke-linecap="round" stroke-linejoin="round" fill="none" stroke="#cc368d" d="M269.6 96.047v-15.15M269.6 80.897h-.78M268.82 80.897v15.15M268.82 96.047h.78M269.6 96.037c8.21-.21 14.76-6.93 14.76-15.14"/><path stroke-width=".75" stroke-linecap="round" stroke-linejoin="round" fill="none" stroke="#641014" d="M264.58 79.487h4.24M268.82 79.487v2.82M268.82 82.307h-1.41M287.18 79.487h-2.82M284.36 79.487v2.82M284.36 82.307h2.82M264.58 100.667v-21.18M267.41 102.087v-19.78M191.14 102.087v-19.78M193.959 100.667v-21.18"/><path stroke-width=".75" stroke-linecap="round" stroke-linejoin="round" fill="none" stroke="#0d4e93" d="M285.06 8.867v2.82M285.06 11.687h-7.061M278 11.687v-2.82M278 8.867h7.06M278 10.747h7.06M285.06 10.747l-.45-.939M278 10.037l.34.71M278 9.807h7.06M278.37 9.807l.45.94M278.85 9.807l.449.94M279.33 9.807l.45.94M279.81 9.807l.449.94M280.29 9.807l.45.94M280.77 9.807l.45.94M281.25 9.807l.45.94M281.73 9.807l.45.94M282.209 9.807l.45.94M282.69 9.807l.45.94M283.169 9.807l.45.94M283.65 9.807l.45.94M284.129 9.807l.45.94"/><path stroke-width=".75" stroke-linecap="round" stroke-linejoin="round" fill="none" stroke="#641014" d="M193.959 102.087h2.83M196.79 102.087v-1.42M196.79 100.667h-2.83M217.97 100.667h-4.23M213.74 100.667v1.42M213.74 102.087h2.82"/><path stroke-width=".75" stroke-linecap="round" stroke-linejoin="round" fill="none" stroke="#a20d75" d="m196.79 101.377 5.99-5.99M207.74 95.388l6 5.989M207.74 95.388a8.459 8.459 0 0 0-2.48 5.989M205.259 101.377c0-2.25-.89-4.4-2.48-5.99"/><path stroke-width=".75" stroke-linecap="round" stroke-linejoin="round" fill="none" stroke="#641014" d="M240.57 110.557v-8.47M243.4 110.557v-8.47M241.98 100.667h5.649M247.629 100.667v1.42M247.629 102.087h-4.23M264.58 102.087v-1.42M169.95 80.897v-1.41M288.589 80.897v-1.41M189.72 113.388h2.829M189.72 111.968h1.42M192.549 113.388h25.42M193.959 110.557h22.601M241.98 113.388H266M243.4 110.557h21.18M169.95 55.477v-24.02M172.77 55.477v-25.43M285.77 55.477v-25.43M288.589 55.477v-24.02M287.18 8.867h2.119M288.589 11.687h0M244.81 8.867h14.83M259.64 8.867v2.82M259.64 11.687h-13.42M276.589 8.867h-1.41M275.18 8.867v2.82M275.18 11.687h2.819M213.74 8.867h31.07M215.15 11.687h28.25M166.42 11.687h3.53M169.24 8.867h2.12M285.77 165.647h0M288.589 162.817h1.6M285.77 165.647v-1.42M241.98 186.827h11.3M253.28 186.827v-2.819M253.28 184.008h-8.47M290.009 186.827v-2.819M290.009 184.008h-11.3M278.709 184.008v2.819M278.709 186.827h11.3M244.81 164.227h8.47M253.28 164.227v-2.82M253.28 161.407h-8.47M287.18 161.407h-8.471M278.709 161.407v2.82M278.709 164.227h7.061"/><path stroke-width=".75" stroke-linecap="round" stroke-linejoin="round" fill="none" stroke="#71206f" d="M266.61 162.468v.35M266.61 162.817h-13.33M253.28 162.817v-.35M253.28 162.468h13.33M257.1 163.167h5.08M262.18 163.167l-2.08.21M260.1 163.377v-.21M278.709 163.167v-.35M278.709 162.817h-13.2M265.509 162.817v.35M265.509 163.167h13.2M274.89 162.468h-5.08M269.81 162.468l2.08-.21M271.89 162.258v.21"/><path stroke-width=".25" stroke-linecap="round" stroke-linejoin="round" fill="none" stroke="#040000" d="M102.43 106.157H77.45M77.45 106.157l4.24 4.23M81.69 110.388l4.23-4.23"/><path stroke-width=".75" stroke-linecap="round" stroke-linejoin="round" fill="none" stroke="#641014" d="M153 3.218h13.42M155.82 6.037h10.6M155.82 6.037v5.65M155.82 11.687H153M153 11.687v-8.47M166.42 3.218h0M169.24 4.627h0"/><path stroke-width=".25" stroke-linecap="round" stroke-linejoin="round" fill="none" stroke="#040000" d="M204.45 63.277h-24.98M179.47 63.277l4.239 4.24M183.709 67.517l4.23-4.24"/><path stroke-width=".75" stroke-linecap="round" stroke-linejoin="round" fill="none" stroke="#641014" d="M21.64 96.437h8.48M30.12 96.437v-1.42M30.12 95.017h-8.48M45.66 95.017h-5.65M40.01 95.017v1.42M40.01 96.437h5.65"/><path stroke-width=".75" stroke-linecap="round" stroke-linejoin="round" fill="none" stroke="#71206f" d="M30.12 95.017v-.26M30.12 94.758h9.89M40.01 94.758v.26M30.12 94.957h9.89M34.27 95.107v.14M34.27 95.247l-.77-.14M33.5 95.107h3.54"/><path stroke-width=".75" stroke-linecap="round" stroke-linejoin="round" fill="none" stroke="#641014" d="M18.82 158.577v-63.56M21.64 159.997v-63.56M20.229 174.117h1.41"/><path stroke-width=".75" stroke-linecap="round" stroke-linejoin="round" fill="none" stroke="#256ca9" d="M21.64 174.117v-2.82M51.31 171.297v2.82"/><path stroke-width=".75" stroke-linecap="round" stroke-linejoin="round" fill="none" stroke="#641014" d="M51.31 174.117h1.41M10.34 158.577h8.48M13.17 161.407h5.65M18.82 171.297v-9.89M21.64 171.297v-11.3M10.34 174.117v-15.54M13.17 171.297v-9.89M171.36 8.867h2.83M174.19 8.867v2.82M174.19 11.687h-1.42M213.74 8.867h-24.02M189.72 8.867v2.82M189.72 11.687h22.6M278 11.687v-2.82M287.18 8.867h-2.12"/><path stroke-width=".75" stroke-linecap="round" stroke-linejoin="round" fill="none" stroke="#0d4e93" d="M285.06 8.867v2.82"/><path stroke-width=".75" stroke-linecap="round" stroke-linejoin="round" fill="none" stroke="#641014" d="M285.06 11.687h.71M213.74 184.008v-3.53"/><path stroke-width=".75" stroke-linecap="round" stroke-linejoin="round" fill="none" stroke="#0d4e93" d="M213.74 180.477h2.82"/><path stroke-width=".75" stroke-linecap="round" stroke-linejoin="round" fill="none" stroke="#641014" d="M216.56 180.477v6.35M216.56 162.817v6.36"/><path stroke-width=".75" stroke-linecap="round" stroke-linejoin="round" fill="none" stroke="#0d4e93" d="M216.56 169.178h-2.82"/><path stroke-width=".75" stroke-linecap="round" stroke-linejoin="round" fill="none" stroke="#641014" d="M213.74 169.178v-4.95"/><path stroke-width=".75" stroke-linecap="round" stroke-linejoin="round" fill="none" stroke="#0d4e93" d="M216.56 180.477v-11.3M216.56 169.178h-2.82M213.74 169.178v11.3M213.74 180.477h2.82M214.68 180.477v-11.3M214.68 179.888l.939-.721M214.68 179.117l.939-.72M214.68 178.348l.939-.721M214.68 177.577l.939-.72M214.68 176.808l.939-.721M214.68 176.047l.939-.73M214.68 175.277l.939-.73M214.68 174.508l.939-.721M214.68 173.737l.939-.72M214.68 172.968l.939-.721M214.68 172.207l.939-.729M214.68 171.437l.939-.73M214.68 170.667l.939-.73M214.68 169.897l.939-.72M215.62 169.178v11.3M214.91 180.477l.71-.55"/><path stroke-width=".75" stroke-linecap="round" stroke-linejoin="round" fill="none" stroke="#641014" d="M102.15 174.117v1.41M102.15 175.527h1.42M104.979 175.527v-2.82M103.57 185.417h1.41M103.57 175.527h1.41"/><path stroke-width=".75" stroke-linecap="round" stroke-linejoin="round" fill="none" stroke="#0d4e93" d="M104.979 185.417v-9.89M104.979 175.527h-1.41M103.57 175.527v9.89M103.57 185.417h1.41M104.04 185.417v-9.89M104.04 175.527l.47.64M104.04 184.937l.35.48M104.04 184.268l.47.64M104.04 183.598l.47.63M104.04 182.928l.47.63M104.04 182.247l.47.641M104.04 181.577l.47.641M104.04 180.907l.47.63M104.04 180.237l.47.63M104.04 179.567l.47.63M104.04 178.888l.47.64M104.04 178.218l.47.63M104.04 177.547l.47.63M104.04 176.877l.47.63M104.04 176.197l.47.64M104.51 185.417v-9.89"/><path stroke-width=".75" stroke-linecap="round" stroke-linejoin="round" fill="none" stroke="#641014" d="M102.15 188.247v-2.83M102.15 185.417h1.42M104.979 186.827v-1.41M241.98 186.827v-6.35"/><path stroke-width=".75" stroke-linecap="round" stroke-linejoin="round" fill="none" stroke="#0d4e93" d="M241.98 180.477h2.83"/><path stroke-width=".75" stroke-linecap="round" stroke-linejoin="round" fill="none" stroke="#641014" d="M244.81 180.477v3.53M244.81 164.227v4.95"/><path stroke-width=".75" stroke-linecap="round" stroke-linejoin="round" fill="none" stroke="#0d4e93" d="M244.81 169.178h-2.83"/><path stroke-width=".75" stroke-linecap="round" stroke-linejoin="round" fill="none" stroke="#641014" d="M241.98 169.178v-6.36"/><path stroke-width=".75" stroke-linecap="round" stroke-linejoin="round" fill="none" stroke="#0d4e93" d="M244.81 180.477v-11.3M244.81 169.178h-2.83M241.98 169.178v11.3M241.98 180.477h2.83M242.93 180.477v-11.3M242.93 179.888l.939-.721M242.93 179.117l.939-.72M242.93 178.348l.939-.721M242.93 177.577l.939-.72M242.93 176.808l.939-.721M242.93 176.047l.939-.73M242.93 175.277l.939-.73M242.93 174.508l.939-.721M242.93 173.737l.939-.72M242.93 172.968l.939-.721M242.93 172.207l.939-.729M242.93 171.437l.939-.73M242.93 170.667l.939-.73M242.93 169.897l.939-.72M243.87 169.178v11.3M243.16 180.477l.71-.55"/><path stroke-width=".75" stroke-linecap="round" stroke-linejoin="round" fill="none" stroke="#641014" d="M229.98 137.397v12.71M229.98 150.107h-1.41M228.57 150.107v-12.71"/><path d="M312.36 25.732h25.85v4.746h-25.85" fill="#bc3582"/></g><symbol id="b"><path d="M.314.064A.23.23 0 0 0 .25.014.157.157 0 0 0 .183 0a.167.167 0 0 0-.128.061A.229.229 0 0 0 0 .219C0 .283.02.34.06.395c.04.053.093.08.156.08.04 0 .072-.013.098-.038V.52A.633.633 0 0 1 .31.614C.308.625.304.634.3.638a.03.03 0 0 1-.02.006.103.103 0 0 1-.033-.008L.239.653l.134.055h.022V.191c0-.052 0-.085.003-.096C.4.083.404.075.41.07A.03.03 0 0 1 .429.064c.009 0 .02.003.035.008L.469.055.336 0H.314v.064m0 .034v.23A.156.156 0 0 1 .296.39.1.1 0 0 1 .257.43.092.092 0 0 1 .21.444.1.1 0 0 1 .134.406C.104.372.089.322.089.257.09.192.104.141.132.106.161.071.192.054.228.054c.03 0 .058.015.086.044z"/></symbol><symbol id="c"><path d="M.216.474A.198.198 0 0 0 .38.397.237.237 0 0 0 .432.246c0-.04-.01-.081-.03-.122A.21.21 0 0 0 .324.031.208.208 0 0 0 .211 0a.19.19 0 0 0-.16.08A.25.25 0 0 0 0 .234c0 .04.01.082.03.122a.208.208 0 0 0 .186.12M.201.441A.102.102 0 0 1 .15.427.107.107 0 0 1 .107.373a.26.26 0 0 1-.016-.1C.09.21.104.154.129.106.155.058.19.035.232.035.264.035.29.048.31.074.33.1.34.144.34.208.34.288.325.35.29.396A.106.106 0 0 1 .2.442z"/></symbol><symbol id="d"><path d="M.156.46v-.1c.037.067.076.1.115.1A.062.062 0 0 0 .315.444.05.05 0 0 0 .333.406.045.045 0 0 0 .32.374.04.04 0 0 0 .29.361C.279.36.266.366.251.377.237.39.227.395.221.395.213.395.207.39.2.385A.235.235 0 0 1 .156.319V.104C.156.08.159.061.165.048A.05.05 0 0 1 .187.026.099.099 0 0 1 .234.018V0h-.23v.018c.024 0 .04.003.052.01a.042.042 0 0 1 .017.025.251.251 0 0 1 .002.048v.173a.663.663 0 0 1-.003.093.035.035 0 0 1-.012.022.032.032 0 0 1-.02.007.097.097 0 0 1-.035-.008L0 .406.135.46h.02z"/></symbol><use xlink:href="#b" transform="matrix(10 0 0 -10 314.852 22.062)" fill="#231815"/><use xlink:href="#c" transform="matrix(10 0 0 -10 319.856 22.062)" fill="#231815"/><use xlink:href="#c" transform="matrix(10 0 0 -10 324.856 22.062)" fill="#231815"/><use xlink:href="#d" transform="matrix(10 0 0 -10 329.583 21.925)" fill="#231815"/><clipPath id="e"><path transform="matrix(1 0 0 -1 0 192.756)" d="M0 192.756h351.496V0H0z"/></clipPath><g clip-path="url(#e)"><path d="M312.36 30.478h25.85v4.746h-25.85" fill="#97166e"/><path d="M312.36 35.225h25.85v4.746h-25.85" fill="#6b226a"/><path d="M312.36 54.036h25.85v4.746h-25.85" fill="#4282ae"/></g><symbol id="f"><path d="M0 .46h.188V.444C.17.442.158.438.152.433.148.43.146.423.146.414c0-.01.002-.023.008-.037L.25.119l.096.21L.32.393a.079.079 0 0 1-.03.04.09.09 0 0 1-.04.009V.46h.212V.443C.44.442.422.438.412.43.407.425.403.417.403.405.403.4.405.392.408.385L.508.128l.095.248a.13.13 0 0 1 .01.042c0 .006-.004.012-.01.017C.596.439.584.442.565.443V.46h.142V.443C.678.439.657.419.644.385L.494 0h-.02L.364.286.233 0H.213L.071.376a.132.132 0 0 1-.028.048A.091.091 0 0 1 0 .443V.46z"/></symbol><symbol id="g"><path d="M.116.694A.046.046 0 0 0 .15.68.046.046 0 0 0 .165.645.048.048 0 0 0 .15.61.046.046 0 0 0 .116.595.048.048 0 0 0 .08.61a.048.048 0 0 0-.015.035C.066.659.07.67.08.68c.01.01.022.014.036.014M.156.46V.101c0-.028.002-.047.006-.056A.045.045 0 0 1 .18.025.098.098 0 0 1 .224.017V0H.007v.018C.029.018.043.02.05.024a.042.042 0 0 1 .017.02c.005.01.007.03.007.057v.172a.61.61 0 0 1-.004.095C.069.378.065.385.06.389A.03.03 0 0 1 .04.396.098.098 0 0 1 .007.388L0 .406.135.46h.021z"/></symbol><symbol id="h"><path d="M.156.366C.208.429.258.46.306.46A.107.107 0 0 0 .369.442.121.121 0 0 0 .41.382c.007-.02.01-.05.01-.09v-.19A.16.16 0 0 1 .428.042.04.04 0 0 1 .445.024.1.1 0 0 1 .49.018V0H.269v.018h.009c.02 0 .035.003.043.009A.05.05 0 0 1 .34.055C.34.06.34.075.34.101v.183c0 .04-.006.07-.016.089C.315.39.297.4.27.4.233.4.194.38.156.337V.1c0-.03.002-.049.005-.056A.047.047 0 0 1 .18.024.122.122 0 0 1 .229.018V0H.007v.018h.01c.023 0 .038.005.046.017C.071.046.075.069.075.1v.166a.677.677 0 0 1-.004.098C.07.377.065.385.061.39A.03.03 0 0 1 .04.396.094.094 0 0 1 .007.388L0 .406.135.46h.02V.366z"/></symbol><use xlink:href="#f" transform="matrix(10 0 0 -10 307.141 49.563)" fill="#231815"/><use xlink:href="#g" transform="matrix(10 0 0 -10 314.59 49.426)" fill="#231815"/><use xlink:href="#h" transform="matrix(10 0 0 -10 317.136 49.426)" fill="#231815"/><use xlink:href="#b" transform="matrix(10 0 0 -10 322.41 49.563)" fill="#231815"/><use xlink:href="#c" transform="matrix(10 0 0 -10 327.415 49.563)" fill="#231815"/><use xlink:href="#f" transform="matrix(10 0 0 -10 332.141 49.563)" fill="#231815"/><clipPath id="i"><path transform="matrix(1 0 0 -1 0 192.756)" d="M0 192.756h351.496V0H0z"/></clipPath><g clip-path="url(#i)"><path d="M312.36 58.782h25.85v4.746h-25.85" fill="#25669d"/><path d="M312.36 63.499h25.85v4.746h-25.85" fill="#054a89"/><path d="M312.36 83.509h25.85v4.746h-25.85" fill="#9591ba"/></g><symbol id="j"><path d="M.167.412V.118C.167.076.172.05.181.04A.06.06 0 0 1 .23.018H.27V0H.003v.018h.02c.013 0 .025.003.036.01A.05.05 0 0 1 .08.053a.213.213 0 0 1 .006.064v.294H0v.035h.087v.03c0 .044.007.082.021.113a.18.18 0 0 0 .165.104A.15.15 0 0 0 .368.66C.387.646.396.63.396.61A.04.04 0 0 0 .383.584.038.038 0 0 0 .356.57a.046.046 0 0 0-.024.008.138.138 0 0 0-.03.035.122.122 0 0 1-.033.036.063.063 0 0 1-.034.01.06.06 0 0 1-.038-.013.066.066 0 0 1-.023-.037.692.692 0 0 1-.007-.13V.447h.116V.412H.167z"/></symbol><symbol id="k"><path d="M.422.46V.19c0-.052.002-.084.004-.095C.428.083.432.075.438.07A.03.03 0 0 1 .457.064c.01 0 .021.003.034.008L.498.055.364 0H.342v.095A.407.407 0 0 0 .254.016.134.134 0 0 0 .19 0a.104.104 0 0 0-.065.021.114.114 0 0 0-.039.057.338.338 0 0 0-.01.096v.2a.098.098 0 0 1-.007.044.044.044 0 0 1-.02.019A.113.113 0 0 1 0 .443V.46h.157v-.3C.157.12.164.094.178.08A.077.077 0 0 1 .231.06c.014 0 .03.004.047.013.018.009.04.026.064.05v.254c0 .025-.005.042-.014.051C.318.438.299.442.27.443V.46h.152z"/></symbol><symbol id="l"><path d="M.151.602V.455h.105V.42H.15V.13c0-.029.004-.048.013-.058A.04.04 0 0 1 .196.057c.01 0 .021.003.031.01.01.006.018.016.023.03h.02A.155.155 0 0 0 .22.023.105.105 0 0 0 .157 0a.088.088 0 0 0-.044.012.077.077 0 0 0-.032.036.19.19 0 0 0-.01.072v.3H0v.017c.018.007.036.019.055.036a.29.29 0 0 1 .081.129h.015z"/></symbol><symbol id="m"><path d="M.07.292A.23.23 0 0 1 .117.136.147.147 0 0 1 .232.08c.03 0 .055.008.077.024a.18.18 0 0 1 .054.083l.015-.01a.234.234 0 0 0-.06-.122A.16.16 0 0 0 .196 0c-.053 0-.1.02-.138.063A.242.242 0 0 0 0 .23c0 .077.02.137.059.18.039.042.088.064.148.064.05 0 .09-.017.123-.05A.18.18 0 0 0 .378.292H.07m0 .029h.207a.191.191 0 0 1-.01.06.096.096 0 0 1-.037.043.09.09 0 0 1-.05.016.101.101 0 0 1-.073-.032A.136.136 0 0 1 .07.321z"/></symbol><use xlink:href="#j" transform="matrix(10 0 0 -10 307.608 104.444)" fill="#231815"/><use xlink:href="#k" transform="matrix(10 0 0 -10 310.562 104.58)" fill="#231815"/><use xlink:href="#d" transform="matrix(10 0 0 -10 315.616 104.444)" fill="#231815"/><use xlink:href="#h" transform="matrix(10 0 0 -10 318.94 104.444)" fill="#231815"/><use xlink:href="#g" transform="matrix(10 0 0 -10 324.175 104.444)" fill="#231815"/><use xlink:href="#l" transform="matrix(10 0 0 -10 326.76 104.517)" fill="#231815"/><use xlink:href="#k" transform="matrix(10 0 0 -10 329.452 104.58)" fill="#231815"/><use xlink:href="#d" transform="matrix(10 0 0 -10 334.506 104.444)" fill="#231815"/><use xlink:href="#m" transform="matrix(10 0 0 -10 338.143 104.58)" fill="#231815"/><clipPath id="n"><path transform="matrix(1 0 0 -1 0 192.756)" d="M0 192.756h351.496V0H0z"/></clipPath><g clip-path="url(#n)"><path d="M312.36 88.24h25.85v4.746h-25.85" fill="#5f4a8e"/><path d="M312.36 108.434h25.85v4.746h-25.85" fill="#004224"/></g><symbol id="o"><path d="M.249.074A.737.737 0 0 0 .163.012.132.132 0 0 0 .106 0C.076 0 .05.01.03.032A.117.117 0 0 0 0 .115c0 .022.005.04.015.057a.194.194 0 0 0 .069.062c.033.02.088.044.165.072v.017c0 .045-.007.075-.021.092C.214.432.193.44.166.44A.07.07 0 0 1 .117.423.05.05 0 0 1 .1.385V.357C.1.342.097.33.089.322A.039.039 0 0 0 .058.31a.039.039 0 0 0-.03.013.05.05 0 0 0-.01.034c0 .028.013.054.042.078A.186.186 0 0 0 .18.47.21.21 0 0 0 .279.45.092.092 0 0 0 .321.402.267.267 0 0 0 .33.316V.165c0-.043 0-.07.002-.08C.334.077.336.07.34.068A.02.02 0 0 1 .353.062c.005 0 .01.001.014.003l.04.036V.074C.37.024.334 0 .301 0a.047.047 0 0 0-.038.017C.254.028.249.047.249.074m0 .031v.17a.964.964 0 0 1-.095-.04.164.164 0 0 1-.055-.046.087.087 0 0 1-.017-.05c0-.024.007-.044.021-.06A.064.064 0 0 1 .151.058C.176.057.21.073.25.105z"/></symbol><symbol id="p"><path d="M.002.617.14.672H.16V.568c.023.04.046.067.069.082a.13.13 0 0 0 .074.024.142.142 0 0 0 .112-.052A.25.25 0 0 0 .47.454.28.28 0 0 0 .403.262.176.176 0 0 0 .265.2a.172.172 0 0 0-.062.01.146.146 0 0 0-.044.03V.104c0-.031.001-.05.005-.059a.043.043 0 0 1 .02-.02.122.122 0 0 1 .05-.007V0H0v.018h.012c.018 0 .033.003.046.01.006.004.011.01.014.018a.196.196 0 0 1 .006.06V.53a.23.23 0 0 1-.004.055.033.033 0 0 1-.013.018.04.04 0 0 1-.023.006A.088.088 0 0 1 .008.6L.002.617M.16.539V.372c0-.036.001-.06.004-.071A.092.092 0 0 1 .196.25.104.104 0 0 1 .264.229c.032 0 .059.013.079.039a.22.22 0 0 1 .04.14c0 .068-.016.12-.046.157a.093.093 0 0 1-.12.027.272.272 0 0 1-.058-.053z"/></symbol><symbol id="q"><path d="M.155.694V.101c0-.028.002-.046.006-.056a.046.046 0 0 1 .02-.02.112.112 0 0 1 .047-.007V0h-.22v.018c.02 0 .035.002.042.006a.042.042 0 0 1 .018.02c.004.01.006.03.006.057v.406c0 .05 0 .082-.003.093C.069.612.065.62.06.624A.028.028 0 0 1 .04.63.091.091 0 0 1 .009.623L0 .64l.133.054h.022z"/></symbol><symbol id="r"><path d="M.377.184a.244.244 0 0 0-.07-.137A.17.17 0 0 0 .188 0a.172.172 0 0 0-.132.064A.251.251 0 0 0 0 .237c0 .07.02.127.063.171a.201.201 0 0 0 .15.066C.257.474.293.462.322.44.35.416.364.392.364.367a.04.04 0 0 0-.012-.03A.046.046 0 0 0 .32.324c-.02 0-.034.006-.044.019C.27.35.266.364.265.383a.063.063 0 0 1-.02.044.07.07 0 0 1-.048.014A.097.097 0 0 1 .12.405.192.192 0 0 1 .079.28c0-.054.013-.1.04-.142a.121.121 0 0 1 .106-.06c.032 0 .06.01.086.032A.22.22 0 0 1 .363.19L.377.184z"/></symbol><use xlink:href="#o" transform="matrix(10 0 0 -10 305.454 78.922)" fill="#231815"/><use xlink:href="#p" transform="matrix(10 0 0 -10 309.503 80.968)" fill="#231815"/><use xlink:href="#p" transform="matrix(10 0 0 -10 314.503 80.968)" fill="#231815"/><use xlink:href="#q" transform="matrix(10 0 0 -10 319.836 78.83)" fill="#231815"/><use xlink:href="#g" transform="matrix(10 0 0 -10 322.61 78.83)" fill="#231815"/><use xlink:href="#o" transform="matrix(10 0 0 -10 325.454 78.922)" fill="#231815"/><use xlink:href="#h" transform="matrix(10 0 0 -10 329.596 78.83)" fill="#231815"/><use xlink:href="#r" transform="matrix(10 0 0 -10 334.88 78.966)" fill="#231815"/><use xlink:href="#m" transform="matrix(10 0 0 -10 339.349 78.966)" fill="#231815"/><clipPath id="s"><path transform="matrix(1 0 0 -1 0 192.756)" d="M0 192.756h351.496V0H0z"/></clipPath><g clip-path="url(#s)"><path d="M312.36 113.18h25.85v4.747h-25.85" fill="#144c29"/></g><symbol id="t"><path d="M.156.384c.044.06.09.09.14.09.046 0 .086-.02.12-.059a.236.236 0 0 0 .052-.16.248.248 0 0 0-.08-.193.218.218 0 0 0-.23-.048.366.366 0 0 0-.082.043V.52c0 .05-.002.082-.004.094C.069.625.066.634.06.638a.03.03 0 0 1-.02.006.1.1 0 0 1-.034-.008L0 .653l.134.055h.022V.384m0-.031V.085A.194.194 0 0 1 .208.048.13.13 0 0 1 .262.036c.03 0 .057.016.083.048.025.033.038.08.038.143a.2.2 0 0 1-.038.131C.319.39.29.405.258.405A.113.113 0 0 1 .206.392a.224.224 0 0 1-.05-.04z"/></symbol><use xlink:href="#t" transform="matrix(10 0 0 -10 318.336 167.428)" fill="#231815"/><use xlink:href="#m" transform="matrix(10 0 0 -10 323.732 167.428)" fill="#231815"/><use xlink:href="#b" transform="matrix(10 0 0 -10 328.133 167.428)" fill="#231815"/><clipPath id="u"><path transform="matrix(1 0 0 -1 0 192.756)" d="M0 192.756h351.496V0H0z"/></clipPath><g clip-path="url(#u)"><path d="M312.36 117.912h25.85v4.746h-25.85" fill="#295834"/><path d="M312.36 122.643h25.85v4.746h-25.85" fill="#396542"/><path d="M312.36 127.375h25.85v4.746h-25.85" fill="#487151"/><path d="M312.36 132.106h25.85v4.746h-25.85" fill="#597e5f"/><path d="M312.36 136.838h25.85v4.746h-25.85" fill="#78947b"/><path d="M312.36 141.57h25.85v4.745h-25.85" fill="#99b09a"/><path d="M312.36 146.3h25.85v4.747h-25.85" fill="#abbcab"/><path d="M312.36 151.047h25.85v4.746h-25.85" fill="#f4f8f1"/><path d="M312.36 170.853h25.85v4.746h-25.85" fill="#de6448"/></g></g></svg>