<svg xmlns="http://www.w3.org/2000/svg" width="400.629" height="257.008" viewBox="0 0 300.472 192.756"><g data-name="图层 1"><path stroke-width=".25" stroke-miterlimit="10" fill="none" stroke="#000" d="M48.254 86.547h24.01M72.264 86.547v8.47M72.264 95.017h-24.01M48.254 95.017v-8.47M48.254 95.017l24.01-8.47M48.254 86.547l24.01 8.47M77.915 79.487v-.71M77.915 78.777h.71M77.915 78.777v-21.19M77.915 78.777v-21.19M48.254 78.777h29.66M54.324 78.777v-21.19M54.324 57.587h-5.08M49.244 57.587v21.19M53.904 76.657v-7.91M53.904 68.747h-4.24M49.665 68.747v7.91M49.665 76.657h4.24M53.904 59.707v7.91M53.904 67.617h-4.24M49.665 67.617v-7.91M49.665 59.707h4.24M75.094 78.777v-21.19M75.094 57.587h-5.66M69.435 57.587v21.19M69.435 78.777h5.66M70.855 78.777l-1.42-4.94M77.915 56.888v.699M77.915 57.587h.71M77.915 61.827h-2.82M77.915 60.417h-2.82M77.915 57.587h-29.66M48.254 57.587v21.19M49.244 78.777h5.08M55.315 85.138h-.71M54.605 85.138v.699M48.254 85.138h6.35M54.605 85.138v-6.36M54.605 78.777h-6.35M48.254 78.777v6.36"/><clipPath id="a"><path transform="matrix(1 0 0 -1 0 192.756)" d="M0 192.756h300.472V0H0z"/></clipPath><g clip-path="url(#a)" stroke-width=".25" stroke-miterlimit="10" fill="none" stroke="#000"><path d="M51.435 81.247a.71.71 0 1 1 0 1.42.71.71 0 0 1 0-1.42z"/><path d="M51.435 80.547a1.41 1.41 0 1 1-.002 2.822 1.41 1.41 0 0 1 .002-2.822zM49.315 81.957h4.23M51.435 79.837v4.24M55.315 51.237h-.71M54.605 51.237v-.71M48.254 51.237h6.35M54.605 51.237v6.35M54.605 57.587h-6.35M48.254 57.587v-6.35M51.435 53.707a.71.71 0 1 1 0 1.42.71.71 0 0 1 0-1.42z"/><path d="M51.435 53.008a1.41 1.41 0 1 1 0 2.82 1.41 1.41 0 0 1 0-2.82zM49.315 54.417h4.23M51.435 56.537v-4.24M89.634 80.547h2.4M92.034 80.117c0 .23-.19.42-.42.42M92.034 80.117v-5.51M91.614 74.187c.23 0 .42.19.42.42M92.034 74.187h-2.4M89.214 80.117v-5.51M89.634 80.547a.422.422 0 0 1-.42-.42M89.214 74.607c0-.23.19-.42.42-.42M92.034 80.547l6.5-1.3M99.105 78.557c0 .34-.24.63-.57.69M99.105 78.557v-2.38M98.534 75.487c.33.07.57.36.57.69M98.534 75.487l-6.5-1.3M93.364 79.848l5.08-1.021M98.674 78.557c0 .13-.1.25-.23.28M98.674 78.557v-2.38M98.444 75.897c.13.03.23.14.23.28M98.444 75.897l-5.08-1.01M93.024 75.167a.28.28 0 0 1 .28-.28c.02 0 .04 0 .05.01M93.024 75.167v4.4M93.364 79.848a.284.284 0 0 1-.33-.221c0-.02-.01-.04-.01-.05M89.214 95.017h6.35M95.564 83.017h-6.35M89.214 83.017v12M91.335 92.897h5.65M91.754 92.477h4.8M91.335 85.138h5.65M91.754 85.557h4.8M96.984 92.897v-7.76M96.554 92.477v-6.92M91.335 85.138v3.67M91.335 89.227v3.67M91.754 85.557v3.25M91.754 89.227v3.25M92.744 89.227h-2.51M92.744 88.807h-2.51M92.744 89.227v-.42M90.554 88.027a.32.32 0 1 1 0 .64.32.32 0 0 1 0-.64zM90.554 89.367a.32.32 0 1 1 0 .64.32.32 0 0 1 0-.64zM90.554 88.527v-.36M90.374 88.348h.36M90.554 89.517v.35M90.374 89.687h.36M90.234 89.227v-.42M95.564 83.017v2.12M95.564 92.897v2.12M112.804 60.138h-23.17M89.634 60.138v11.159M89.634 71.297h23.17M112.804 71.297v-11.16M113.225 59.707h-24.01M89.214 59.707v12.011M89.214 71.718h24.01M113.225 71.718V59.707M88.224 65.497h2.12M88.224 65.928h2.12M90.344 65.497v.431M91.194 66.557v-1.69M89.494 66.557h1.7M89.494 64.867h1.7M88.224 65.497h2.12M88.224 65.928h2.12M90.344 65.497v.431M91.194 66.557v-1.69M89.494 66.557h1.7M89.494 64.867h1.7M97.685 55.477h11.3M108.984 55.477v-4.24M108.984 51.237h-11.3M97.685 51.237v4.24M97.685 55.477l3.6-1.44M108.984 55.477l-4.06-1.63M104.924 52.857l4.06-1.62M101.284 52.678l-3.6-1.44M123.114 55.477v-15.54M123.114 39.937h39.55M162.665 39.937v15.54M122.054 53.357v-11.3M122.054 42.057h-6.36M115.694 42.057v11.3M115.694 53.357h6.36M121.344 48.267a.28.28 0 1 1 0 .56.28.28 0 0 1 0-.56zM121.064 48.547h.56M121.344 46.577a.28.28 0 1 1 0 .56.28.28 0 0 1 0-.56zM121.064 46.857h.56M117.105 49.678l1.04 1.04M119.044 51.617l1.03 1.03M118.594 50.107a1.06 1.06 0 1 1 0 2.121 1.06 1.06 0 0 1 0-2.12zM117.105 52.647l1.04-1.03M119.044 50.718l1.03-1.04M117.105 52.647v-2.97M117.105 49.678h2.97M120.074 49.678v2.97M120.074 52.647h-2.97M117.105 45.727l1.04-1.03M119.044 43.797l1.03-1.04M118.594 43.187a1.06 1.06 0 1 1 0 2.121 1.06 1.06 0 0 1 0-2.12zM117.105 42.758l1.04 1.039M119.044 44.697l1.03 1.03M117.105 42.758v2.97M117.105 45.727h2.97M120.074 45.727v-2.97M120.074 42.758h-2.97M122.054 37.468v-5.65M122.054 31.817h-7.06M114.994 31.817v5.65M114.994 37.468h7.06M123.114 37.817v-6.36M123.114 31.457h-8.48M114.634 31.457v6.36M114.634 37.817h8.48M121.844 37.057v-4.83M121.844 32.227l-.21-.2M121.634 32.027h-6.23M115.404 32.027l-.2.2M115.205 32.227v4.83M115.205 37.057l.2.2M115.404 37.258h6.23M121.634 37.258l.21-.2M121.844 33.367h.21M121.844 35.907h.21M121.634 37.258l-5.89-.66M115.744 36.598l-.54-4.37M123.534 35.067v-.85M123.534 34.218l-.42.42M123.114 34.638l.42.43M130.174 85.138h29.66M159.834 85.138V73.127M159.834 73.127h-29.66M130.174 73.127v12.01M138.784 85.138h.57M139.355 85.138v4.939M139.355 90.077h-7.06M132.294 90.077v-4.939M132.294 85.138h.56M138.784 85.138v4.38M138.784 89.517h-5.93M138.784 88.807h-5.93M132.855 89.517v-4.38M132.294 90.077h-.71M132.294 90.077v.71M139.355 90.077h.71M139.355 90.077v.71M130.174 85.138h29.66M159.834 85.138V73.127M159.834 73.127h-29.66M130.174 73.127v12.01M138.784 85.138h.57M132.294 85.138h.56M138.784 88.807h-5.93M132.855 89.517h5.93M138.784 89.517v-6.5M138.784 83.017h-5.93M132.855 83.017v6.5M151.214 85.138h-.56M150.654 85.138v4.939M150.654 90.077h7.06M157.714 90.077v-4.939M157.714 85.138h-.56M151.214 85.138v4.38M151.214 89.517h5.94M151.214 88.807h5.94M157.154 89.517v-4.38M157.714 90.077h.71M157.714 90.077v.71M150.654 90.077h-.71M150.654 90.077v.71M151.214 85.138h-.56M157.714 85.138h-.56M151.214 88.807h5.94M157.154 89.517h-5.94M151.214 89.517v-6.5M151.214 83.017h5.94M157.154 83.017v6.5M147.964 85.138h.57M148.534 85.138v4.939M148.534 90.077h-7.06M141.475 90.077v-4.939M141.475 85.138h.56M147.964 85.138v4.38M147.964 89.517h-5.93M147.964 88.807h-5.93M142.034 89.517v-4.38M141.475 90.077h-.71M141.475 90.077v.71M148.534 90.077h.71M148.534 90.077v.71M147.964 85.138h.57M141.475 85.138h.56M147.964 88.807h-5.93M142.034 89.517h5.93M147.964 89.517v-6.5M147.964 83.017h-5.93M142.034 83.017v6.5M138.784 73.127h.57M139.355 73.127v-4.94M139.355 68.187h-7.06M132.294 68.187v4.94M132.294 73.127h.56M138.784 73.127v-4.38M138.784 68.747h-5.93M138.784 69.457h-5.93M132.855 68.747v4.38M132.294 68.187h-.71M132.294 68.187v-.71M139.355 68.187h.71M139.355 68.187v-.71M138.784 73.127h.57M132.294 73.127h.56M138.784 69.457h-5.93M132.855 68.747h5.93M138.784 68.747v6.5M138.784 75.247h-5.93M132.855 75.247v-6.5M151.214 73.127h-.56M150.654 73.127v-4.94M150.654 68.187h7.06M157.714 68.187v4.94M157.714 73.127h-.56M151.214 73.127v-4.38M151.214 68.747h5.94M151.214 69.457h5.94M157.154 68.747v4.38M157.714 68.187h.71M157.714 68.187v-.71M150.654 68.187h-.71M150.654 68.187v-.71M151.214 73.127h-.56M157.714 73.127h-.56M151.214 69.457h5.94M157.154 68.747h-5.94M151.214 68.747v6.5M151.214 75.247h5.94M157.154 75.247v-6.5M147.964 73.127h.57M148.534 73.127v-4.94M148.534 68.187h-7.06M141.475 68.187v4.94M141.475 73.127h.56M147.964 73.127v-4.38M147.964 68.747h-5.93M147.964 69.457h-5.93M142.034 68.747v4.38M141.475 68.187h-.71M141.475 68.187v-.71M148.534 68.187h.71M148.534 68.187v-.71M147.964 73.127h.57M141.475 73.127h.56M147.964 69.457h-5.93M142.034 68.747h5.93M147.964 68.747v6.5M147.964 75.247h-5.93M142.034 75.247v-6.5M114.634 56.888h5.65M120.284 56.888v39.55M120.284 96.437h-5.65M114.634 96.437v-39.55M120.284 96.437l-5.65-39.55M120.284 56.888l-5.65 39.55M113.225 121.857h-25.42M87.804 121.857v-8.47M87.804 113.388h25.42M113.225 113.388v8.47M113.225 113.388l-25.42 8.47M113.225 121.857l-25.42-8.47M83.564 156.457v-.699M83.564 155.758h-.71M83.564 155.758v-25.431M83.564 130.327h29.66M113.225 130.327v25.431M113.225 155.758h-29.66M107.154 155.758v-25.431M107.154 130.327h5.08M112.234 130.327v25.431M112.234 155.758h-5.08M107.574 153.638v-10.03M107.574 143.607h4.24M111.814 143.607v10.03M111.814 153.638h-4.24M107.574 132.447v10.03M107.574 142.477h4.24M111.814 142.477v-10.03M111.814 132.447h-4.24M86.384 155.758v-25.431M86.384 130.327h5.65M92.034 130.327v25.431M92.034 155.758h-5.65M90.624 155.758l1.41-7.061M83.564 129.627v.7M83.564 130.327h-.71M83.564 135.987h2.82M83.564 134.567h2.82M83.564 133.157h2.82M83.564 156.457v-.699M83.564 155.758h-.71M90.624 155.758l1.41-7.061M83.564 129.627v.7M83.564 130.327h-.71M83.564 135.987h2.82M83.564 134.567h2.82M83.564 133.157h2.82M106.165 163.527v-.71M106.165 162.817h-.71M106.165 155.758v7.06M106.165 162.817h7.06M113.225 162.817v-7.06M113.225 155.758h-7.06M109.694 158.577a.71.71 0 1 1 0 1.42.71.71 0 0 1 0-1.42z"/><path d="M109.694 157.877a1.41 1.41 0 1 1 0 2.82 1.41 1.41 0 0 1 0-2.82zM109.694 157.167v4.24M111.814 159.287h-4.24M106.165 122.567v.7M106.165 123.267h-.71M106.165 130.327v-7.06M106.165 123.267h7.06M113.225 123.267v7.06M113.225 130.327h-7.06M109.694 126.087a.71.71 0 1 1 0 1.42.71.71 0 0 1 0-1.42z"/><path d="M109.694 125.388a1.41 1.41 0 1 1 .001 2.818 1.41 1.41 0 0 1 0-2.818zM109.694 128.917v-4.24M111.814 126.797h-4.24M114.634 186.827h55.09M114.634 185.417h55.09M207.504 113.807v2.4M207.925 116.207a.423.423 0 0 1-.421-.42M207.925 116.207h5.51M213.864 115.787c0 .23-.189.42-.42.42M213.864 116.207v-2.399M207.925 113.388h5.51M207.504 113.807c0-.23.19-.42.42-.42M213.435 113.388c.229 0 .42.189.42.42M207.504 116.207l1.3 6.5M209.494 123.267c-.34 0-.63-.24-.689-.57M209.494 123.267h2.38M212.565 122.707c-.07.33-.36.57-.69.57M212.565 122.707l1.3-6.5M208.204 117.537l1.021 5.08M209.494 122.848a.297.297 0 0 1-.279-.23M209.494 122.848h2.38M212.144 122.617a.29.29 0 0 1-.28.23M212.144 122.617l1.02-5.08M212.885 117.197a.28.28 0 0 1 .279.28c0 .02 0 .04-.01.05M212.885 117.197h-4.41M208.204 117.537a.284.284 0 0 1 .221-.33c.02 0 .04-.01.05-.01M228.624 134.147v-20.34M228.624 113.807h-11.159M217.465 113.807v20.34M217.465 134.147h11.159M229.044 134.567v-21.18M229.044 113.388h-12.01M217.034 113.388v21.18M217.034 134.567h12.01M124.804 153.917v-26.83M124.804 127.087h-8.19M116.614 127.087v26.83M116.614 153.917h8.19M123.394 153.917v-1.55M123.394 152.367h-6.78M116.614 152.367v1.55M116.614 153.917h6.78M123.394 128.638v-1.551M123.394 127.087h-6.78M116.614 127.087v1.55M116.614 128.638h6.78M124.804 144.457h-8.19M124.804 154.558v-.641M124.804 153.917h.64M124.804 126.447v.64M124.804 127.087h.64M124.804 136.547h-8.19M116.614 153.917h-1.98M114.634 153.917v-26.83M114.634 127.087h1.98M116.614 127.087v26.83M131.514 148.268h8.48M139.994 148.268v-15.53M139.994 132.737h-8.48M131.514 132.737v15.53M131.514 148.268h-.71M131.514 148.268v.71M139.994 148.268h.7M139.994 148.268v.71M131.514 132.737h-.71M131.514 132.737v-.71M139.994 132.737h.7M139.994 132.737v-.71M141.054 126.377h-11.3M129.754 126.377v-8.19M129.754 118.187h11.3M141.054 118.187v8.19M141.054 124.968h-1.56M139.494 124.968v-6.78M139.494 118.187h1.56M141.054 118.187v6.78M131.304 124.968h-1.55M129.754 124.968v-6.78M129.754 118.187h1.55M131.304 118.187v6.78M141.685 126.377h-.63M141.054 126.377v.64M129.114 126.377h.64M129.754 126.377v.64M141.054 118.187v-1.98M141.054 116.207h-11.3M129.754 116.207v1.98M129.754 118.187h11.3M116.614 117.337v.71M116.614 118.047h-.7M123.674 125.107h-7.06M116.614 125.107v-7.06M116.614 118.047h7.06M123.674 118.047v7.06M116.614 125.107v-7.06M116.614 118.047h7.06M123.674 118.047v7.06M123.674 125.107h-7.06M120.144 120.867a.71.71 0 1 1 0 1.42.71.71 0 0 1 0-1.42z"/><path d="M120.144 120.167a1.41 1.41 0 1 1-.001 2.822 1.41 1.41 0 0 1 .001-2.822zM120.144 123.697v-4.24M122.264 121.577h-4.24M116.614 125.807v-.7M116.614 125.107h-.7M123.674 117.337v.71M123.674 118.047h.71M123.674 125.807v-.7M123.674 125.107h.71M117.324 127.087v-1.98M147.824 158.577h-8.19M131.165 158.577h-13.84M117.324 153.917v4.66M135.404 154.337a4.24 4.24 0 1 1 .001 8.479 4.24 4.24 0 0 1 0-8.48z"/><path d="M135.404 155.397a3.18 3.18 0 1 1 0 6.361 3.18 3.18 0 0 1 0-6.36zM141.054 126.377h-11.3M129.754 126.377v-8.19M129.754 118.187h11.3M141.054 118.187v8.19M141.054 124.968h-1.56M139.494 124.968v-6.78M139.494 118.187h1.56M141.054 118.187v6.78M131.304 124.968h-1.55M129.754 124.968v-6.78M129.754 118.187h1.55M131.304 118.187v6.78M141.685 126.377h-.63M141.054 126.377v.64M129.114 126.377h.64M129.754 126.377v.64M141.054 118.187v-1.98M141.054 116.207h-11.3M129.754 116.207v1.98M129.754 118.187h11.3M117.324 127.087v-1.98M147.824 120.157h-6.8M129.774 120.157h-6.1M117.324 127.087v-1.98M147.824 158.577v-38.42M166.194 128.077v25.42M166.194 153.497h4.94M171.135 153.497v-25.42M171.135 128.077h-4.94M166.194 153.497h4.94M171.135 153.497v-25.42M171.135 128.077h-4.94M166.194 128.077v25.42M165.484 128.077h.71M166.194 128.077v-.71M165.484 153.497h.71M166.194 153.497v.7M169.725 149.258h.84M170.565 149.258v-16.95M170.565 132.308h-.84M169.725 132.308v16.95M171.135 147.138v-12.71M170.565 147.138h.57M170.565 134.428h.57M165.484 128.077h.71M166.194 128.077v-.71M165.484 153.497h.71M166.194 153.497v.7M171.135 147.138v-12.71M22.824 120.447h32.49M55.315 120.447v-8.479M55.315 111.968h-32.49M22.824 111.968v8.479M55.315 111.968l-32.49 8.479M55.315 120.447l-32.49-8.479M31.304 111.968v-15.53M31.304 96.437h-8.48M22.824 96.437v15.53M22.824 111.968h8.48M22.824 96.437l8.48 15.53M31.304 96.437l-8.48 15.53M52.494 156.457v-.699M52.494 155.758h.7M52.494 155.758v-25.431M52.494 130.327h-29.67M22.824 130.327v25.431M22.824 155.758h29.67M28.904 155.758v-25.431M28.904 130.327h-5.09M23.814 130.327v25.431M23.814 155.758h5.09M28.474 153.638v-10.03M28.474 143.607h-4.23M24.244 143.607v10.03M24.244 153.638h4.23M28.474 132.447v10.03M28.474 142.477h-4.23M24.244 142.477v-10.03M24.244 132.447h4.23M49.665 155.758v-25.431M49.665 130.327h-5.65M44.014 130.327v25.431M44.014 155.758h5.65M45.424 155.758l-1.41-7.061M52.494 129.627v.7M52.494 130.327h.7M52.494 135.987h-2.83M52.494 134.567h-2.83M52.494 133.157h-2.83M52.494 156.457v-.699M52.494 155.758h.7M45.424 155.758l-1.41-7.061M52.494 129.627v.7M52.494 130.327h.7M52.494 135.987h-2.83M52.494 134.567h-2.83M52.494 133.157h-2.83M29.895 163.527v-.71M29.895 162.817h.7M29.895 155.758v7.06M29.895 162.817h-7.07M22.824 162.817v-7.06M22.824 155.758h7.07M26.364 158.577a.71.71 0 1 1 0 1.42.71.71 0 0 1 0-1.42z"/><path d="M26.364 157.877a1.41 1.41 0 1 1 0 2.82 1.41 1.41 0 0 1 0-2.82zM26.364 157.167v4.24M24.244 159.287h4.23M29.895 122.567v.7M29.895 123.267h.7M29.895 130.327v-7.06M29.895 123.267h-7.07M22.824 123.267v7.06M22.824 130.327h7.07M26.364 126.087a.71.71 0 1 1 0 1.42.71.71 0 0 1 0-1.42z"/><path d="M26.364 125.388a1.41 1.41 0 1 1 .001 2.818 1.41 1.41 0 0 1 0-2.818zM26.364 128.917v-4.24M24.244 126.797h4.23M52.494 162.817h-29.67M170.715 55.047v-7.62M170.715 47.428h-7.63M163.084 47.428v7.619M163.084 55.047h7.63M171.135 55.477v-8.48M171.135 46.997h-8.47M162.444 46.997h-.49M162.665 46.997v8.48M161.955 55.477h.49M162.665 55.477h8.47M161.955 46.997v8.48M162.444 46.997v8.48M162.165 55.047h-.21M161.955 55.047v-.56M161.955 54.487h.21M162.165 54.487v.56M193.734 119.737h-2.82M190.914 119.737v-6.35M190.914 113.388h13.41M204.324 113.388v6.35M204.324 119.737h-2.82M196.944 114.407a.32.32 0 1 1 0 .64.32.32 0 0 1 0-.64zM198.284 114.407a.32.32 0 1 1 0 .64.32.32 0 0 1 0-.64zM197.124 114.727h-.359M196.944 114.547v.35M198.114 114.727h.351M198.284 114.547v.35M197.824 114.407h-.42M197.404 114.407v2.51M197.404 116.917h.42M197.824 116.917v-2.51M197.824 115.928h3.25M201.074 115.928v4.8M201.074 120.727h-6.92M194.154 120.727v-4.8M194.154 115.928h3.25M197.824 115.497h3.68M201.504 115.497v5.65M201.504 121.147h-7.77M193.734 121.147v-5.65M193.734 115.497h3.67M223.254 113.807v2.12M222.824 113.807v2.12M223.254 115.928h-.43M222.194 116.767h1.69M222.194 115.077v1.69M223.885 115.077v1.69M223.254 113.807v2.12M222.824 113.807v2.12M223.254 115.928h-.43M222.194 116.767h1.69M222.194 115.077v1.69M223.885 115.077v1.69M77.915 162.817h25.42M253.414 113.807v2.4M252.984 116.207c.23 0 .42-.189.43-.42M252.984 116.207h-5.51M247.055 115.787c0 .23.189.42.42.42M247.055 116.207v-2.399M252.984 113.388h-5.51M253.414 113.807c0-.23-.189-.42-.42-.42M247.475 113.388c-.23 0-.42.189-.42.42M253.414 116.207l-1.3 6.5M251.414 123.267c.34 0 .63-.24.69-.57M251.414 123.267h-2.37M248.355 122.707c.07.33.36.57.689.57M248.355 122.707l-1.3-6.5M252.715 117.537l-1.021 5.08M251.414 122.848c.13 0 .25-.101.28-.23M251.414 122.848h-2.37M248.765 122.617c.029.13.14.23.279.23M248.765 122.617l-1.021-5.08M248.024 117.197a.28.28 0 0 0-.28.28c0 .02 0 .04.01.05M248.024 117.197h4.41M252.715 117.537a.284.284 0 0 0-.221-.33c-.02 0-.04-.01-.05-.01M232.294 134.147v-20.34M232.294 113.807h11.16M243.454 113.807v20.34M243.454 134.147h-11.16M231.864 134.567v-21.18M231.864 113.388h12.01M243.874 113.388v21.18M243.874 134.567h-12.01M267.185 119.737h2.819M270.004 119.737v-6.35M270.004 113.388h-13.42M256.584 113.388v6.35M256.584 119.737h2.83M263.965 114.407a.32.32 0 1 1-.002.64.32.32 0 0 1 .002-.64zM262.624 114.407a.32.32 0 1 1 0 .64.32.32 0 0 1 0-.64zM263.784 114.727h.36M263.965 114.547v.35M262.805 114.727h-.36M262.624 114.547v.35M263.084 114.407h.42M263.504 114.407v2.51M263.504 116.917h-.42M263.084 116.917v-2.51M263.084 115.928h-3.25M259.834 115.928v4.8M259.834 120.727h6.92M266.754 120.727v-4.8M266.754 115.928h-3.25M263.084 115.497h-3.67M259.414 115.497v5.65M259.414 121.147h7.771M267.185 121.147v-5.65M267.185 115.497h-3.681M237.664 113.807v2.12M238.084 113.807v2.12M237.664 115.928h.42M238.715 116.767h-1.69M238.715 115.077v1.69M237.024 115.077v1.69M237.664 113.807v2.12M238.084 113.807v2.12M237.664 115.928h.42M238.715 116.767h-1.69M238.715 115.077v1.69M237.024 115.077v1.69M181.024 186.827h25.42M181.024 185.417h25.42M186.675 150.107h2.819M186.675 135.277v.71M186.675 135.987h-.71M186.675 135.987v16.94M214.925 152.928v-16.94M214.925 135.987h-28.25M208.845 135.987v16.94M208.845 152.928h5.09M213.935 152.928v-16.94M189.494 135.987v16.94M195.144 152.928v-16.94M193.734 135.987l1.41 4.94M186.675 153.638v-.71M186.675 152.928h-.71M186.675 150.107h2.819M209.274 139.508v9.89M209.274 149.397h4.23M213.504 149.397v-9.89M213.504 139.508h-4.23M214.925 152.928h-28.25M214.925 152.227v.7M214.925 152.928h.699M214.925 159.997v-7.069M214.925 152.928h-7.07M207.855 152.928v7.069M207.855 159.997h7.07M211.385 155.747a.71.71 0 1 1 0 1.42.71.71 0 0 1 0-1.42z"/><path d="M211.385 155.047a1.41 1.41 0 1 1-.002 2.82 1.41 1.41 0 0 1 .002-2.82zM211.385 158.577v-4.24M209.274 156.457h4.23M274.244 150.107h-2.83M274.244 135.277v.71M274.244 135.987h.7M274.244 135.987v16.94M245.994 152.928v-16.94M245.994 135.987h28.25M252.065 135.987v16.94M252.065 152.928h-5.08M246.984 152.928v-16.94M271.414 135.987v16.94M265.765 152.928v-16.94M267.185 135.987l-1.42 4.94M274.244 153.638v-.71M274.244 152.928h.7M274.244 150.107h-2.83M251.644 139.508v9.89M251.644 149.397h-4.24M247.404 149.397v-9.89M247.404 139.508h4.24M245.994 152.928h28.25M245.994 152.227v.7M245.994 152.928h-.71M245.994 159.997v-7.069M245.994 152.928h7.061M253.055 152.928v7.069M253.055 159.997h-7.061M249.524 155.747a.71.71 0 1 1 0 1.42.71.71 0 0 1 0-1.42z"/><path d="M249.524 155.047a1.41 1.41 0 1 1-.001 2.822 1.41 1.41 0 0 1 .001-2.822zM249.524 158.577v-4.24M251.644 156.457h-4.24M20.004 96.437h-12.1M8.705 68.187v26.83M8.705 95.017h11.3M90.624 48.407h21.19M90.624 49.827h21.19M181.024 164.227h25.42M147.125 38.877h-11.3M135.824 38.877v-6.36M146.694 33.787v3.96M146.694 37.747c0 .391-.32.71-.71.71M145.994 38.457h-3.39M142.605 38.457a.712.712 0 0 1-.71-.71M140.344 38.457h-3.39M136.955 38.457a.712.712 0 0 1-.71-.71M136.244 37.747v-3.96M136.244 33.787c0-.39.32-.71.71-.71M136.955 33.087h3.39M140.344 33.087c.39 0 .71.32.71.71M142.605 33.087h3.39M145.994 33.087c.39 0 .71.32.71.71M141.894 33.787v3.96M141.894 33.787c0-.39.32-.71.71-.71M141.054 33.787v3.96M141.054 37.747c0 .391-.32.71-.71.71M141.264 35.348v-2.83M141.685 35.348v-2.83M141.264 35.348h.42M142.004 32.517a.32.32 0 1 1 .002.64.32.32 0 0 1-.002-.64zM140.944 32.517a.32.32 0 1 1 .001.64.32.32 0 0 1 0-.64zM141.824 32.837h.35M142.004 32.657v.36M141.114 32.837h-.35M140.944 32.657v.36M147.125 32.517v6.36M135.824 32.517h11.3M146.694 33.787v3.96"/><path d="M146.694 37.747c0 .391-.32.71-.71.71M145.994 38.457h-3.39M142.605 38.457a.712.712 0 0 1-.71-.71M140.344 33.087c.39 0 .71.32.71.71M142.605 33.087h3.39M145.994 33.087c.39 0 .71.32.71.71M141.894 33.787v3.96M141.894 33.787c0-.39.32-.71.71-.71M140.944 32.517a.32.32 0 1 1 .001.64.32.32 0 0 1 0-.64zM206.444 164.227v19.78M207.855 164.227v19.78M209.114 180.477v-11.3M209.114 169.178h4.24M213.355 169.178v11.3M213.355 180.477h-4.24M209.114 180.477l1.44-3.6M209.114 169.178l1.63 4.06M211.725 173.237l1.63-4.06M211.914 176.877l1.44 3.6M111.964 184.008v-11.301M111.964 172.707h-4.24M107.724 172.707v11.301M107.724 184.008h4.24M111.964 184.008l-1.44-3.601M111.964 172.707l-1.62 4.061M109.355 176.768l-1.63-4.061M109.165 180.407l-1.44 3.601M172.544 104.907h19.78M192.324 104.907v7.061M192.324 111.968h-19.78M172.544 111.968v-7.061M192.324 111.968l-19.78-7.061M192.324 104.907l-19.78 7.061M237.234 76.307v-2.47M237.234 73.837h-13.56M223.675 73.837v2.47M223.675 76.307h13.56M241.044 71.367v-19.78M241.044 51.587h-21.18M219.864 51.587v19.78M219.864 71.367h21.18M241.044 71.367l-21.18-19.78M241.044 51.587l-21.18 19.78M288.364 104.907h-19.77M268.595 104.907v7.061M268.595 111.968h19.77M288.364 111.968v-7.061M268.595 111.968l19.77-7.061M268.595 104.907l19.77 7.061M173.954 79.487h39.55M213.504 79.487v-67.8M213.504 11.687h-39.55M173.954 11.687v67.8M176.074 77.367h35.311M211.385 77.367v-63.56M211.385 13.807h-35.311M176.074 13.807v63.56M286.954 79.487h-39.55M247.404 79.487v-67.8M247.404 11.687h39.55M286.954 11.687v67.8M284.834 77.367h-35.31M249.524 77.367v-63.56M249.524 13.807h35.31M284.834 13.807v63.56M265.765 82.307h-70.62M195.144 82.307v18.36M195.144 100.667h70.62M265.765 100.667v-18.36M263.644 84.428h-66.38M197.265 84.428v14.13M197.265 98.557h66.38M263.644 98.557v-14.13M172.544 104.907h19.78M192.324 104.907v7.061M192.324 111.968h-19.78M172.544 111.968v-7.061M192.324 111.968l-19.78-7.061M192.324 104.907l-19.78 7.061M268.595 104.907h19.77M288.364 104.907v-22.6M288.364 82.307h-19.77M268.595 82.307v22.6M270.715 102.787h15.529M286.244 102.787V84.428M286.244 84.428h-15.529M270.715 84.428v18.359M192.324 104.907h-19.78M172.544 104.907v-22.6M172.544 82.307h19.78M192.324 82.307v22.6M190.204 102.787h-15.54M174.664 102.787V84.428M174.664 84.428h15.54M190.204 84.428v18.359M248.815 108.437a.71.71 0 1 1 0 1.42.71.71 0 0 1 0-1.42zM249.574 103.447l-1.5 1.5M248.824 103.138a1.06 1.06 0 1 1 0 2.121 1.06 1.06 0 0 1 0-2.121zM249.574 105.567l-1.5 1.5"/><path d="M248.824 105.258a1.06 1.06 0 1 1 .002 2.12 1.06 1.06 0 0 1-.002-2.12zM248.824 107.377v1.06M248.815 109.147h1.95M209.504 10.987a.56.56 0 1 1 0 1.121.56.56 0 0 1 0-1.12zM200.794 12.817l8.02 4.77M200.794 12.817h9.89M210.685 10.277v2.54M217.744 110.557h-21.189M196.555 110.557v-5.65M196.555 104.907h21.189M217.744 104.907v5.65M197.614 105.617v1.41M197.614 107.027h1.42M199.034 107.027v-1.41M199.034 105.617h-1.42M197.614 106.607h1.42M199.654 105.207a.18.18 0 1 1 0 .36.18.18 0 0 1 0-.36zM204.675 110.557h8.479M213.154 110.557v-2.83M213.154 107.727h-8.479M204.675 107.727v2.83M216.685 109.848v-2.82M216.685 107.027h-1.41M215.274 107.027v2.82M215.274 109.848h1.41M214.215 110.557v-5.65M214.215 104.907h3.529M217.744 104.907v5.65M217.744 110.557h-3.529M199.734 108.087v1.41M199.734 109.497h2.83M202.565 109.497v-1.41M202.565 108.087h-2.83M201.144 109.497v-1.41M203.614 107.027v3.53M203.614 110.557h-7.06M196.555 110.557v-5.65M196.555 104.907h3.54M200.095 104.907v2.12M200.095 107.027h3.52M217.204 105.388v.75M217.204 105.758h.54M241.044 105.617v-.71M241.044 104.907h.71M241.754 104.907v.71M241.754 105.617h-.71M238.225 108.017h-12.71M225.515 108.017v2.54M225.515 110.557h12.71M238.225 110.557v-2.54M242.105 106.317v1.41M242.105 107.727h-1.41M240.694 107.727v-1.41M240.694 106.317h1.41M242.105 109.848h-1.41M240.694 109.848v-1.41M240.694 108.437h1.41M242.105 108.437v1.41M242.624 103.987v.75M242.624 104.367h.54M223.394 109.147v-4.24M223.394 104.907h-2.12M221.274 104.907v4.24M221.274 109.147h2.12M239.635 103.497h3.529M243.164 103.497v7.061M243.164 110.557h-3.529M239.635 110.557v-7.06M220.574 103.497h3.53M224.105 103.497v7.061M224.105 110.557h-3.53M220.574 110.557v-7.06M157.004 55.477h-28.24M121.705 165.647h39.54M237.234 14.867v2.47M237.234 17.337h-13.56M223.675 17.337v-2.47M223.675 14.867h13.56M241.044 19.807v19.78M241.044 39.587h-21.18M219.864 39.587v-19.78M219.864 19.807h21.18M241.044 19.807l-21.18 19.78M241.044 39.587l-21.18-19.78M279.894 164.227h-25.43M251.794 180.477v-11.3M251.794 169.178h-4.24M247.555 169.178v11.3M247.555 180.477h4.239M251.794 180.477l-1.44-3.6M251.794 169.178l-1.62 4.06M249.185 173.237l-1.63-4.06M249.004 176.877l-1.45 3.6M159.834 100.697v7.95M159.834 108.647h-18.54M141.294 108.647v-7.95M141.294 100.697h18.54M155.594 11.687v16.24M46.415 62.888h-2.4M44.014 63.307c0-.23.19-.42.42-.42M44.014 63.307v5.51M44.435 69.247a.422.422 0 0 1-.42-.42M44.014 69.247h2.4M46.844 63.307v5.51M46.415 62.888c.23 0 .42.189.42.42M46.844 68.817c0 .23-.19.42-.42.42M44.014 62.888l-6.49 1.3M36.955 64.877c0-.34.24-.63.57-.69M36.955 64.877v2.38M37.524 67.947a.714.714 0 0 1-.57-.689M37.524 67.947l6.49 1.3M42.685 63.587l-5.08 1.02M37.374 64.877c0-.13.1-.25.23-.28M37.374 64.877v2.38M37.605 67.527a.289.289 0 0 1-.23-.28M37.605 67.527l5.08 1.02M43.024 68.267c0 .16-.13.28-.28.28-.02 0-.04 0-.05-.01M43.024 68.267v-4.4M42.685 63.587c.15-.03.3.07.33.22 0 .02.01.04.01.05M41.194 95.017h5.65M46.844 95.017v-22.6M46.844 72.417h-5.65M41.194 72.417v7.42M41.194 87.607v7.41M44.724 87.607h-5.65M44.294 87.187h-4.8M44.724 79.837h-5.65M44.294 80.258h-4.8M39.074 87.607v-7.77M39.494 87.187v-6.93M44.724 79.837v3.67M44.724 83.937v3.67M44.294 80.258v3.25M44.294 83.937v3.25M43.304 83.937h2.51M43.304 83.508h2.51M43.304 83.937v-.43M45.494 82.727a.32.32 0 1 1 .001.64.32.32 0 0 1 0-.64zM45.494 84.067a.32.32 0 1 1 0 .64.32.32 0 0 1 0-.64zM45.494 83.227v-.35M45.674 83.047h-.35M45.494 84.218v.35M45.674 84.388h-.35M29.185 59.707v2.12M28.764 59.707v2.12M29.185 61.827h-.42M28.125 62.678h1.7M28.125 60.977v1.7M29.824 60.977v1.7M29.185 59.707v2.12M28.764 59.707v2.12M29.185 61.827h-.42M28.125 62.678h1.7M28.125 60.977v1.7M29.824 60.977v1.7M63.794 174.117v2.82M63.794 176.937h-11.3M52.494 176.937v-2.82M94.864 48.407v-1.41M94.864 46.997h-11.3M83.564 46.997v1.41M45.424 48.407v-1.41M45.424 46.997h12.72M58.145 46.997v1.41M111.814 28.638v-1.41M111.814 27.227h11.3M123.114 27.227v1.41M171.135 28.638v-1.41M171.135 27.227h-11.3M159.834 27.227v1.41M289.774 28.638v-1.41M104.754 179.768H8.704M8.705 179.768v-24.01M8.705 155.758h7.77M16.474 155.758v-55.091M42.605 54.057h-34.7M42.605 54.057v-9.88M42.605 44.178h66.38M108.984 44.178v-19.78M108.984 24.397h46.61M22.824 174.117v2.82M22.824 176.937h-11.3M11.524 176.937v-2.82M159.834 27.928h-36.72M291.194 186.827h.18M291.194 185.417h.18M279.894 186.827h-25.43M279.894 185.417h-25.43M254.465 164.227v19.78M253.055 164.227v19.78M206.444 186.827v2.83M206.444 189.657h11.3M217.744 189.657v-2.83M169.725 186.827v2.83M169.725 189.657h11.3M181.024 189.657v-2.83M206.444 187.537h-25.42M162.665 187.537h-48.03M254.465 186.827v2.83M254.465 189.657h-11.301M243.164 189.657v-2.83M291.194 186.827v2.83M291.194 189.657h-11.3M279.894 189.657v-2.83M254.465 187.537h25.43M154.894 11.687v12.71M103.335 188.247v1.41M103.335 189.657h11.3M114.634 189.657v-1.41M104.044 179.768v5.649M14.354 161.407l1.46 7.95M15.815 169.357l4.19 1.94M229.754 150.107h-12.01M231.164 150.107h12M231.954 141.218l7.99 7.989M239.944 149.207l2.99-3M242.935 146.207l-7.99-7.989M234.944 138.218l-2.99 3M231.954 141.218l3.561 1.52M239.944 149.207l-1.729-4.029M238.914 144.487l4.021 1.72M236.475 141.777l-1.53-3.56M228.965 141.218l-7.99 7.989M220.975 149.207l-3-3M217.975 146.207l7.99-7.989M225.965 138.218l3 3M228.965 141.218l-3.561 1.52M220.975 149.207l1.72-4.029M221.994 144.487l-4.02 1.72M224.435 141.777l1.53-3.56M63.794 171.297h11.3M75.094 171.297v-4.24M75.094 167.058h-11.3M63.794 167.058v4.239M63.794 171.297l3.59-1.44M75.094 171.297l-4.07-1.63M71.024 168.687l4.07-1.63M67.384 168.497l-3.59-1.439M123.114 28.638v2.819M123.114 31.457h-8.48M114.634 31.457v64.98M114.634 96.437h-2.82M111.814 96.437v-67.8M111.814 28.638h11.3M173.954 28.638v53.67M173.954 82.307h-2.819M171.135 82.307v-50.85M171.135 31.457h-8.48M162.654 31.457v-2.819M162.654 28.638h11.3M94.864 48.407v11.3M94.864 59.707h-7.07M87.794 59.707v-11.3M87.794 48.407h7.07M55.315 48.407v2.83M55.315 51.237h-7.06M48.254 51.237v8.47M48.254 59.707h-28.25M20.004 59.707v-2.819M20.004 56.888h25.42M45.424 56.888v-8.48M45.424 48.407h9.89M289.774 31.457h1.6M289.774 31.457v50.851M289.774 82.307h-2.82M286.954 82.307v-53.67M173.965 142.337v23.31M173.965 165.647l-.011 2.82M173.954 168.468h-5.649M168.305 168.468v-5.65M168.305 162.817h2.83M171.135 162.817v-20.48M171.135 142.337h2.83M217.744 158.577h2.82M220.565 158.577v5.65M220.565 164.227h-5.65M214.914 164.227v-29.66M214.914 134.567h2.83M217.744 134.567v24.01M245.994 134.567v29.66M245.994 164.227h-5.649M240.345 164.227v-5.65M240.345 158.577h2.819M243.164 158.577v-24.01M243.164 134.567h2.83M114.634 162.817v8.48M114.634 171.297h-11.3M103.335 171.297v-8.48M103.335 162.817h11.3M286.954 168.468h4.42M286.954 168.468v-26.131M286.954 142.337h2.82M289.774 142.337v20.48M31.304 93.607v2.83M31.304 96.437h-8.48M22.824 96.437v69.21M22.824 165.647h-7.06M15.764 165.647v-7.07M15.764 158.577h3.53M19.294 158.577v-64.97M19.294 93.607h12.01M247.404 20.157v-11.3M247.404 8.857h-33.9M213.504 8.857v11.3M213.504 20.157h2.82M216.324 20.157v-8.47M216.324 11.687h28.26M244.584 11.687v8.47M244.584 20.157h2.82M244.584 71.008h2.82M247.404 71.008v11.3M247.404 82.307h-33.9M213.504 82.307v-11.3M213.504 71.008h2.82M216.324 71.008v8.479M216.324 79.487h28.26M244.584 79.487v-8.479M245.994 110.557v2.83M245.994 113.388h-14.13M231.864 113.388v7.06M231.864 120.447h-2.82M229.044 120.447v-7.06M229.044 113.388h-14.13M214.914 113.388v-2.83M214.914 110.557h31.08M290.484 11.687h.89M170.425 3.218v8.47M170.425 11.687h-5.65M164.774 11.687v-8.47M164.774 3.218h5.65M172.544 82.307v7.06M172.544 89.367h-1.41M171.135 89.367v-8.47M270.004 111.968h18.36M271.414 113.388h16.95M219.154 113.388h9.89M220.574 110.557h9.88M111.814 55.477v-26.84M114.634 55.477v-24.02M89.214 59.707h9.18M98.394 59.707v-2.819M98.394 56.888h-7.77M111.814 56.888h-3.53M108.284 56.888v2.819M108.284 59.707h4.94M108.284 56.888v2.819M108.284 59.707h-9.89M98.394 59.707v-2.819M98.394 56.888h9.89M98.394 58.767h9.89M98.394 57.827h9.89M87.794 95.017v-36.72M89.214 95.017v-35.31M45.424 48.407h12.71M58.134 48.407v2.83M58.134 51.237h-9.88M90.624 48.407h-7.06M83.564 48.407v2.83M83.564 51.237h4.23M83.564 48.407v2.83M83.564 51.237h-25.43M58.134 51.237v-2.83M58.134 48.407h25.43M58.134 50.297h25.43M58.134 49.357h25.43M103.335 188.247h11.3M106.165 186.827h7.06M113.225 186.827v-1.41M113.225 185.417h1.41M114.634 185.417v2.83M114.634 165.647v5.65M114.634 171.297h-1.41M113.225 171.297v-5.65M113.935 185.417l4.99-4.99M113.935 171.297l4.99 4.99M113.935 178.357c1.87 0 3.67-.74 5-2.07M118.924 180.428a7.077 7.077 0 0 0-5-2.07M103.335 171.297v-8.48M106.165 172.707v-7.06M216.334 134.567h2.82M219.154 134.567v2.83M219.154 137.397h-1.41M229.044 134.567v2.83M229.044 137.397h.71M229.044 134.567v2.83M229.044 137.397h-9.89M219.154 137.397v-2.83M219.154 134.567h9.89M219.154 136.457h9.89M219.154 135.508h9.89M111.814 56.888v-1.41M114.634 58.297v-1.41M89.214 96.437h9.89M99.105 96.437v-1.42M99.105 95.017h-9.89M113.225 95.017h-2.83M110.394 95.017v1.42M110.394 96.437h4.24M110.394 95.727v-11.02M110.394 84.707h-.56M109.835 84.707v11.021M109.835 95.727h.56M109.835 84.718c-5.97.149-10.73 5.04-10.73 11.01M87.794 58.297v-7.06M90.624 56.888v-8.48M70.855 95.017h2.82M73.674 95.017v1.42M73.674 96.437h-1.41M87.794 95.017h-1.41M86.384 95.017v1.42M86.384 96.437h2.83M86.384 95.727v-12.4M86.384 83.327h-.63M85.754 83.327v12.4M85.754 95.727h.63M85.754 83.337c-6.72.17-12.08 5.67-12.08 12.39M46.844 96.437h24.01M48.254 95.017h22.6M70.855 162.817v-50.85M72.264 162.817v-49.43M70.855 111.968v-1.41M70.855 110.557h1.41M72.264 110.557v1.41M72.264 96.437v1.41M72.264 97.848h-1.41M70.855 97.848v-1.41M71.554 97.848v.63M71.554 98.477h-12.39M59.165 98.477v-.63M59.165 97.848h12.39M59.165 98.477c.17 6.72 5.67 12.08 12.39 12.08M72.264 113.388h1.41M73.674 113.388v-1.42M73.674 111.968h-1.41M114.634 111.968h-28.25M86.384 111.968v1.42M86.384 113.388h26.84M74.314 125.067v-12.39M74.314 112.678h-.64M73.674 112.678v12.39M73.674 125.067h.64M74.314 125.067c6.72-.17 12.08-5.67 12.08-12.39M114.634 165.647h7.07M121.705 165.647v-2.83M121.705 162.817h-7.07M171.135 162.817h-9.891M161.244 162.817v2.83M161.244 165.647h12.71M121.705 164.227h11.12M132.824 164.227v-.39M132.824 163.837h-11.12M121.705 163.837v.39M121.705 164.227v-.55M152.844 164.227v.44M152.844 164.667h-22.74M130.105 164.667v-.44M130.105 164.227h22.74M134.134 163.707h5.87M140.004 163.707l-2.56-.21M137.444 163.497v.21M141.475 164.667v-.44M145.504 163.707v-.21M145.504 163.497l-2.56.21M142.944 163.707h5.87M161.244 163.837v.39M161.244 164.227h-11.12M150.125 164.227v-.39M150.125 163.837h11.12M113.225 162.817v-49.43M114.634 162.817v-50.85M184.234 114.797v.63M184.234 115.428h-12.4M171.834 115.428v-.631M171.834 114.797h12.4M171.845 127.508c6.72 0 12.22-5.36 12.39-12.08M189.494 135.977v-2.82M189.494 133.157h1.41M190.904 133.157v1.41M190.904 113.388v8.47M190.904 121.857h-1.41M189.494 121.857v-8.47M201.225 132.598v.56M201.225 133.157h-11.021M190.204 133.157v-.56M190.204 132.598h11.021M201.215 132.598c-.15-5.971-5.04-10.74-11.021-10.73M189.494 135.977h25.431M190.904 134.567h25.43M52.494 171.297v-8.48M55.315 172.707v-7.06M53.904 174.117h9.88M63.784 174.117v-1.41M63.784 172.707h-8.47M76.504 174.117v-1.41M76.504 172.707v1.41M76.504 174.117h-12.72M63.784 174.117v-1.41M63.784 172.707h12.72M63.784 173.647h12.72M63.784 173.527l.62-.35M63.784 173.178h12.72M76.504 173.178l-.82.47M64.444 173.647l.82-.47M65.314 173.647l.82-.47M66.174 173.647l.82-.47M67.044 173.647l.81-.47M67.904 173.647l.82-.47M68.774 173.647l.81-.47M69.634 173.647l.82-.47M70.504 173.647l.81-.47M71.364 173.647l.81-.47M72.224 173.647l.82-.47M73.094 173.647l.81-.47M73.955 173.647l.82-.47M74.824 173.647l.81-.47M173.954 165.647v-1.42M76.504 172.707v-7.06M77.915 171.297v-8.48M103.335 162.817h9.89M106.165 165.647h7.06M52.494 162.817h18.36M55.315 165.647h15.54M70.855 165.647h5.65M72.264 162.817h5.65M76.504 174.117h1.41M77.915 174.117v-2.82M103.335 174.117v-2.82M103.335 171.297v2.82M103.335 174.117h-25.42M77.915 174.117v-2.82M77.915 171.297h25.42M77.915 173.178h25.42M77.915 172.237h25.42M11.524 174.117h9.89M14.354 171.297h5.65M52.494 171.297v2.82M52.494 174.117h-29.67M22.824 174.117v-2.82M22.824 171.297h29.67M22.824 173.178h29.67M22.824 172.237h29.67M214.925 184.008h-8.48M206.444 184.008v2.819M206.444 186.827h11.3M181.024 186.827v-2.819M181.024 184.008h-11.3M169.725 184.008v2.819M169.725 186.827h11.3M114.634 56.888h14.13M128.764 56.888v-1.41M128.764 55.477h-14.13M171.135 55.477h-14.13M157.004 55.477v1.41M157.004 56.888h14.13M136.705 56.178v.199M136.705 56.377h-7.94M128.764 56.377v-.2M128.764 56.178h7.94M151.004 55.957v.221M151.004 56.178h-16.24M134.764 56.178v-.221M134.764 55.957h16.24M137.644 56.437h4.19M141.834 56.437l-1.83.11M140.004 56.547v-.11M142.884 56.178v-.221M145.764 56.437v.11M145.764 56.547l-1.83-.11M143.935 56.437h4.2M157.004 56.457v-.279M157.004 56.178h-7.94M149.065 56.178v.199M149.065 56.377h7.94M157.004 56.377v-.2M171.135 79.487v-22.6M172.544 79.487h1.41M173.954 79.487v-24.01M113.225 95.017v-35.31M114.634 96.437v-38.14M46.844 95.017v-35.31M48.254 95.017v-36.72M229.044 134.567v-21.18M231.864 134.567v-21.18M231.164 137.397h.7M231.864 137.397v-2.83M244.584 134.567h-2.83M241.754 134.567v2.83M241.754 137.397h1.41M241.754 134.567v2.83M241.754 137.397h-9.89M231.864 137.397v-2.83M231.864 134.567h9.89M231.864 136.457h9.89M231.864 135.508h9.89M289.074 114.797v.63M289.074 115.428h-12.399M276.675 115.428v-.631M276.675 114.797h12.399M276.685 115.428c.17 6.72 5.67 12.08 12.39 12.08M270.004 134.567v-1.41M270.004 133.157h1.41M271.414 133.157v2.82M271.414 113.388v8.47M271.414 121.857h-1.41M270.004 121.857v-8.47M270.715 132.598v.56M270.715 133.157h-11.021M259.694 133.157v-.56M259.694 132.598h11.021M270.715 121.857c-5.971 0-10.86 4.76-11.011 10.73M244.584 134.567h25.42M245.994 135.977h25.42M289.774 55.477h1.6M267.185 113.388h2.819M268.595 111.968h1.409M286.954 55.477v24.01M286.954 79.487h1.41M289.774 79.487v-22.6M21.415 56.888h24.01M22.824 59.707h24.02M10.114 59.707v8.48M45.424 56.888v-8.48M48.254 58.297v-7.06M172.544 161.407h8.48M181.024 161.407v2.82M181.024 164.227h-7.07M214.925 161.407h-8.48M206.444 161.407v2.82M206.444 164.227h8.48M194.225 162.817v.35M194.225 163.167h-13.2M181.024 163.167v-.35M181.024 162.817h13.2M184.834 162.468h5.08M189.914 162.468l-2.08-.21M187.834 162.258v.21M206.444 162.817v-.35M206.444 162.468h-13.32M193.124 162.468v.35M193.124 162.817h13.32M202.635 163.167h-5.091M197.544 163.167l2.09.21M199.635 163.377v-.21M214.925 161.407v-25.43M217.744 162.817v-25.42M171.135 162.817v-35.31M171.135 127.508h1.409M172.544 127.508v33.899M172.544 113.388v1.409M172.544 114.797h-1.41M171.135 114.797v-2.83M243.164 162.817v-25.42M245.994 161.407v-25.43M288.364 161.407v-33.899M288.364 127.508h1.41M289.774 127.508v35.31M289.774 111.968v2.829M289.774 114.797h-1.41M288.364 114.797v-1.41M20.004 95.017v-7.06M20.004 87.957h2.82M22.824 87.957v7.061M22.824 59.707v8.48M22.824 68.187h-2.82M20.004 68.187v-8.48M21.415 68.187v.49M21.415 68.678h-9.64M11.774 68.678v-.49M11.774 68.187h9.64M11.784 68.678c.13 5.229 4.41 9.39 9.64 9.39M22.824 87.957v-9.89M22.824 78.067h-2.82M20.004 78.067v9.89M20.004 87.957h2.82M20.944 87.957v-9.89M21.884 87.957v-9.89M230.454 110.557h11.3M231.864 113.388h11.3M172.544 113.388h16.95M172.544 111.968h18.36M171.135 28.638v-2.83M171.135 25.807h2.819M173.954 25.807v4.24M171.135 11.687h2.819M173.954 25.807v-14.12M173.954 11.687h-2.819M171.135 11.687v14.12M171.135 25.807h2.819M172.074 25.807v-14.12M173.024 25.807v-14.12M286.954 30.047v-4.24M286.954 25.807h2.82M289.774 25.807v2.83M286.954 11.687h2.82M289.774 25.807v-14.12M289.774 11.687h-2.82M286.954 11.687v14.12M286.954 25.807h2.82M287.894 25.807v-14.12M288.845 25.807v-14.12M289.774 28.638h1.6M111.814 28.638h16.95M128.764 28.638v2.819M128.764 31.457h-14.13M171.135 28.638h-16.95M154.185 28.638v2.819M154.185 31.457h16.95M154.185 28.638v2.819M154.185 31.457h-25.42M128.764 31.457v-2.819M128.764 28.638h25.42M128.764 30.518h25.42M128.764 29.577h25.42M171.135 111.968v-7.061M171.135 104.907h1.409M172.544 104.907v7.061M289.774 80.897v8.47M289.774 89.367h-1.41M288.364 89.367v-7.06M288.364 111.968v-7.061M288.364 104.907h1.41M289.774 104.907v7.061M21.415 56.888H7.905M10.114 59.707h9.89M190.904 96.047v-15.15M190.904 80.897h-.77M190.135 80.897v15.15M190.135 96.047h.77M175.374 80.897c0 8.22 6.551 14.93 14.761 15.14M172.544 82.307h2.83M175.374 82.307v-2.82M175.374 79.487h-2.83M195.144 79.487h-4.24M190.904 79.487v2.82M190.904 82.307h1.42M192.324 111.968v-9.881M195.144 110.557v-8.47M213.504 82.307h33.9M216.334 79.487h28.25M216.334 46.997h28.25M216.334 44.178h28.25M244.584 44.178v-7.07M244.584 37.107h2.82M247.404 37.107v8.48M247.404 11.687v8.47M247.404 20.157h-2.82M244.584 20.157v-8.47M244.044 29.197v8.48M244.044 37.678h-.3M243.744 37.678v-8.48M243.744 29.197h.3M244.044 28.067v-8.47M244.044 19.598h-.3M243.744 19.598v8.47M243.744 28.067h.3M244.584 37.107v-16.95M213.504 45.587v-8.48M213.504 37.107h2.83M216.334 37.107v7.07M216.334 11.687v8.47M216.334 20.157h-2.83M213.504 20.157v-8.47M216.334 37.107v-16.95M217.164 29.197v8.48M217.164 37.678h-.3M216.864 37.678v-8.48M216.864 29.197h.3M217.164 28.067v-8.47M217.164 19.598h-.3M216.864 19.598v8.47M216.864 28.067h.3M244.584 79.487v-8.479M244.584 71.008h2.82M247.404 71.008v11.3M247.404 45.587v8.47M247.404 54.057h-2.82M244.584 54.057v-7.06M244.044 71.577v-8.479M244.044 63.098h-.3M243.744 63.098v8.479M243.744 71.577h.3M244.044 53.497v8.471M244.044 61.968h-.3M243.744 61.968v-8.471M243.744 53.497h.3M244.584 71.008v-16.95M213.504 82.307v-11.3M213.504 71.008h2.83M216.334 71.008v8.479M216.334 46.997v7.061M216.334 54.057h-2.83M213.504 54.057v-8.47M216.334 71.008v-16.95M217.164 71.577v-8.479M217.164 63.098h-.3M216.864 63.098v8.479M216.864 71.577h.3M217.164 53.497v8.471M217.164 61.968h-.3M216.864 61.968v-8.471M216.864 53.497h.3M167.605 11.687v-5.65M170.425 8.867v-4.24M248.815 101.377l6-5.99M259.774 95.388l5.99 5.989M257.294 101.377c0-2.25-.89-4.4-2.48-5.99"/><path d="M259.774 95.388a8.459 8.459 0 0 0-2.48 5.989M219.154 100.667h3.53M222.685 100.667v1.42M222.685 102.087h-2.11M243.164 100.667h-3.529M239.635 100.667v1.42M239.635 102.087h2.119M222.685 101.377l5.99-5.99M233.644 95.388l5.99 5.989M233.644 95.388a8.459 8.459 0 0 0-2.48 5.989"/><path d="M231.164 101.377c0-2.25-.89-4.4-2.479-5.99M217.744 110.557v-8.47M220.574 110.557v-8.47M265.765 110.557v-8.47M268.595 111.968v-9.881M270.784 96.047v-15.15M270.784 80.897h-.78M270.004 80.897v15.15M270.004 96.047h.78M270.784 96.037c8.21-.21 14.76-6.93 14.76-15.14M265.765 79.487h4.239M270.004 79.487v2.82M270.004 82.307h-1.41M288.364 79.487h-2.82M285.544 79.487v2.82M285.544 82.307h2.82M265.765 100.667v-21.18M268.595 102.087v-19.78M192.324 102.087v-19.78M195.144 100.667v-21.18M286.244 8.867v2.82M286.244 11.687h-7.06M279.185 11.687v-2.82M279.185 8.867h7.06M279.185 10.747h7.06M286.244 10.747l-.45-.939M279.185 10.037l.34.71M279.185 9.807h7.06M279.555 9.807l.449.94M280.034 9.807l.45.94M280.515 9.807l.45.94M280.994 9.807l.45.94M281.475 9.807l.45.94M281.954 9.807l.45.94M282.435 9.807l.45.94M282.914 9.807l.45.94M283.394 9.807l.45.94M283.874 9.807l.45.94M284.354 9.807l.45.94M284.834 9.807l.45.94M285.315 9.807l.45.94M195.144 102.087h2.83M197.975 102.087v-1.42M197.975 100.667h-2.83M219.154 100.667h-4.229M214.925 100.667v1.42M214.925 102.087h2.819M197.975 101.377l5.99-5.99M208.925 95.388l6 5.989M208.925 95.388a8.454 8.454 0 0 0-2.48 5.989M206.444 101.377c0-2.25-.89-4.4-2.479-5.99M241.754 110.557v-8.47M244.584 110.557v-8.47M243.164 100.667h5.65M248.815 100.667v1.42M248.815 102.087h-4.23M265.765 102.087v-1.42M171.135 80.897v-1.41M289.774 80.897v-1.41M190.904 113.388h2.83M190.904 111.968h1.42M193.734 113.388h25.42M195.144 110.557h22.6M243.164 113.388h24.021M244.584 110.557h21.181M171.135 55.477v-24.02M173.954 55.477v-25.43M286.954 55.477v-25.43M289.774 55.477v-24.02M288.364 8.867h2.12M245.994 8.867h14.83M260.824 8.867v2.82M260.824 11.687h-13.42M277.774 8.867h-1.41M276.364 8.867v2.82M276.364 11.687h2.82M214.925 8.867h31.069M216.334 11.687h28.25M167.605 11.687h3.53M170.425 8.867h2.119M289.774 162.817h1.6M286.954 165.647v-1.42M243.164 186.827h11.301M254.465 186.827v-2.819M254.465 184.008h-8.471M291.194 186.827v-2.819M291.194 184.008h-11.3M279.894 184.008v2.819M279.894 186.827h11.3M245.994 164.227h8.471M254.465 164.227v-2.82M254.465 161.407h-8.471M288.364 161.407h-8.47M279.894 161.407v2.82M279.894 164.227h7.06M267.794 162.468v.35M267.794 162.817h-13.33M254.465 162.817v-.35M254.465 162.468h13.329M258.284 163.167h5.08M263.364 163.167l-2.08.21M261.284 163.377v-.21M279.894 163.167v-.35M279.894 162.817h-13.2M266.694 162.817v.35M266.694 163.167h13.2M276.074 162.468h-5.08M270.994 162.468l2.08-.21M273.074 162.258v.21M103.614 106.157h-24.98M78.634 106.157l4.24 4.23M82.874 110.388l4.23-4.23M154.185 3.218h13.42M157.004 6.037h10.6M157.004 6.037v5.65M157.004 11.687h-2.82M154.185 11.687v-8.47M205.635 63.277h-24.98M180.654 63.277l4.24 4.24M184.894 67.517l4.23-4.24M22.824 96.437h8.48M31.304 96.437v-1.42M31.304 95.017h-8.48M46.844 95.017h-5.65M41.194 95.017v1.42M41.194 96.437h5.65M31.304 95.017v-.26M31.304 94.758h9.89M41.194 94.758v.26M31.304 94.957h9.89M35.455 95.107v.14M35.455 95.247l-.77-.14M34.685 95.107h3.54M20.004 158.577v-63.56M22.824 159.997v-63.56M21.415 174.117h1.41M22.824 174.117v-2.82M52.494 171.297v2.82M52.494 174.117h1.41M11.524 158.577h8.48M14.354 161.407h5.65M20.004 171.297v-9.89M22.824 171.297v-11.3M11.524 174.117v-15.54M14.354 171.297v-9.89M172.544 8.867h2.83M175.374 8.867v2.82M175.374 11.687h-1.42M214.925 8.867h-24.021M190.904 8.867v2.82M190.904 11.687h22.6M279.185 11.687v-2.82M288.364 8.867h-2.12M286.244 8.867v2.82M286.244 11.687h.71M214.925 184.008v-3.53M214.925 180.477h2.819M217.744 180.477v6.35M217.744 162.817v6.36M217.744 169.178h-2.819M214.925 169.178v-4.95M217.744 180.477v-11.3M217.744 169.178h-2.819M214.925 169.178v11.3M214.925 180.477h2.819M215.864 180.477v-11.3M215.864 179.888l.94-.721M215.864 179.117l.94-.72M215.864 178.348l.94-.721M215.864 177.577l.94-.72M215.864 176.808l.94-.721M215.864 176.047l.94-.73M215.864 175.277l.94-.73M215.864 174.508l.94-.721M215.864 173.737l.94-.72M215.864 172.968l.94-.721M215.864 172.207l.94-.729M215.864 171.437l.94-.73M215.864 170.667l.94-.73M215.864 169.897l.94-.72M216.805 169.178v11.3M216.095 180.477l.71-.55M103.335 174.117v1.41M103.335 175.527h1.42M106.165 175.527v-2.82M104.754 185.417h1.41M104.754 175.527h1.41M106.165 185.417v-9.89M106.165 175.527h-1.41M104.754 175.527v9.89M104.754 185.417h1.41M105.224 185.417v-9.89M105.224 175.527l.47.64M105.224 184.937l.35.48M105.224 184.268l.47.64M105.224 183.598l.47.63M105.224 182.928l.47.63M105.224 182.247l.47.641M105.224 181.577l.47.641M105.224 180.907l.47.63M105.224 180.237l.47.63M105.224 179.567l.47.63M105.224 178.888l.47.64M105.224 178.218l.47.63M105.224 177.547l.47.63M105.224 176.877l.47.63M105.224 176.197l.47.64M105.694 185.417v-9.89M103.335 188.247v-2.83M103.335 185.417h1.42M106.165 186.827v-1.41M243.164 186.827v-6.35M243.164 180.477h2.83M245.994 180.477v3.53M245.994 164.227v4.95M245.994 169.178h-2.83M243.164 169.178v-6.36M245.994 180.477v-11.3M245.994 169.178h-2.83M243.164 169.178v11.3M243.164 180.477h2.83M244.114 180.477v-11.3M244.114 179.888l.94-.721M244.114 179.117l.94-.72M244.114 178.348l.94-.721M244.114 177.577l.94-.72M244.114 176.808l.94-.721M244.114 176.047l.94-.73M244.114 175.277l.94-.73M244.114 174.508l.94-.721M244.114 173.737l.94-.72M244.114 172.968l.94-.721M244.114 172.207l.94-.729M244.114 171.437l.94-.73M244.114 170.667l.94-.73M244.114 169.897l.94-.72M245.055 169.178v11.3M244.345 180.477l.71-.55M231.164 137.397v12.71M231.164 150.107h-1.41M229.754 150.107v-12.71"/></g></g></svg>