<svg xmlns="http://www.w3.org/2000/svg" width="415.589" height="110.587" viewBox="0 0 311.692 82.941"><g data-name="图层 1"><path stroke-width=".25" stroke-miterlimit="10" fill="none" stroke="#2c292a" d="M6.636 6.31h47.075M30.79 11.214h14.099V30.83H15.465V11.214h14.099"/><path stroke-width=".25" stroke-miterlimit="10" fill="none" stroke="#2c292a" d="M30.79 12.44h11.647v17.164h-24.52V12.44h11.647"/><clipPath id="a"><path transform="matrix(1 0 0 -1 0 82.94)" d="M0 82.941h311.692V0H0z"/></clipPath><g clip-path="url(#a)" stroke-width=".25" stroke-miterlimit="10" fill="none" stroke="#2c292a"><path d="M30.176 19.796a1.226 1.226 0 1 1 0 2.453 1.226 1.226 0 0 1 0-2.453zM32.505 6.31h-4.659v1.227h4.659zM23.678 7.782h2.942v.735h-2.942zM24.904 6.31h.49v1.472h-.49zM36.674 7.782h-2.943v.735h2.943zM35.448 6.31h-.491v1.472h.491zM30.79 16.119V7.537M29.564 16.119V7.537M29.564 16.119a.613.613 0 0 0 1.226 0"/><path d="M53.711 35.703H6.636V6.31h47.075z"/><path d="M30.176 12.44a3.678 3.678 0 1 1 0 7.357 3.678 3.678 0 0 1 0-7.357zM91.548 14.462h-14.09v19.616h29.42V14.462h-14.1"/><path d="M91.548 15.688h-11.64v17.164h24.52V15.688h-11.65"/><path d="M90.942 24.27a1.226 1.226 0 1 1 2.453 0 1.226 1.226 0 0 1-2.453 0zM89.838 9.558h4.66v1.226h-4.66zM98.668 11.03h-2.95v.736h2.95zM97.438 9.558h-.49v1.47h.49zM85.668 11.03h2.94v.736h-2.94zM86.898 9.558h.49v1.47h-.49zM91.548 19.366v-8.582M92.778 19.366v-8.582M92.778 19.366a.615.615 0 0 1-1.23 0"/><path d="M84.36 11.613a3.677 3.677 0 1 1 7.356 0 3.678 3.678 0 0 1-7.356 0zM94.15 11.613a3.677 3.677 0 1 1 7.356 0 3.678 3.678 0 0 1-7.356 0zM175.339 8.789h-44.127v24.51h44.127zM153.782 11.069"/><path d="M155.853 11.1a8.388 8.388 0 0 0-1.364.38M154.216 9.89c.553.12 1.113.203 1.677.25M154.763 20.62a.98.98 0 1 1-1.96 0 .98.98 0 0 1 1.96 0zM153.97 11.859a8.181 8.181 0 0 0-1.399 1.27"/><path d="M152.064 12.729a.332.332 0 0 0 .508.4M152.064 12.729a8.156 8.156 0 0 0 .9-1.66M153.332 13.85a.486.486 0 0 0 .901 0M154.49 11.479a18.305 18.305 0 0 0-.257 2.37M153.332 13.85c-.02-.462-.057-.923-.111-1.38"/><path d="M152.829 11.39a8.485 8.485 0 0 0-1.117-.29M154.6 11.069a.819.819 0 1 1-1.637 0 .819.819 0 0 1 1.638 0zM153.106 12.35c-.233.21-.454.433-.66.67M152.7 12.029a.519.519 0 0 0 .406.32M152.2 12.83c.181-.258.348-.525.5-.8"/><path d="M152.215 12.799a.165.165 0 0 0 .252.2M152.964 11.069v-.48M154.6 11.069v-.48M151.671 10.14a12.656 12.656 0 0 0 1.677-.25M154.6 10.589a.82.82 0 0 0-1.635 0M151.671 10.14a.493.493 0 0 0 .04.96M154.518 20.62a.736.736 0 1 1-1.471-.002.736.736 0 0 1 1.471.001z"/><path d="m154.456 11.68 3.85.7 3.624 1.94 2.546 3.06.829 3.36-.83 3.35-2.545 3.06-3.624 1.94-4.523.72-4.524-.72-3.623-1.94-2.546-3.06-.83-3.35.83-3.36 2.546-3.06 3.623-1.94 3.42-.67M155.853 11.1a.494.494 0 0 0 .04-.96M131.212 8.789h39.73M205.045 35.703h48.841M240.675 29.293l3.39-3.78 1.07-4.03-1.07-4.03-3.39-3.78-4.74-2.35-6.01-.89-6.02.89-4.74 2.35-3.39 3.78-1.07 4.03 1.07 4.03 3.39 3.78 4.74 2.36 6.02.88 6.01-.88 4.74-2.36M230.015 13.494"/><path d="M227.356 11.663a1.3 1.3 0 1 0 0 2.6"/><path d="M227.356 13.916a.953.953 0 1 1 0-1.906.953.953 0 0 1 0 1.906zM232.675 13.58a.617.617 0 1 1 0-1.233.617.617 0 0 1 0 1.233zM231.095 14.264h1.58"/><path d="M232.675 14.264a1.3 1.3 0 1 0 0-2.6M228.856 12.604l.22 4.8.27.66.67.27.66-.27.28-.66.22-4.8-.72-.5h-.88l-.72.5"/><path d="M232.675 13.916a.953.953 0 1 1 0-1.906.953.953 0 0 1 0 1.906zM227.356 11.663h5.32M227.356 13.58a.617.617 0 1 1-.001-1.233.617.617 0 0 1 0 1.233zM227.356 14.264h1.57M230.015 23.22a.967.967 0 1 1 0-1.934.967.967 0 0 1 0 1.934z"/><path d="M230.015 22.975a.721.721 0 1 1 .001-1.443.721.721 0 0 1 0 1.443zM219.245 26.583l-2.01-3.66.34-4.16 2.58-3.29.99-.32h7.93"/><path d="M230.955 15.153h7.93l.99.32 2.58 3.29.34 4.16-2.01 3.66-4.87 3.59-5.9 1.32-5.9-1.32-4.87-3.59M253.877 35.703V6.923M253.877 6.924h-48.832M31.434 55.05v6.37M31.434 61.42a.49.49 0 0 1-.49.49M28.984 55.05v6.37M29.474 61.91a.49.49 0 0 1-.49-.49M30.944 54.56h-1.47M28.984 55.05a.49.49 0 0 1 .49-.49M30.944 54.56c.27 0 .49.22.49.49M30.944 61.91h-1.47"/><path d="M31.434 57.72h4.77l.33.02.11.57 1.19.7 3.59 2.42 1.63 2.73.56 4.01-1.1 3.94-2.73 2.88-4.18 1.76-5.45.6"/><path d="M28.984 57.72h-4.73l-.42.02-.09.55-1.15.7-3.58 2.36-1.66 2.71-.6 4 1.07 3.99 2.72 2.91 4.19 1.79 5.48.6"/><path d="m30.964 58.99 3.61.13 5.28 2.35 1.88 2.89.59 3.96-1.29 3.85-3.49 2.53-3.05 1.09-2.42.25-1.86-.01h-.05l-4.83-.37-3.25-1.33-3.19-2.86-.86-3.97.89-3.84 2.11-2.6 2.85-1.42 2.24-.58.59-.07h4.25"/><path d="M29.414 59.45h-.65l-1.66.12-4.6 1.15-3.3 3.62-.5 4.67 2.65 4.19 3.33 1.51 5.42.74h.16l5.42-.74 3.33-1.51 2.65-4.19-.5-4.67-3.3-3.62-4.6-1.15-1.65-.12h-2.2"/><path d="M29.577 63.83a.637.637 0 1 1 1.273 0 .637.637 0 0 1-1.273 0z"/><path d="M29.19 63.83a1.023 1.023 0 1 1 2.047 0 1.023 1.023 0 0 1-2.046 0zM44.774 53.32h.1M44.774 53.32h-.08M16.754 52.34v.1h-1.18v.88"/><path d="M15.474 53.32v-.98h1.28"/><path d="M44.774 53.32v-.44h-29.2v.44M15.584 52.34l-.11.11M15.804 52.34l-.09.1M16.024 52.34l-.09.1M15.574 52.58l-.1.09M15.574 52.8l-.1.09M16.254 52.34l-.1.1M15.574 53.02l-.1.09M16.474 52.34l-.1.1M15.574 53.24l-.09.08M16.694 52.34l-.1.1M43.604 52.4l.04.04M43.764 52.34l.1.1M43.984 52.34l.1.1M44.204 52.34l.1.1M44.424 52.34l.1.1M44.644 52.34l.1.1M44.774 53.13l.1.1M44.774 52.91l.1.1M44.774 52.69l.1.1M44.774 52.47l.1.1M44.864 52.34l.01.01"/><path d="M43.604 52.34v.1h1.17v.88"/><path d="M44.874 53.32v-.98h-1.27M43.604 52.44h-26.85M15.574 52.88h29.2"/><path d="M44.644 52.98h-28.92l-.05.05v.29l.24.05h28.54l.24-.05v-.29l-.05-.05M16.754 52.34h1.12v-1.42h24.55v1.42h1.18M15.474 53.32h.1M288.539 33.569l2.174-.16 4.262-1.03 3.02-1.59 2.545-2.5 1.057-2.41.19-1.07.012-1.29.028-3.11.065-7.31.017-2.02-.555-.15H275.219l-.14.59.03 2.63.03 3.72.03 3.72.03 2.62.07 1.1.69 2.1 2.03 2.62 5.8 2.93 3.58.55 1.14.06h.03"/><path d="M299.98 24.329v-9.46l-.31-1.77-.82-.46-1.115-.03H279.25l-1.11.03-.82.46-.31 1.77V24.329"/><path d="m299.985 24.569-.903 2.83-2.463 2.31-3.654 1.55-4.477.58-4.47-.58-3.65-1.55-2.47-2.31-.9-2.83.9-2.83 2.47-2.32 3.65-1.55 4.47-.58 4.477.58 3.654 1.55 2.463 2.32.903 2.83"/><path d="m290.082 20.719-1.494 1.51-1.49-1.51 1.49-1.5 1.494 1.5"/><path d="m289.559 20.719-.97.98-.97-.98.97-.97.97.97M289.459 14.619l-.87.88-.87-.88.87-.88.87.88M200.722 50.886h60.03v24.5h-60.03z"/><path d="M203.662 53.826h54.15v18.62h-54.15z"/><path d="M206.112 56.276h49.24v13.72h-49.24zM211.811 67.625l-.41-.41M212.251 67.845l-1.06-1.06M212.472 67.845l-1.31-1.31M212.691 67.845l-1.56-1.56M212.912 67.845l-1.73-1.73M213.061 67.785l-1.82-1.83M213.211 67.706l-1.91-1.91M213.352 67.625l-1.99-1.99M213.501 67.555l-2.04-2.04M213.612 67.445l-2.04-2.04M213.702 67.315l-2.01-2.01M213.792 67.186l-1.98-1.98M213.882 67.055l-1.95-1.94M213.961 66.915l-1.85-1.85M213.992 66.725l-1.7-1.7M214.012 66.525l-1.55-1.54M214.032 66.325l-1.35-1.35M213.972 66.045l-1-1M213.832 65.686l-.57-.57"/><path d="M212.582 67.895a1.47 1.47 0 1 1 0-2.94 1.47 1.47 0 0 1 0 2.94zM232.952 55.266a8.477 8.477 0 0 0-1.36.39M231.322 54.065c.55.12 1.108.204 1.67.25M231.072 56.035a8.157 8.157 0 0 0-1.4 1.27M229.172 56.905a.333.333 0 0 0 .5.4M229.172 56.905a8.174 8.174 0 0 0 .9-1.66M230.432 58.025a.486.486 0 0 0 .91 0M231.592 55.655a18.14 18.14 0 0 0-.25 2.37"/><path d="M230.432 58.025a18.497 18.497 0 0 0-.11-1.39M229.932 55.565a8.484 8.484 0 0 0-1.12-.3M230.882 56.053a.818.818 0 1 1 0-1.635.818.818 0 0 1 0 1.635zM230.211 56.516a8.474 8.474 0 0 0-.66.68M229.802 56.195a.52.52 0 0 0 .41.32M229.302 56.996c.182-.257.349-.524.5-.8M229.322 56.975a.165.165 0 0 0 .25.19M230.072 55.235v-.48M231.702 55.235v-.48M228.772 54.315a12.7 12.7 0 0 0 1.68-.25"/><path d="M231.702 54.755a.818.818 0 0 0-1.63 0M228.772 54.315a.493.493 0 0 0 .04.95M232.952 55.266a.494.494 0 0 0 .04-.95M210.902 55.266a8.477 8.477 0 0 0-1.36.39M209.272 54.065c.55.12 1.108.204 1.67.25M209.022 56.035a8.194 8.194 0 0 0-1.4 1.27M207.112 56.905a.332.332 0 0 0 .51.4M207.112 56.905a8.14 8.14 0 0 0 .91-1.66M208.382 58.025a.485.485 0 0 0 .9 0M209.542 55.655a18.312 18.312 0 0 0-.26 2.37"/><path d="M208.382 58.025a18.497 18.497 0 0 0-.11-1.39M207.882 55.565a8.484 8.484 0 0 0-1.12-.3M208.832 56.053a.818.818 0 1 1-.001-1.635.818.818 0 0 1 0 1.635zM208.162 56.516a8.306 8.306 0 0 0-.66.68M207.751 56.195c.07.172.226.294.41.32M207.251 56.996c.182-.257.35-.524.5-.8M207.272 56.975a.165.165 0 0 0 .25.19M208.022 55.235v-.48M209.652 55.235v-.48M206.722 54.315a12.7 12.7 0 0 0 1.68-.25"/><path d="M209.652 54.755a.818.818 0 0 0-1.63 0M206.722 54.315a.493.493 0 0 0 .04.95M210.902 55.266a.494.494 0 0 0 .04-.95M250.872 55.266c.463.092.918.222 1.36.39M252.501 54.065c-.55.12-1.108.204-1.67.25M252.751 56.035c.515.368.984.794 1.4 1.27M254.652 56.905a.332.332 0 0 1-.5.4M254.652 56.905a8.126 8.126 0 0 1-.9-1.66M253.392 58.025a.485.485 0 0 1-.9 0"/><path d="M252.231 55.655c.14.784.225 1.575.26 2.37M253.392 58.025c.019-.464.056-.928.11-1.39M253.892 55.565c.366-.125.74-.226 1.12-.3"/><path d="M252.941 56.053a.818.818 0 1 1 0-1.635.818.818 0 0 1 0 1.635zM253.612 56.516c.232.214.453.44.66.68M254.022 56.195a.52.52 0 0 1-.41.32M254.522 56.996a8.166 8.166 0 0 1-.5-.8M254.501 56.975a.165.165 0 0 1-.25.19M253.751 55.235v-.48M252.122 55.235v-.48M255.052 54.315a12.7 12.7 0 0 1-1.68-.25"/><path d="M252.122 54.755a.818.818 0 0 1 1.63 0M255.052 54.315a.493.493 0 0 1-.04.95M250.872 55.266a.494.494 0 0 1-.04-.95M239.461 51.376h2.45v-.49h-2.45zM240.441 53.336h.49v-1.96h-.49zM229.662 51.376h2.45v-.49h-2.45zM230.642 53.336h.49v-1.96h-.49zM222.312 51.376h-2.45v-.49h2.45zM221.332 53.336h-.49v-1.96h.49zM251.711 51.376h-2.45v-.49h2.45zM250.731 53.336h-.49v-1.96h.49zM212.512 51.376h-2.45v-.49h2.45zM211.532 53.336h-.49v-1.96h.49zM80.483 52.841l-1.43 3.811M79.053 56.652a14.929 14.929 0 0 0 8.104 17.074M103.85 52.858l1.43 3.819M83.467 53.942l17.496.006M102.696 54.68l2.757 2.808M81.809 54.595l-2.827 2.642M83.467 53.942c-.616 0-1.208.233-1.659.653M102.696 54.68a2.43 2.43 0 0 0-1.732-.732"/><path d="M80.54 63.711c1.202 6.421 7.38 10.652 13.802 9.451a11.829 11.829 0 0 0 9.449-9.437"/><path d="M85.323 57.962a4.86 4.86 0 0 0-4.783 5.75M103.79 63.725a4.86 4.86 0 0 0-4.773-5.75"/><path d="M97.554 73.535a14.928 14.928 0 0 0 7.727-16.858M87.157 73.726a12.158 12.158 0 0 0 10.396-.191M99.018 57.974l-13.695-.012M85.323 57.962l13.695.012M103.85 52.858l-23.367-.017M80.622 52.843l23.175.015M87.644 55.265a.795.795 0 1 1-.59 1.476.795.795 0 0 1 .59-1.476zM97.357 55.275a.794.794 0 1 1-.587 1.476.794.794 0 0 1 .587-1.476zM92.689 60.196a1.116 1.116 0 1 1-.825 2.075 1.116 1.116 0 0 1 .825-2.075z"/><path d="M92.844 59.806a1.535 1.535 0 0 1 .859 1.995 1.535 1.535 0 1 1-2.854-1.135 1.536 1.536 0 0 1 1.995-.86zM292.364 57.268a.795.795 0 1 1-.586 1.479.795.795 0 0 1 .586-1.479zM295.976 59.202h-4.906M288.383 57.27a.794.794 0 1 1-.586 1.48.796.796 0 0 1 .586-1.479zM289.09 59.203h-4.906M281.8 56.02c-.659 0-1.194.533-1.194 1.192v.002M291.27 57.614h-2.388M299.562 57.213a1.192 1.192 0 0 0-1.191-1.194h-.002M281.796 61.591l.002 8.35M298.365 69.939l-.002-8.35M284.185 72.329l11.792-.002M298.365 73.521l-16.568.001M281.798 69.94a2.386 2.386 0 0 0 2.383 2.39c.002-.002.003-.002.005-.002M280.603 72.328c0 .66.533 1.193 1.191 1.194h.003M290.523 64.458a1.193 1.193 0 1 1-.879 2.218 1.193 1.193 0 0 1 .88-2.218zM298.365 73.521a1.192 1.192 0 0 0 1.194-1.191v-.003M295.977 72.327a2.386 2.386 0 0 0 2.388-2.384v-.004M290.483 63.176l-.798.006M280.603 72.328l.003-15.114M299.562 57.213l-.002 15.114M289.685 63.182l-.794-4.779M291.28 58.403l-.797 4.773M284.185 59.204a2.386 2.386 0 0 0-2.39 2.383v.004M298.363 61.59a2.385 2.385 0 0 0-2.383-2.388h-.004M281.8 56.02h16.57M175.339 45.28h-44.127V74.7h44.127zM152.171 51.71"/><path d="M164.141 57.77c-1.773-2.21-6.272-3.714-11.4-3.81"/><path d="m143.141 55.71-1.41 4.16 1.27 4.2 3.8 3.25 5.42 1.24 5.42-1.24 3.8-3.25 1.27-4.2-1.41-4.16"/><path d="M152.221 70.765c-7.012 0-12.696-4.824-12.696-10.775 0-5.95 5.684-10.775 12.696-10.775s12.697 4.824 12.697 10.775c0 5.951-5.685 10.775-12.697 10.775z"/><path d="m140.011 59.99.92 3.91 2.63 3.33 3.96 2.25 4.7.79 4.7-.79 3.96-2.25 2.63-3.33.92-3.91-.92-3.91-2.63-3.34-3.96-2.24-4.7-.8-4.7.8-3.96 2.24-2.63 3.34-.92 3.91M152.221 57.95v4.08M150.421 59.99h3.68"/><path d="M152.221 61.135a1.145 1.145 0 1 1 .001-2.29 1.145 1.145 0 0 1 0 2.29zM148.761 53.301a1.011 1.011 0 1 1 .001-2.023 1.011 1.011 0 0 1 0 2.023zM155.681 53.301a1.011 1.011 0 1 1 .001-2.023 1.011 1.011 0 0 1 0 2.023zM152.151 52.497a.777.777 0 1 1 0-1.554.777.777 0 0 1 0 1.554z"/><path d="M148.761 53.056a.766.766 0 1 1 0-1.532.766.766 0 0 1 0 1.532zM155.681 53.056a.766.766 0 1 1 0-1.532.766.766 0 0 1 0 1.532zM151.621 55.39a.682.682 0 0 0 1.11 0M152.731 55.39l.19-3.67M151.621 55.39l-.25-3.67M151.561 53.96c-5.076.121-9.506 1.62-11.26 3.81M205.045 6.924v28.779"/></g></g></svg>