<svg xmlns="http://www.w3.org/2000/svg" width="340.14" height="340.157" viewBox="0 0 255.105 255.118"><g data-name="图层 1"><path stroke-width=".25" stroke-miterlimit="12.913" fill="none" stroke="#000" d="M126.732 148.273h27.706M126.732 135.479h27.706M127.61 147.761h26.828M128.293 141.62h25.166M126.732 135.479v12.794M127.61 135.479v12.794M136.156 146.142h.708v-8.6h-.708zM131.551 146.142h.708v-8.6h-.708zM134.878 137.545l-1.334 8.378.69.233 1.334-8.378-.69-.233zM140.335 146.142h.708v-8.6h-.708zM141.355 137.856l.701 8.54.704-.123-.702-8.54-.703.123zM144.607 137.545l-1.334 8.378.69.233 1.334-8.378-.69-.233zM152.237 146.142h.708v-8.6h-.708zM150.96 137.545l-1.335 8.378.69.233 1.334-8.378-.69-.233zM146.196 137.856l.701 8.54.704-.123-.702-8.54-.703.123zM148.482 146.142h.708v-8.6h-.708zM154.438 135.479v12.794M49.935 167.465H22.23M49.935 154.67H22.23M49.058 166.953H22.23M48.374 160.811H23.208M49.935 154.67v12.794M49.058 154.67v12.794M40.511 165.334h-.708v-8.601h.708zM45.117 165.334h-.708v-8.601h.708zM41.79 156.737l1.333 8.378-.69.233-1.334-8.378.69-.233zM36.333 165.334h-.708v-8.601h.708zM35.313 157.048l-.702 8.54-.703-.123.701-8.54.703.123zM32.06 156.737l1.334 8.378-.69.233-1.334-8.378.69-.233zM24.43 165.334h-.708v-8.601h.708zM25.708 156.737l1.334 8.378-.69.233-1.334-8.378.69-.233zM30.471 157.048l-.702 8.54-.703-.123.701-8.54.704.123zM28.185 165.334h-.708v-8.601h.708zM22.23 154.67v12.794M52.85 97.096H22.23M52.85 108.824H22.23M51.879 97.565h-29.65M51.123 103.194H23.311M52.85 108.824V97.096M51.879 108.824V97.096M42.434 99.049h-.783v7.883h.783zM47.523 99.049h-.783v7.883h.783zM43.846 106.93l1.474-7.68-.763-.214-1.474 7.68.763.214zM37.815 99.049h-.783v7.883h.783zM36.688 106.644l-.775-7.828-.777.113.775 7.827.777-.112zM33.094 106.93l1.474-7.68-.763-.214-1.474 7.68.763.214zM24.661 99.049h-.783v7.883h.783zM26.073 106.93l1.475-7.68-.763-.214-1.475 7.68.763.214zM31.338 106.644l-.775-7.828-.778.113.775 7.827.778-.112zM28.811 99.049h-.783v7.883h.783zM22.229 108.824V97.096M111.79 164.8h42.648M154.438 164.8v31.985M154.438 196.785H111.79M111.79 196.785V164.8M143.594 165.259h-31.118M112.476 196.28h22.43M120.459 171.356l-1.1-.795M119.36 170.561l1.978-1.223M123.041 177.21l-2.78-1.335M119.966 174.54l1.222-.352"/><clipPath id="a"><path transform="matrix(1 0 0 -1 0 255.118)" d="M0 255.118h255.105V0H0z"/></clipPath><g clip-path="url(#a)" stroke-miterlimit="12.913" fill="none"><path stroke-width=".25" stroke="#000" d="M120.679 165.833c.196-.08.37-.192.51-.331M121.466 165.397a.387.387 0 0 0-.278.104M121.57 165.447a.133.133 0 0 0-.104-.05M121.703 165.718a.837.837 0 0 0-.134-.271M121.734 166.02a.89.89 0 0 0-.031-.303M121.734 166.02a.965.965 0 0 0 .03.311M121.764 166.331c.095.352.22.698.373 1.037M122.137 167.368c.185.406.4.803.64 1.189M122.776 168.558l.36.57M123.503 169.713l-.367-.584M123.872 170.317a33.55 33.55 0 0 0-.369-.604M123.872 170.317c.15.251.302.501.456.75M124.328 171.068c.143.22.425.356.723.344M125.278 171.78c.09-.099.069-.24-.05-.319a.31.31 0 0 0-.177-.049M125.186 171.866c.032-.028.062-.057.091-.086M125.186 171.866a.681.681 0 0 0-.072.07M125.114 171.935a4.354 4.354 0 0 0-.112.125M124.855 172.224c.05-.054.099-.109.147-.164M124.524 172.548c.118-.103.228-.21.331-.324M124.295 172.715c.083-.05.16-.105.23-.167M123.945 172.787a.55.55 0 0 0 .35-.072M123.945 172.787a1.149 1.149 0 0 0-.509.053M123.436 172.84a23.13 23.13 0 0 0-.903.332M122.533 173.172c-.386.15-.77.306-1.147.468M121.385 173.64c-.493.209-.979.429-1.458.66M119.376 174.524c.19-.064.374-.139.551-.225M119.376 174.524l-1.2.41M118.175 174.934l-.926.315M117.249 175.249a.438.438 0 0 0-.284.258"/><path stroke-width=".25" stroke="#000" d="M116.776 175.51c.02.043.076.066.128.051a.09.09 0 0 0 .061-.054"/><path stroke-width=".25" stroke="#000" d="M116.766 175.444a.137.137 0 0 0 .01.066M116.766 175.444a.55.55 0 0 0-.005-.128M116.76 175.315a3.096 3.096 0 0 0-.098-.41M116.567 174.513c.021.132.053.263.094.393M116.559 174.244c-.008.09-.005.18.009.27M116.559 174.244a.979.979 0 0 0-.01-.258M116.549 173.985a1.862 1.862 0 0 0-.14-.45M116.409 173.535a51.833 51.833 0 0 0-1.097-2.234M115.312 171.3a87.68 87.68 0 0 0-.806-1.507M114.506 169.792a13.446 13.446 0 0 0-.35-.602M114.156 169.19a1.466 1.466 0 0 0-.268-.318M113.662 168.59c.057.104.134.199.227.282M113.593 168.333a.553.553 0 0 0 .069.257"/><path stroke-width=".25" stroke="#000" d="M113.659 168.258c-.04.01-.066.04-.066.076M113.8 168.29a.153.153 0 0 0-.141-.032M113.8 168.29a.331.331 0 0 0 .197.086M113.997 168.376c.073.007.147.009.22.007M114.217 168.383a.4.4 0 0 0 .097-.015M114.314 168.369a.955.955 0 0 0 .162-.063M114.476 168.305c.152-.077.302-.159.448-.245M114.924 168.06c.173-.102.336-.214.488-.337M115.738 167.516a1.672 1.672 0 0 0-.326.207M116.277 167.293a4.488 4.488 0 0 0-.54.223M118.07 166.721c-.602.18-1.2.37-1.793.572M118.895 166.485c-.275.076-.55.154-.825.236M118.895 166.485c.16-.043.317-.09.474-.139M119.369 166.346a4.26 4.26 0 0 0 .275-.097M119.644 166.249c.347-.136.692-.274 1.035-.416M122.87 173.044c.015.069.035.138.06.206M122.93 173.25c.275.77.571 1.537.887 2.298M123.817 175.548c.216.52.437 1.039.665 1.556M124.482 177.103c.092.21.19.417.293.623M124.775 177.726c.06.12.14.232.238.334M125.213 178.356a1.062 1.062 0 0 0-.2-.295M125.258 178.617a.54.54 0 0 0-.045-.261M125.185 178.688c.041-.007.07-.037.073-.071M125.047 178.645a.15.15 0 0 0 .138.042M125.047 178.645a.323.323 0 0 0-.188-.097M124.859 178.548a2.027 2.027 0 0 0-.22-.02M124.64 178.527a.402.402 0 0 0-.098.008M124.543 178.535a.855.855 0 0 0-.168.053M124.375 178.588a8.309 8.309 0 0 0-.469.215M123.906 178.804c-.182.09-.355.192-.518.305M123.044 179.294c.124-.05.24-.112.344-.186M122.486 179.482c.191-.051.378-.114.558-.187M120.645 179.938c.618-.14 1.232-.292 1.841-.456M119.8 180.12c.283-.058.564-.119.845-.183M119.8 180.12a11.29 11.29 0 0 0-.483.11M119.316 180.23c-.096.022-.19.048-.283.078M119.033 180.309c-.358.113-.715.229-1.07.349M117.963 180.657a1.624 1.624 0 0 0-.54.297M117.138 181.04a.397.397 0 0 0 .287-.085M117.04 180.985c.02.031.057.052.098.056M116.93 180.706a.82.82 0 0 0 .11.28M116.928 180.403a.887.887 0 0 0 .002.304M116.928 180.403a.96.96 0 0 0 0-.312M116.927 180.09a6.724 6.724 0 0 0-.276-1.057M116.65 179.033a10.146 10.146 0 0 0-.528-1.227M116.122 177.806a83.32 83.32 0 0 0-.306-.592M115.504 176.608l.312.605M115.191 175.982c.102.209.206.418.312.626M115.191 175.982c-.126-.26-.254-.52-.386-.777M114.806 175.204c-.122-.229-.391-.38-.69-.389M113.924 174.435c-.1.09-.09.234.02.32a.309.309 0 0 0 .172.06M114.023 174.354a1.115 1.115 0 0 0-.099.08M114.023 174.354a1.24 1.24 0 0 0 .08-.065M114.102 174.29l.123-.118M114.387 174.018l-.162.154M114.746 173.716a4.212 4.212 0 0 0-.359.302M114.99 173.564a1.588 1.588 0 0 0-.244.152M115.346 173.514a.559.559 0 0 0-.355.05M115.346 173.514c.17.032.348.024.513-.021M115.858 173.494c.157-.042.313-.087.47-.132M112.05 165.614v30.31M119.946 169.37l-.073-1.224M112.476 165.259c-.235-.004-.426.152-.426.348v.007M119.506 166.405l-.137-.06M119.873 168.147l-.367-1.742M119.36 170.561l-.404 3.301M118.956 173.863l-.77.886M118.186 174.749l-.184.214M115.84 170.745l-1.334-.953M117.6 171.112l-1.76-.367M119.36 170.561l-1.76.55M119.36 170.561l.585-1.192M120.261 175.875l-1.18-.316M119.082 175.559l.674 2.283M119.755 177.842l-.294 1.827M119.46 179.668l-.427.64M119.082 175.559l.885-1.019M119.082 175.559l-1.348.878M117.734 176.437l-1.011 1.159M116.723 177.596v1.651M119.082 175.559l-2.007-.209M116.761 175.317l-2.018-.21M112.05 195.924c.004.194.193.352.425.355M121.339 169.339l.806-1.681M144.764 168.2c.06.163.125.325.192.485M144.956 168.685c.068.16.14.32.215.478M145.171 169.163c.062.13.126.258.192.386M145.364 169.55c.067.128.136.255.208.38M153.32 164.8v31.985M152.135 166.097c-.231.093-.384.282-.401.498M152.534 166.26c-.034-.125-.184-.207-.334-.181a.327.327 0 0 0-.065.019M152.571 166.575c0-.105-.012-.21-.037-.314"/><path stroke-width=".25" stroke="#000" d="M152.534 166.994c.025-.139.037-.279.037-.42M152.36 167.67c.076-.222.134-.448.174-.676M152.36 167.67a3.613 3.613 0 0 0-.148.602M152.212 168.272c-.084.528-.126 1.06-.126 1.593M152.085 169.865c0 .66.042 1.32.126 1.977M152.212 171.842c.028 1.11.066 2.22.114 3.332M152.374 175.533a2.195 2.195 0 0 0-.048-.36"/><path stroke-width=".25" stroke="#000" d="M152.358 176.192c.022-.22.027-.44.016-.66M152.358 176.192c-.038.38-.06.76-.064 1.143M152.294 177.335c-.004.383 0 .767.016 1.15M152.31 178.485c.012.284.033.568.064.852M152.374 179.337a.855.855 0 0 0 .156.4M152.614 180.037a.458.458 0 0 0-.084-.3M152.578 180.17a.39.39 0 0 0 .037-.132M152.534 180.204a.067.067 0 0 0 .043-.035M152.47 180.157c-.006.022.012.044.04.048a.053.053 0 0 0 .024 0M152.47 180.157c.008-.036-.016-.072-.056-.086M152.414 180.07a.398.398 0 0 0-.246 0M151.814 180.104c.12.014.242.002.354-.035M151.456 180.05c.119.022.238.04.358.055M151.456 180.05a4.891 4.891 0 0 0-.322-.045M151.134 180.004a22.91 22.91 0 0 0-1.458-.118M149.675 179.887a17.162 17.162 0 0 0-1.263-.016M148.413 179.87c-.241.006-.481.014-.722.025M147.69 179.895c-.76.034-1.52.07-2.28.11M145.411 180.004a7.901 7.901 0 0 0-.77.076M144.451 180.07a.468.468 0 0 0 .19.01M144.431 180.045c0 .011.007.022.02.025M144.49 179.804c-.026.08-.046.16-.06.241M144.608 179.56a1.3 1.3 0 0 0-.117.244M144.608 179.56a.727.727 0 0 0 .083-.19M144.69 179.37c.039-.136.063-.275.073-.416M144.763 178.954c.03-.395.045-.79.048-1.186M144.811 177.768a87.176 87.176 0 0 0-.016-2.229M144.795 175.54a335.758 335.758 0 0 0-.064-4.375M144.731 171.165a19.216 19.216 0 0 0-.057-.756M144.61 169.597c.017.271.038.542.064.812M144.705 168.582a3.405 3.405 0 0 0-.094 1.015M144.705 168.582c.065-.265.08-.54.043-.81M144.749 167.772a1.837 1.837 0 0 0-.101-.397M144.49 166.827c.039.185.09.368.158.547M144.427 166.377c.013.151.034.301.064.45"/><path stroke-width=".25" stroke="#000" d="M144.451 166.36c-.01-.001-.02.003-.024.012v.006M144.451 166.36l.64.134M145.091 166.494l1.761.367M146.852 166.861c.137.028.277.04.417.035M147.27 166.896c.436-.017.87-.051 1.302-.102M148.573 166.794c.164-.019.326-.043.487-.072M149.87 166.592c-.27.039-.542.082-.81.13M150.602 166.54c-.246 0-.49.017-.731.052"/><path stroke-width=".25" stroke="#000" d="M151.74 166.592a12.368 12.368 0 0 0-1.139-.052M144.02 182.631v-17.017M138.208 165.614v18.115M138.634 165.259c-.235-.004-.426.152-.426.348v.007M122.145 167.658l-.073-.428M144.02 165.614c-.004-.194-.194-.352-.426-.355"/><path stroke-width=".25" stroke="#000" d="M151.116 166.817c.103-.076.195-.16.277-.252M150.853 166.961c.095-.038.184-.086.262-.144M150.671 167.028c.062-.021.122-.043.182-.066M150.454 167.095c.073-.021.146-.043.218-.067M150.068 167.148c.13 0 .262-.018.386-.053M149.573 167.095c.162.035.328.053.495.053M151.194 167.21c.218-.182.4-.39.54-.619M150.454 167.662c.274-.117.524-.27.74-.453M149.928 167.838a3.27 3.27 0 0 0 .525-.176M149.373 167.93a3.53 3.53 0 0 0 .555-.092M144.02 182.631l-9.114 13.648M141.672 183.756a8.274 8.274 0 0 0 2.348-1.125M139.806 183.92a4.53 4.53 0 0 0 1.867-.164M139.806 183.92l-2.034-.243M137.772 183.677l-2.775.031M125.26 171.57l-2.198.245M125.258 178.617l-2.217-1.407M123.061 171.815l-2.603-.458M121.188 174.189l1.896-.351M134.996 183.708c.113.698.24 1.395.38 2.09M135.375 185.798c.115 1.462.244 2.923.385 4.384M135.76 190.183c.097.386.199.77.307 1.155M136.138 191.661a3.062 3.062 0 0 0-.072-.323M136.127 191.992a.858.858 0 0 0 .011-.33M135.446 194.704c.248-.9.475-1.804.681-2.712M135.263 195.298c.067-.197.129-.395.184-.594M134.906 196.28c.125-.326.244-.653.356-.982M152.135 181.366c-.231.093-.384.282-.401.497M152.534 181.529c-.034-.126-.184-.208-.334-.182a.327.327 0 0 0-.065.019M152.571 181.843c0-.105-.012-.21-.037-.314M152.534 182.263c.025-.14.037-.28.037-.42M152.36 182.937c.076-.22.134-.447.174-.675M152.36 182.937a3.613 3.613 0 0 0-.148.603M152.212 183.54c-.084.528-.126 1.06-.126 1.593M152.085 185.133c0 1.547.042 3.095.126 4.642M152.212 189.775c.028.223.066.445.114.667M152.374 190.8a2.195 2.195 0 0 0-.048-.358M152.358 191.46c.022-.22.027-.44.016-.66M152.358 191.46c-.038.38-.06.76-.064 1.143"/><path stroke-width=".25" stroke="#000" d="M152.294 192.602c-.004.384 0 .768.016 1.151M152.31 193.753c.012.284.033.568.064.852M152.374 194.605a.859.859 0 0 0 .156.4M152.614 195.305a.458.458 0 0 0-.084-.3M152.578 195.437a.383.383 0 0 0 .037-.132M152.534 195.472a.067.067 0 0 0 .043-.035M152.47 195.425c-.006.022.012.044.04.048a.053.053 0 0 0 .024 0M152.47 195.425c.008-.036-.016-.072-.056-.086M152.414 195.339a.398.398 0 0 0-.246-.001M151.814 195.372c.12.014.242.002.354-.035M151.456 195.319c.119.02.238.039.358.054M151.456 195.319a4.301 4.301 0 0 0-.322-.046M151.134 195.272a22.91 22.91 0 0 0-1.458-.118M149.675 195.155a17.162 17.162 0 0 0-1.263-.016"/><path stroke-width=".25" stroke="#000" d="M148.413 195.139c-.241.006-.481.014-.722.025M147.69 195.163c-.76.034-1.52.07-2.28.11M145.411 195.272a7.901 7.901 0 0 0-.77.076M144.451 195.339a.468.468 0 0 0 .19.009M144.431 195.313c0 .011.007.022.02.025M144.49 195.072c-.026.08-.046.16-.06.241M144.608 194.828a1.271 1.271 0 0 0-.117.244M144.608 194.828a.727.727 0 0 0 .083-.19M144.69 194.638c.039-.136.063-.275.073-.416M144.763 194.222c.03-.395.045-.79.048-1.186M144.811 193.036a87.176 87.176 0 0 0-.016-2.229M144.795 190.808a335.758 335.758 0 0 0-.064-4.374M144.731 186.434a19.216 19.216 0 0 0-.057-.756M144.61 184.865c.017.271.038.542.064.812M144.705 183.85a3.405 3.405 0 0 0-.094 1.015M144.705 183.85c.065-.266.08-.539.043-.81M144.749 183.04a1.851 1.851 0 0 0-.101-.397M144.49 182.096c.039.185.09.368.158.547M144.427 181.645c.013.151.034.301.064.45"/><path stroke-width=".25" stroke="#000" d="M144.451 181.629c-.01-.002-.02.002-.024.01v.007M144.451 181.629l.64.133M145.091 181.762l1.761.367M146.852 182.13c.137.027.277.04.417.034M147.27 182.164c.436-.017.87-.051 1.302-.102M148.573 182.062c.164-.019.326-.043.487-.072M149.87 181.86c-.27.038-.542.082-.81.13M150.602 181.808c-.246 0-.49.017-.731.052"/><path stroke-width=".25" stroke="#000" d="M151.74 181.86a12.368 12.368 0 0 0-1.139-.052M144.731 179.203c.196-.225.382-.456.56-.691M145.29 178.512a5.29 5.29 0 0 0 .322-.476M145.611 178.035c.172-.288.338-.578.497-.872M146.108 177.164c.095-.174.183-.351.263-.53M146.372 176.634a.897.897 0 0 0 .077-.29M146.448 176.344c.02-.214.02-.43.003-.644M144.764 183.468c.06.163.125.325.192.485M144.956 183.953c.068.161.14.32.215.479M145.171 184.431c.062.13.126.258.192.386M145.364 184.818c.067.128.136.255.208.38M152.292 192.948a3.988 3.988 0 0 0-.226-.422M152.066 192.525a1.398 1.398 0 0 0-.172-.223M151.894 192.302a7.648 7.648 0 0 0-.52-.496M151.375 191.806a4.76 4.76 0 0 0-.441-.338M150.934 191.468a1.13 1.13 0 0 0-.164-.09M150.77 191.377a4.805 4.805 0 0 0-.356-.143M152.292 177.68a3.988 3.988 0 0 0-.226-.422M152.066 177.257a1.398 1.398 0 0 0-.172-.223M151.894 177.034a7.66 7.66 0 0 0-.52-.497M151.375 176.538a4.76 4.76 0 0 0-.441-.338M150.934 176.2a1.234 1.234 0 0 0-.164-.09M150.77 176.11a4.805 4.805 0 0 0-.356-.144M152.414 179.137a1.498 1.498 0 0 0-.075-.614M152.339 178.523a1.7 1.7 0 0 0-.325-.554M152.014 177.969a2.06 2.06 0 0 0-.46-.385M151.553 177.584a2.346 2.346 0 0 0-.58-.25M152.414 194.405a1.498 1.498 0 0 0-.075-.614M152.339 193.79a1.7 1.7 0 0 0-.325-.553M152.014 193.237a2.06 2.06 0 0 0-.46-.385M151.553 192.852a2.387 2.387 0 0 0-.58-.25M64.878 182.386H22.23M22.23 182.386v31.985M22.23 214.371h42.648M64.878 214.371v-31.985M33.074 182.845h31.118M64.192 213.866H41.76M56.209 188.943l1.1-.795M57.308 188.148l-1.979-1.223M53.627 194.796l2.78-1.335M56.701 192.127l-1.222-.352M55.479 183.088c.141.138.315.25.51.331M55.479 183.088a.391.391 0 0 0-.278-.104M55.201 182.984a.131.131 0 0 0-.103.049M55.098 183.033a.827.827 0 0 0-.134.271M54.964 183.304a.887.887 0 0 0-.03.303M54.903 183.918a.935.935 0 0 0 .03-.311M54.53 184.954c.154-.338.278-.684.373-1.037M53.891 186.144c.241-.386.455-.783.64-1.19M53.532 186.715l.359-.57M53.532 186.715l-.367.584M53.165 187.3c-.125.2-.25.401-.37.603M52.34 188.654c.153-.249.305-.499.455-.75M51.616 188.998c.302.014.585-.12.723-.344M51.616 188.998c-.149-.007-.278.088-.286.213a.2.2 0 0 0 .06.154M51.39 189.366c.029.03.059.059.09.086M51.553 189.522a.797.797 0 0 0-.072-.07M51.666 189.646a12.607 12.607 0 0 0-.112-.125M51.666 189.646c.048.055.097.11.147.164M51.813 189.81c.102.113.212.221.33.324M52.143 190.135c.07.062.146.117.23.167M52.372 190.302a.554.554 0 0 0 .35.072M53.231 190.428a1.152 1.152 0 0 0-.509-.054M54.135 190.758a24.881 24.881 0 0 0-.903-.33M55.282 191.226a38.242 38.242 0 0 0-1.147-.468M56.74 191.886c-.48-.23-.965-.45-1.458-.66M56.74 191.886c.178.085.362.16.55.225M57.291 192.11l1.201.41M58.492 192.52l.926.316M59.702 193.094a.445.445 0 0 0-.284-.258M59.702 193.094c.016.044.072.068.125.055a.097.097 0 0 0 .064-.052M59.891 193.097a.126.126 0 0 0 .01-.066M59.907 192.902a.498.498 0 0 0-.005.128M60.006 192.492a2.914 2.914 0 0 0-.1.41M60.006 192.492c.042-.129.073-.26.094-.393M60.1 192.1a1.1 1.1 0 0 0 .01-.27M60.119 191.572a.977.977 0 0 0-.01.259M60.259 191.121a1.79 1.79 0 0 0-.14.45M61.355 188.887c-.384.738-.75 1.483-1.096 2.234M62.162 187.379a87.68 87.68 0 0 0-.806 1.508M62.511 186.777c-.122.198-.239.399-.35.602M62.779 186.458a1.466 1.466 0 0 0-.268.318M62.779 186.458a1.1 1.1 0 0 0 .227-.28M63.005 186.177a.538.538 0 0 0 .07-.257M63.075 185.92c0-.035-.026-.065-.066-.076M63.009 185.844a.153.153 0 0 0-.142.033M62.67 185.962a.32.32 0 0 0 .196-.085M62.45 185.97c.073 0 .147 0 .22-.007M62.353 185.955a.393.393 0 0 0 .097.015M62.191 185.892a.878.878 0 0 0 .162.063M61.744 185.647c.146.086.295.167.448.245M61.256 185.31c.152.123.315.235.488.337M61.256 185.31a1.734 1.734 0 0 0-.326-.207M60.93 185.102a4.657 4.657 0 0 0-.54-.223M60.39 184.88a47.373 47.373 0 0 0-1.793-.572M58.597 184.308c-.274-.082-.55-.16-.825-.236M57.299 183.933c.157.049.314.096.473.139M57.024 183.835c.09.035.182.068.275.097M55.989 183.42c.343.141.688.28 1.035.415"/><path stroke-width=".25" stroke="#000" d="M53.738 190.836c.024-.068.044-.136.06-.206M52.85 193.134c.317-.76.613-1.526.889-2.298M52.185 194.69c.228-.517.45-1.035.665-1.556M51.893 195.313c.104-.206.2-.414.293-.623M51.655 195.647c.097-.102.177-.214.238-.334M51.655 195.647a1.027 1.027 0 0 0-.2.295M51.455 195.942a.535.535 0 0 0-.045.261M51.41 196.203c.003.034.032.063.073.071"/><path stroke-width=".25" stroke="#000" d="M51.482 196.274a.148.148 0 0 0 .138-.042M51.809 196.135a.314.314 0 0 0-.188.097M52.027 196.114c-.073.003-.146.01-.219.02M52.125 196.122a.355.355 0 0 0-.098-.008M52.292 196.175a1.016 1.016 0 0 0-.167-.053M52.761 196.39a8.309 8.309 0 0 0-.469-.215M53.279 196.695a4.217 4.217 0 0 0-.518-.305M53.279 196.695c.105.073.22.135.344.186M53.623 196.88c.181.075.367.137.558.188M54.181 197.068c.61.164 1.224.315 1.841.456M56.023 197.524c.28.064.561.125.843.183M57.351 197.816c-.16-.04-.322-.076-.484-.11M57.634 197.895a3.954 3.954 0 0 0-.283-.08M58.704 198.244a74.288 74.288 0 0 0-1.07-.35M59.243 198.54a1.67 1.67 0 0 0-.539-.296M59.243 198.54c.075.064.18.096.287.087M59.53 198.627a.123.123 0 0 0 .098-.056M59.628 198.572a.811.811 0 0 0 .109-.28M59.737 198.293a.887.887 0 0 0 .002-.304M59.74 197.677a.908.908 0 0 0 0 .312M60.017 196.62c-.122.346-.214.7-.276 1.057M60.545 195.393c-.205.4-.38.81-.528 1.227M60.851 194.8a83.32 83.32 0 0 0-.306.592M60.851 194.8c.105-.202.21-.403.312-.605M61.164 194.195c.106-.208.21-.417.312-.626M61.862 192.79c-.131.259-.26.518-.386.778M62.55 192.402c-.301.005-.571.157-.688.389M62.55 192.402c.15-.002.27-.106.267-.231a.207.207 0 0 0-.074-.15M62.743 192.02a1.28 1.28 0 0 0-.099-.08M62.565 191.876c.025.023.051.044.08.065M62.442 191.759l.123.117M62.442 191.759a7.92 7.92 0 0 0-.162-.154M62.28 191.604a4.373 4.373 0 0 0-.358-.302M61.921 191.303a1.638 1.638 0 0 0-.244-.152M61.677 191.15a.568.568 0 0 0-.355-.05M60.81 191.08c.165.045.342.052.512.021M60.34 190.948c.155.045.311.09.47.132M64.618 183.2v30.31M56.722 186.956l.073-1.223M64.618 183.2c0-.195-.19-.354-.426-.354M57.162 183.991l.137-.059M56.795 185.733l.367-1.742M57.308 188.148l.403 3.3M57.711 191.45l.77.885M58.481 192.335l.184.214M60.827 188.331l1.334-.953M59.068 188.698l1.759-.367M57.308 188.148l1.76.55M57.308 188.148l-.586-1.192M56.406 193.461l1.18-.316M57.586 193.145l-.674 2.283M56.912 195.428l.294 1.827M57.206 197.255l.428.64M57.586 193.145l-.885-1.019M57.586 193.145l1.348.878M58.934 194.023l1.01 1.16M59.945 195.183v1.65M57.586 193.145l2.007-.209M59.906 192.903l2.018-.21M64.192 213.866c.235 0 .426-.16.426-.355M55.329 186.925l-.806-1.68M31.711 186.272c.068-.161.132-.322.192-.485M31.496 186.75c.076-.158.147-.318.215-.478M31.304 187.136c.066-.127.13-.256.192-.386M31.096 187.517c.071-.126.141-.253.208-.38M23.347 182.386v31.985M24.934 184.18c-.02-.212-.172-.4-.401-.497M24.533 183.684c-.138-.058-.306-.011-.375.104a.175.175 0 0 0-.024.059M24.133 183.847a1.334 1.334 0 0 0-.037.314M24.096 184.161c0 .141.012.281.037.42M24.133 184.58c.041.229.1.454.173.676M24.456 185.858a3.638 3.638 0 0 0-.15-.603M24.582 187.452c0-.533-.042-1.065-.126-1.593"/><path stroke-width=".25" stroke="#000" d="M24.456 189.428c.084-.656.126-1.316.126-1.977M24.341 192.76c.048-1.11.086-2.22.114-3.332M24.341 192.76a2.31 2.31 0 0 0-.048.36M24.294 193.119c-.012.22-.008.44.015.659M24.373 194.921a13.22 13.22 0 0 0-.064-1.143M24.357 196.072c.015-.383.021-.767.016-1.15M24.294 196.923c.03-.283.052-.567.064-.852M24.138 197.324a.855.855 0 0 0 .156-.4M24.138 197.324a.445.445 0 0 0-.084.3M24.053 197.624a.39.39 0 0 0 .037.132M24.09 197.756a.07.07 0 0 0 .043.035M24.133 197.79c.026.008.054-.003.063-.024a.034.034 0 0 0 .002-.022M24.253 197.657c-.04.014-.064.05-.055.086M24.499 197.656a.398.398 0 0 0-.246.001M24.499 197.656a.831.831 0 0 0 .354.035M24.854 197.69c.12-.013.24-.031.358-.052M25.534 197.59a4.38 4.38 0 0 0-.322.048M26.992 197.473a22.85 22.85 0 0 0-1.458.118M28.255 197.457c-.421-.01-.842-.004-1.263.016M28.977 197.482c-.24-.011-.481-.02-.722-.025M31.256 197.59c-.76-.038-1.52-.074-2.28-.108M32.026 197.666a8.612 8.612 0 0 0-.77-.076M32.026 197.666a.507.507 0 0 0 .19-.009M32.216 197.657c.013-.003.022-.014.02-.025M32.236 197.632a1.268 1.268 0 0 0-.06-.241M32.176 197.39a1.187 1.187 0 0 0-.117-.243M31.977 196.956c.018.066.046.13.083.19M31.904 196.54c.011.14.035.28.072.417M31.856 195.355c.002.396.018.79.048 1.186M31.873 193.126a82.817 82.817 0 0 0-.016 2.229M31.936 188.752a318.97 318.97 0 0 0-.064 4.374M31.994 187.996c-.024.252-.043.504-.057.756M31.994 187.996c.026-.271.047-.541.063-.812M32.057 187.184c.02-.34-.012-.682-.094-1.015M31.919 185.359c-.037.27-.022.543.043.81M32.02 184.961a1.896 1.896 0 0 0-.102.397M32.02 184.961c.066-.179.12-.362.156-.547M32.176 184.414c.03-.15.052-.3.064-.45M32.24 183.964c.002-.009-.006-.017-.017-.018l-.006.001M32.216 183.947l-.64.133M31.576 184.08l-1.76.367M29.398 184.482c.14.005.28-.006.417-.035M28.095 184.38c.433.052.867.085 1.303.103M27.608 184.309c.16.029.324.053.487.072M27.608 184.309a21.731 21.731 0 0 0-.811-.13M26.797 184.178a5.103 5.103 0 0 0-.73-.052M26.066 184.126c-.38 0-.761.017-1.14.052M32.647 200.218V183.2M38.46 183.2v18.116M38.46 183.2c0-.195-.191-.354-.426-.354M54.523 185.244l.072-.428M33.074 182.845c-.235 0-.427.16-.427.355"/><path stroke-width=".25" stroke="#000" d="M25.275 184.151c.082.092.174.176.277.252M25.552 184.404c.079.058.167.106.262.144M25.814 184.548c.06.023.121.046.182.066M25.996 184.614c.072.024.145.046.218.067M26.214 184.681c.125.035.254.053.386.053M26.6 184.734c.167 0 .333-.018.495-.053M24.933 184.178c.141.228.323.437.541.618M25.474 184.796c.217.182.467.334.74.453M26.214 185.248c.168.073.344.131.525.176M26.74 185.425c.18.045.366.075.554.09M32.647 200.218l9.114 13.648M32.647 200.218a8.547 8.547 0 0 0 2.348 1.125M34.995 201.342a4.554 4.554 0 0 0 1.867.164M36.862 201.506l2.034-.243M38.896 201.264l2.775.03M51.407 189.157l2.199.245M51.41 196.203l2.217-1.407M53.606 189.401l2.603-.458M55.48 191.775l-1.896-.35M41.292 203.385c.14-.695.266-1.392.379-2.09M40.907 207.769c.142-1.46.27-2.922.385-4.384M40.601 208.924c.108-.384.21-.769.306-1.155M40.601 208.924c-.03.107-.054.215-.072.323M40.53 209.247a.858.858 0 0 0 .01.331M40.54 209.578c.206.908.433 1.812.681 2.712M41.221 212.29c.055.2.116.397.184.594M41.405 212.885c.112.329.23.656.356.98M24.934 199.449c-.02-.213-.172-.401-.401-.497M24.533 198.952c-.138-.058-.306-.011-.375.104a.175.175 0 0 0-.024.059M24.133 199.115a1.328 1.328 0 0 0-.037.314M24.096 199.43c0 .14.012.28.037.42M24.133 199.849c.041.228.1.453.173.675M24.456 201.126a3.638 3.638 0 0 0-.15-.603M24.582 202.72c0-.533-.042-1.065-.126-1.593M24.456 207.362c.084-1.546.126-3.094.126-4.642M24.341 208.028c.048-.22.086-.443.114-.667M24.341 208.028a2.31 2.31 0 0 0-.048.36M24.294 208.387c-.012.22-.008.44.015.66M24.373 210.189a13.242 13.242 0 0 0-.064-1.143M24.357 211.34c.015-.383.021-.767.016-1.151M24.294 212.191c.03-.283.052-.567.064-.852M24.138 212.592a.855.855 0 0 0 .156-.4M24.138 212.592a.445.445 0 0 0-.084.3M24.053 212.892a.39.39 0 0 0 .037.132M24.09 213.024a.07.07 0 0 0 .043.035M24.133 213.059c.026.007.054-.004.063-.025a.034.034 0 0 0 .002-.022M24.253 212.925c-.04.014-.064.05-.055.086M24.499 212.924a.398.398 0 0 0-.246.001M24.499 212.924a.831.831 0 0 0 .354.035M24.854 212.959c.12-.015.24-.032.358-.054M25.534 212.859a4.989 4.989 0 0 0-.322.046M26.992 212.741a22.85 22.85 0 0 0-1.458.118M28.255 212.725c-.421-.01-.842-.004-1.263.016M28.977 212.75c-.24-.011-.481-.02-.722-.025M31.256 212.859c-.76-.04-1.52-.075-2.28-.11M32.026 212.935a8.612 8.612 0 0 0-.77-.076M32.026 212.935a.507.507 0 0 0 .19-.01M32.216 212.925c.013-.003.022-.014.02-.025M32.236 212.9a1.25 1.25 0 0 0-.06-.241M32.176 212.659a1.163 1.163 0 0 0-.117-.244M31.977 212.224c.018.066.046.13.083.19M31.904 211.809c.011.14.035.279.072.416M31.856 210.623c.002.396.018.79.048 1.186M31.873 208.394a82.817 82.817 0 0 0-.016 2.229M31.936 204.02a318.97 318.97 0 0 0-.064 4.374M31.994 203.264c-.024.252-.043.504-.057.756M31.994 203.264c.026-.271.047-.541.063-.812M32.057 202.451a3.41 3.41 0 0 0-.094-1.015M31.919 200.626c-.037.271-.022.544.043.81M32.02 200.23a1.896 1.896 0 0 0-.102.396M32.02 200.23c.066-.18.12-.363.156-.548M32.176 199.682c.03-.149.052-.299.064-.45M32.24 199.232c.002-.01-.006-.017-.017-.017h-.006M32.216 199.215l-.64.133M31.576 199.349l-1.76.367M29.398 199.75c.14.005.28-.006.417-.035M28.095 199.649c.433.05.867.084 1.303.102M27.608 199.576c.16.03.324.053.487.072M27.608 199.576a21.731 21.731 0 0 0-.811-.13M26.797 199.446a5.103 5.103 0 0 0-.73-.052"/><path stroke-width=".25" stroke="#000" d="M26.066 199.394c-.38 0-.761.017-1.14.052M31.377 196.098c.178.236.364.466.56.692M31.056 195.622c.098.163.205.322.321.476M30.56 194.75c.158.293.324.583.496.872M30.296 194.22c.08.18.169.356.263.53M30.22 193.93a.867.867 0 0 0 .076.291M30.216 193.286c-.016.214-.015.43.003.644M31.711 201.54c.068-.16.132-.323.192-.486M31.496 202.018c.076-.158.147-.318.215-.48M31.304 202.404c.066-.128.13-.256.192-.386M31.096 202.785c.071-.126.141-.253.208-.38M24.601 210.112c-.085.137-.16.278-.226.422M24.773 209.889c-.066.07-.124.144-.172.223M25.293 209.393a7.648 7.648 0 0 0-.52.496M25.734 209.055a4.63 4.63 0 0 0-.441.338M25.898 208.964a1.043 1.043 0 0 0-.165.09M26.254 208.821c-.121.043-.24.09-.356.143M24.601 194.844c-.085.137-.16.278-.226.422M24.773 194.621a1.302 1.302 0 0 0-.172.223M25.293 194.124a7.423 7.423 0 0 0-.52.497M25.734 193.786a4.63 4.63 0 0 0-.441.338M25.898 193.696a1.13 1.13 0 0 0-.165.09M26.254 193.553c-.121.043-.24.09-.356.143M24.329 196.11a1.477 1.477 0 0 0-.075.613M24.653 195.555a1.68 1.68 0 0 0-.325.554M25.114 195.17a1.967 1.967 0 0 0-.46.385M25.694 194.921a2.33 2.33 0 0 0-.58.25M24.329 211.377a1.477 1.477 0 0 0-.075.614M24.653 210.823a1.68 1.68 0 0 0-.325.554M25.114 210.438a1.943 1.943 0 0 0-.46.385M25.694 210.189a2.296 2.296 0 0 0-.58.25M63.196 84.737h-39.67M63.196 84.737c.58 0 1.05-.47 1.05-1.05M64.246 60.384v23.303M64.246 60.384c0-.58-.47-1.05-1.05-1.05M23.527 59.333h39.669M64.876 85.368H22.228M64.876 58.703v26.664M22.229 58.703h42.648M28.053 65.706c1.484.227 2.999.131 4.442-.282M27.416 78.563a3.52 3.52 0 0 0 1.841-.25M24.287 78.742c.415-3.841.515-7.71.3-11.568"/><path stroke-width=".25" stroke="#000" d="M27.416 78.563a3.715 3.715 0 0 0-3.13.178"/><path stroke-width=".25" stroke="#000" d="M24.287 78.742a4.083 4.083 0 0 0 3.698-1.628M26.084 75.184a5.146 5.146 0 0 0-1.797 3.558M24.587 67.173a6.187 6.187 0 0 0-.44-1.75M26.757 65.748c.432-.008.864-.022 1.295-.042"/><path stroke-width=".25" stroke="#000" d="M26.755 65.744a.938.938 0 0 0 1.298-.038M24.148 65.424a5.146 5.146 0 0 0 1.797 3.558M26.755 65.744a6.463 6.463 0 0 0-2.607-.32M24.148 65.424c.864.14 1.734.247 2.607.32M31.623 77.672c.139-3.867.214-7.736.226-11.605M28.936 77.113a4.084 4.084 0 0 0 2.971 1.64M31.623 77.672a1.27 1.27 0 0 0 .285 1.08"/><path stroke-width=".25" stroke="#000" d="M30.655 78.453a3.856 3.856 0 0 0-1.397-.14M30.631 76.58a2.568 2.568 0 0 0 1.141 1.981M32.495 65.424a4.083 4.083 0 0 0-3.698 1.628M32.453 65.81c.019-.128.033-.257.042-.386"/><path stroke-width=".25" stroke="#000" d="M31.925 66.372c.333-.204.546-.558.57-.948M36.94 59.333a2.246 2.246 0 0 0 4.19.754M32.805 84.737l4.135-25.404M41.13 60.088l-8.325 24.649M22.229 85.029h.985M22.229 58.913v26.115M23.213 85.029V58.914M35.775 66.599a3.932 3.932 0 0 0 2.919 3.196M36.111 63.578a9.459 9.459 0 0 0 2.763 5.498M41.021 60.52h23.225M40.863 61.15h23.383M40.705 61.78h23.542M40.547 62.41h23.699M58.001 84.737V59.333M58.631 84.737V59.333M59.262 84.737V59.333M59.892 84.737V59.333M23.273 53.908l2.227-.372M26.243 56.877l.296-2.3M26.54 54.576v-2.079M25.5 53.536h2.08M26.54 52.497l-.296-1.559M27.58 53.536l1.632.372M22.502 58.43v-7.982M30.48 58.43h-7.978M30.48 50.448v7.982M22.502 50.448h7.978M22.229 58.703v-8.53M30.754 58.703h-8.525M30.754 50.174v8.53M22.229 50.174h8.525M23.273 90.163l2.227.371M26.243 87.194l.296 2.3M26.54 89.495v2.079M25.5 90.534h2.08M26.54 91.574l-.296 1.559M27.58 90.534l1.632-.37M22.502 93.623h7.978v-7.982h-7.978z"/><path stroke-width=".25" stroke="#000" d="M22.229 93.897h8.525v-8.529h-8.525zM23.213 58.913h-.985M168.298 152.933h-9.596M168.298 152.933v44.385M158.703 197.318h9.596M90.466 182.412h-6.824v31.163h6.824M160.835 62.009h-23.457M137.378 62.009v44.683M128.069 97.096h-3.484v9.596h10.66v-9.596h-3.484"/><path stroke-width=".25" stroke="#000" d="M127.749 99.58v-2.165h-1.859M124.904 98.402v6.984M125.89 106.371h8.05M134.926 105.386v-6.984M133.94 97.415h-1.859v2.165M124.904 105.386l.986.986M124.904 98.402l.986-.986M134.926 105.386l-.986.986M134.926 98.402l-.986-.986M128.069 97.096v2.485M131.761 97.096v2.485"/><path stroke-width=".25" stroke="#000" d="M127.749 99.58a2.166 2.166 0 0 0 4.333 0"/><path stroke-width=".25" stroke="#000" d="M128.069 99.58a1.846 1.846 0 0 0 3.692 0M127.749 97.415h4.333M128.069 97.096h3.692M129.953 96.863v-2.46M129.953 96.863l-.706-1.295M129.953 96.863l.706-1.295M29.693 115.148v3.272H22.23v-7.463h7.463v7.463M29.373 112.262v4.852M28.387 118.1h-4.852M23.536 118.1l-.986-.986M28.387 118.1l.986-.986M24.115 118.42v-2.485M27.808 118.42v-2.485"/><path stroke-width=".25" stroke="#000" d="M28.127 115.935a2.167 2.167 0 0 0-4.332 0"/><path stroke-width=".25" stroke="#000" d="M27.808 115.935a1.846 1.846 0 0 0-3.692 0M23.795 118.1h4.332M24.115 118.42h3.692M26 118.653l-.706 1.295M26 118.653l.706 1.295M28.127 115.935v2.165M23.795 115.935v2.165M26 118.653v2.459M128.422 52.315v4.265h-3.838v-8.53h3.838v4.265zM124.584 48.05l3.838 8.53M124.584 56.58l3.838-8.529M135.587 80.103h.354M135.942 80.103v1.379M135.942 81.482h-.354M135.587 81.482v-1.38M135.708 81.796a.878.878 0 0 0 .105-.246M135.635 81.836a.086.086 0 0 0 .073-.04M135.561 81.796a.087.087 0 0 0 .073.04M135.457 81.55a.89.89 0 0 0 .105.246M135.404 81.261c.01.098.028.194.053.29M135.382 80.86c0 .133.007.268.021.401M135.404 80.457a3.852 3.852 0 0 0-.021.402M135.457 80.168a2.013 2.013 0 0 0-.053.29M135.561 79.923a.878.878 0 0 0-.105.246M135.635 79.882a.083.083 0 0 0-.073.041M135.708 79.923a.087.087 0 0 0-.073-.041M135.793 80.103a.847.847 0 0 0-.085-.18M135.41 81.836h.225M135.337 81.796a.087.087 0 0 0 .073.04M135.232 81.55a.89.89 0 0 0 .105.246M135.18 81.261c.01.098.028.194.052.29M135.158 80.86c0 .133.007.268.021.401M135.18 80.457a3.852 3.852 0 0 0-.021.402M135.232 80.168a2.011 2.011 0 0 0-.052.29M135.337 79.923a.878.878 0 0 0-.105.246M135.41 79.882a.086.086 0 0 0-.073.041M135.385 79.88l.25.002M135.385 69.793l.25.002M135.337 71.71a.087.087 0 0 0 .073.04M135.232 71.464a.904.904 0 0 0 .105.246M135.18 71.175c.01.097.028.194.052.29M135.158 70.773c0 .134.007.268.021.402M135.18 70.371a3.866 3.866 0 0 0-.021.402M135.232 70.082a2.011 2.011 0 0 0-.052.29M135.337 69.836a.878.878 0 0 0-.105.246M135.41 69.796a.088.088 0 0 0-.073.04M135.41 71.75h.225M135.561 71.71a.087.087 0 0 0 .073.04M135.457 71.464a.904.904 0 0 0 .105.246M135.404 71.175c.01.097.028.194.053.29M135.382 70.773c0 .134.007.268.021.402M135.404 70.371a3.866 3.866 0 0 0-.021.402M135.457 70.082a2.013 2.013 0 0 0-.053.29M135.561 69.836a.878.878 0 0 0-.105.246M135.635 69.796a.086.086 0 0 0-.073.04M135.708 69.836a.09.09 0 0 0-.073-.04M135.793 70.016a.847.847 0 0 0-.085-.18M135.708 71.71a.878.878 0 0 0 .105-.246M135.635 71.75a.088.088 0 0 0 .073-.04M135.587 71.395v-1.379M135.942 71.395h-.354M135.942 70.016v1.38M135.587 70.016h.354M131.898 74.377h-.029M128.797 69.098h7.302M136.1 69.098v13.28M136.1 82.378h-7.303M128.797 82.378v-13.28M134.912 69.098v13.28M131.898 73.292h-.007M126.385 68.533V83.46M126.385 83.46h10.662M137.047 83.46V68.531M137.047 68.533h-10.662M131.87 77.1h.028M131.891 78.184h.007M160.835 59.195h-11.024M160.48 60.854h-10.313M160.835 58.957h-11.024M149.811 48.05h11.024M149.811 60.499V48.05M149.811 60.499c0 .196.159.355.356.355M150.654 60.854v.474M151.84 61.328v-.474M150.654 61.328h1.186M160.835 48.05V60.5M160.48 60.854a.355.355 0 0 0 .355-.355M148.124 50.598a.67.67 0 0 0-.472-.192M148.318 51.06a.643.643 0 0 0-.195-.461M148.318 51.06v8.288M148.124 59.81a.646.646 0 0 0 .195-.462M147.652 60.002a.677.677 0 0 0 .472-.192M147.652 60.002h-9.33M137.851 59.81a.674.674 0 0 0 .471.192M137.656 59.348c0 .174.07.341.195.462M137.656 59.348v-8.287M137.851 50.598a.643.643 0 0 0-.195.462M138.322 50.407a.674.674 0 0 0-.47.192M138.322 50.407h9.33M146.32 52.151h-2.74M139.655 59.348h6.664M147.652 58.04v-4.58M146.32 59.348a1.318 1.318 0 0 0 1.332-1.306v-.003M147.652 53.46c0-.723-.597-1.31-1.333-1.31M142.765 54.332l-.444-2.617M143.654 51.715l-.444 2.617M138.322 53.46v4.58M143.21 54.332h-.445M138.322 58.04c0 .722.597 1.308 1.333 1.308M142.395 52.151h-2.74M143.654 51.279h-1.333M139.655 52.151a1.318 1.318 0 0 0-1.333 1.306v.003M27.782 128.196v-5.96M36.091 127.169a2.342 2.342 0 0 0 0-3.906"/><path stroke-width=".25" stroke="#000" d="M36.091 123.263a8.477 8.477 0 0 0-8.31-1.027M26.494 121.596v7.24M31.407 128.835h-4.913M26.494 128.835v1.072M25.855 130.547a.64.64 0 0 0 .64-.64M25.855 130.547H22.87M22.229 129.907c0 .353.287.64.64.64M22.229 129.907v-9.383M22.87 119.885a.64.64 0 0 0-.64.64M22.87 119.885h2.984M26.494 120.524a.64.64 0 0 0-.64-.64M26.494 120.524v1.072M26.494 121.596h4.913M27.782 128.196a8.477 8.477 0 0 0 8.31-1.027M116.899 75.998v5.96M108.59 77.025a2.342 2.342 0 0 0 0 3.906M108.59 80.931a8.475 8.475 0 0 0 8.309 1.028M118.187 82.598v-7.239M113.274 75.359h4.913M118.187 75.359v-1.072M118.827 73.647a.64.64 0 0 0-.64.64M118.827 73.647h2.985M122.452 74.287a.64.64 0 0 0-.64-.64M122.452 74.287v9.383M121.812 84.31a.64.64 0 0 0 .64-.64M121.812 84.31h-2.985M118.187 83.67c0 .353.286.64.64.64M118.187 83.67v-1.072M118.187 82.598h-4.913M116.899 75.998a8.475 8.475 0 0 0-8.31 1.027M32.892 152.538H22.23v-18.125h10.662z"/><path stroke-width=".25" stroke="#000" d="M25.36 147.389a3.778 3.778 0 0 0 .023-5.344l-.023-.023M25.36 145.08v2.309M23.366 145.022v-.78M23.366 144.242h2.879M26.245 145.022h-2.879M26.245 144.242v.78M25.36 142.021v2.16M23.187 146.486a4.805 4.805 0 0 0 0-3.624M23.187 142.862v3.624M109.657 106.691h12.794V85.367h-12.794zM117.23 93.573"/><path stroke-width=".25" stroke="#000" d="M120.236 93.227a3.539 3.539 0 0 0-.55-.608M119.859 92.398a.144.144 0 0 0-.191.071.143.143 0 0 0 .017.15M119.859 92.398c.224.158.466.29.72.392M119.37 92.95a.211.211 0 0 0 0 .392M120.403 93.453a7.785 7.785 0 0 0-1.033-.11M120.569 94.047a3.702 3.702 0 0 0-.166-.593M120.569 94.047a.215.215 0 0 0 .416.018M120.985 92.228a.215.215 0 0 0-.416.017"/><path stroke-width=".25" stroke="#000" d="M119.37 92.95c.203-.009.403-.025.604-.048M120.441 92.73c.054-.158.096-.32.127-.485M120.026 92.852a3.461 3.461 0 0 0-.293-.288M120.166 92.675a.228.228 0 0 0-.14.178M119.817 92.458c.112.079.229.15.349.217"/><path stroke-width=".25" stroke="#000" d="M119.829 92.464a.072.072 0 0 0-.086.11M120.583 92.79h.209M120.583 93.502h.209M121.094 93.335c-.053.24-.089.484-.109.729M120.985 92.228c.02.245.057.489.109.729"/><path stroke-width=".25" stroke="#000" d="M120.793 93.502a.356.356 0 1 0 0-.712M120.194 92.607a6.673 6.673 0 0 0-.293-1.487M119.9 91.12a5.043 5.043 0 0 0-.807-1.546M119.093 89.574a3.825 3.825 0 0 0-1.214-1.034M117.88 88.54a2.49 2.49 0 0 0-1.184-.298"/><path stroke-width=".25" stroke="#000" d="M116.697 88.242c-.413 0-.82.103-1.183.298M115.514 88.54a3.796 3.796 0 0 0-1.213 1.034M114.3 89.574c-.356.464-.63.988-.807 1.546M113.493 91.12a6.692 6.692 0 0 0-.314 2.026M113.178 93.146c0 .687.106 1.37.314 2.026M113.493 95.172c.178.558.45 1.082.808 1.546M114.3 96.719c.328.426.742.778 1.214 1.033M115.514 97.752c.363.196.77.299 1.183.299M116.697 98.05c.413 0 .819-.102 1.183-.298M117.88 97.752a3.809 3.809 0 0 0 1.213-1.033M119.093 96.719c.357-.465.63-.988.808-1.546M119.9 95.172a6.72 6.72 0 0 0 .31-1.75M116.91 99.117c.59 0 1.17-.146 1.69-.426M118.6 98.69a4.892 4.892 0 0 0 1.552-1.322M120.152 97.368a6.153 6.153 0 0 0 .979-1.873M121.13 95.496c.241-.76.364-1.552.364-2.35M121.495 93.146a7.77 7.77 0 0 0-.364-2.35M121.13 90.797a6.11 6.11 0 0 0-.979-1.873M120.152 88.924a4.869 4.869 0 0 0-1.553-1.322M118.6 87.602a3.56 3.56 0 0 0-1.69-.427M116.91 87.175c-.59 0-1.17.146-1.689.427M115.221 87.602a4.88 4.88 0 0 0-1.553 1.322M113.668 88.924a6.13 6.13 0 0 0-.979 1.873M112.69 90.797a7.74 7.74 0 0 0-.364 2.349M112.326 93.146c0 .797.123 1.59.364 2.35M112.69 95.496a6.11 6.11 0 0 0 .979 1.873"/><path stroke-width=".25" stroke="#000" d="M113.668 97.368c.418.545.948.996 1.553 1.322M115.221 98.69c.52.28 1.1.426 1.69.426M60.612 110.956h-19.19v10.363l8.827 8.828h10.363v-19.19zM60.612 130.148H50.25h10.363zM60.612 110.956h-19.19 19.19zM60.152 129.687H50.44M59.921 129.457h-9.386M56.928 127.845h-5.152"/><path stroke-width=".25" stroke="#000" d="M55.245 116.182a.533.533 0 0 0 .138.134M55.41 116.018a.79.79 0 0 0 .137.134M55.643 111.417H41.882M55.643 111.647H42.112M55.314 113.26H45.106M50.249 130.148l-8.828-8.828 8.828 8.828zM52.836 123.52v1.342M47.295 123.52v.416M49.142 123.52v1.342M50.99 123.52v1.342M50.44 129.687l-8.558-8.559M50.798 127.44l-6.67-6.67M50.535 129.457l-8.423-8.423M43.724 119.825h1.22M43.724 117.977h1.22M43.724 116.13h1.22M43.771 114.283h1.173M45.105 113.26c-.762 0-1.381.618-1.381 1.381M41.42 110.956v10.363-10.363zM41.881 111.417v9.712M42.112 111.647v9.386M43.724 114.641v5.152M42.112 111.647l-.23-.23M43.724 119.793c0 .367.146.718.405.977M42.112 121.034l-.23.095M52.836 116.13v1.344M45.448 116.13v1.344M47.295 116.13v1.344M49.142 116.13v1.344M50.99 116.13v1.344M52.836 116.13h1.344M52.836 114.283h1.344M52.836 114.283v1.344M52.836 113.26v.52M49.142 116.13h1.343M47.295 116.13h1.343M45.448 116.13h1.343M49.142 114.283h1.343M47.295 114.283h1.343M45.448 114.283h1.343M45.448 114.283v1.344M45.448 113.26v.52M47.295 114.283v1.344M47.295 113.26v.52M49.142 114.283v1.344M49.142 113.26v.52M50.99 114.283v1.344M50.99 113.26v.52M50.99 116.13h1.342M50.99 114.283h1.342M52.836 119.825v1.343M52.836 119.825h1.344M52.836 123.52h1.344M52.836 121.672h1.344M52.836 121.672v1.343M45.448 119.825v1.343M47.295 119.825v1.343M49.142 119.825v1.343M49.142 119.825h1.343M47.295 119.825h1.343M45.448 119.825h1.343M49.142 123.52h1.343M47.295 123.52h1.343M49.142 121.672h1.343M47.295 121.672h1.343M45.448 121.672h1.343M45.448 121.672v.417M47.295 121.672v1.343M49.142 121.672v1.343M50.99 119.825v1.343M50.99 121.672v1.343M50.99 119.825h1.342M50.99 123.52h1.342M50.99 121.672h1.342M52.836 117.977v.244M52.836 117.977h1.344M49.142 117.977h1.343M47.295 117.977h1.343M45.448 117.977h1.343M50.99 117.977h1.342M45.448 117.977v1.344M47.295 117.977v1.344M49.142 117.977v1.344M50.99 117.977v1.344M52.836 127.214h1.344M52.836 127.214v.63M52.836 125.367h1.344M52.836 125.367v1.343M50.798 127.44c.259.259.61.405.978.405M50.535 129.457l-.096.23M50.99 127.214v.386M49.142 125.367h1.343M49.142 125.367v.417M50.99 125.367v1.343M50.99 125.367h1.342M50.99 127.214h1.342M60.612 110.956v19.191-19.19zM54.684 123.52v1.342M56.53 123.52v1.342M58.31 116.255v10.208M60.152 115.926v13.762M59.921 115.926v13.53M56.53 116.13v1.344M54.684 114.283h1.344M57.714 113.719l-2.823 2.816M54.684 114.283v1.344M54.684 113.26v.52M56.53 116.13h1.345M55.569 116.13h.458M56.53 115.17v.457M56.53 114.477v.422M58.31 116.255l-2.996-2.996M57.85 113.854l-2.822 2.816M56.973 113.568l.226.226.295-.295-.226-.226-.295.295zM58.001 114.596l-.227-.227.296-.295.226.227-.295.295zM59.921 115.926h.691M55.643 111.647v-.69M59.921 115.926l-4.279-4.278M54.684 123.52h1.344M54.684 121.672h1.344M54.684 119.825h1.344M54.684 119.825v1.343M54.684 121.672v1.343M56.53 119.825v1.343M56.53 119.825h1.345M56.53 123.52h1.345M56.53 121.672h1.345M56.53 121.672v1.343M54.684 117.977h1.344M54.684 117.372v.102M56.53 117.977h1.345M54.684 117.977v1.344M56.53 117.977v1.344M54.684 127.214h1.344M54.684 127.214v.63M56.53 127.214h1.345M56.53 127.214v.63M56.928 127.845c.763 0 1.382-.62 1.382-1.382M59.921 129.457l.23.23M54.684 125.367h1.344M56.53 125.367h1.345M54.684 125.367v1.343M56.53 125.367v1.343M122.452 48.05v17.148h-9.26l-7.887-7.888v-9.26h17.147zM105.305 48.05v9.26-9.26zM122.452 48.05v17.148V48.05zM105.716 48.462v8.677M105.922 48.668v8.387M107.362 51.343v4.604"/><path stroke-width=".25" stroke="#000" d="M117.663 52.723a.484.484 0 0 0 .12.123M117.81 52.577a.735.735 0 0 0 .12.123M122.04 52.49v12.296M121.835 52.49v12.09M120.394 52.785v9.12M105.305 57.31l7.888 7.888-7.888-7.888zM111.227 54.998h-1.2M111.227 59.95h-.373M111.227 58.299h-1.2M111.227 56.648h-1.2M105.716 57.14l7.646 7.645M107.724 56.82l5.959 5.958M105.922 57.055l7.526 7.526M114.528 63.14v-1.09M116.178 63.14v-1.09M117.829 63.14v-1.09M119.479 63.098V62.05M119.16 63.14c.682 0 1.234-.553 1.234-1.234M122.452 65.198h-9.26 9.26zM122.04 64.786h-8.677M121.835 64.58h-8.387M119.16 63.14h-4.604M121.835 64.58l.206.206M113.683 62.779c.231.23.545.36.873.36M113.448 64.58l-.085.206M117.829 54.998h-1.2M117.829 61.6h-1.2M117.829 59.95h-1.2M117.829 58.299h-1.2M117.829 56.648h-1.2M117.829 54.998v-1.2M119.479 54.998v-1.2M119.479 54.998h-1.2M120.394 54.998h-.465M117.829 58.299v-1.2M117.829 59.95v-1.2M117.829 61.6v-1.201M119.479 58.299v-1.2M119.479 59.95v-1.2M119.479 61.6v-1.201M119.479 61.6h-1.2M120.394 61.6h-.465M119.479 59.95h-1.2M120.394 59.95h-.465M119.479 58.299h-1.2M120.394 58.299h-.465M119.479 56.648h-1.2M120.394 56.648h-.465M117.829 56.648v-1.2M119.479 56.648v-1.2M114.528 54.998h-1.2M114.528 54.998v-1.2M111.227 54.998v-1.2M112.877 54.998v-1.2M112.877 54.998h-1.2M114.528 61.6h-1.2M114.528 59.95h-1.2M114.528 58.299h-1.2M114.528 58.299v-1.2M114.528 59.95v-1.2M114.528 61.6v-1.201M111.227 58.299v-1.2M111.227 59.95v-1.2M112.877 58.299v-1.2M112.877 59.95v-1.2M112.877 61.6v-1.201M112.877 61.6h-.373M112.877 59.95h-1.2M112.877 58.299h-1.2M114.528 56.648h-1.2M112.877 56.648h-1.2M114.528 56.648v-1.2M111.227 56.648v-1.2M112.877 56.648v-1.2M116.178 54.998h-.218M116.178 54.998v-1.2M116.178 58.299v-1.2M116.178 59.95v-1.2M116.178 61.6v-1.201M116.178 56.648v-1.2M116.178 61.6h-1.2M116.178 59.95h-1.2M116.178 58.299h-1.2M116.178 56.648h-1.2M107.926 54.998v-1.2M107.926 54.998h-.564M109.577 54.998v-1.2M109.577 54.998h-1.2M107.362 55.946c0 .328.13.642.361.873M105.922 57.055l-.206.085M107.926 56.648h-.345M109.577 58.299v-1.2M109.577 58.299h-.373M109.577 56.648h-1.2M109.577 56.648v-1.2M107.926 56.648v-1.2M122.452 48.05h-17.147 17.147zM111.227 53.348h-1.2M111.227 51.697h-1.2M117.718 50.108h-9.121M118.012 48.462h-12.295M118.012 48.668h-12.09M117.829 51.697h-1.2M119.479 53.348v-1.2M119.984 50.64l-2.517 2.522M119.479 53.348h-1.2M120.394 53.348h-.465M117.829 51.697v-1.2M117.829 52.557v-.41M118.686 51.697h-.408M119.307 51.697h-.378M117.718 50.108l2.676 2.676M119.862 50.519l-2.516 2.52M120.119 51.303l-.202-.202.264-.264.202.202-.264.264zM119.2 50.384l.202.202.264-.264-.202-.202-.264.264zM118.012 48.668v-.617M121.835 52.49h.617M118.012 48.668l3.823 3.823M111.227 53.348v-1.2M112.877 53.348v-1.2M114.528 53.348v-1.2M114.528 53.348h-1.2M112.877 53.348h-1.2M114.528 51.697h-1.2M114.528 51.697v-1.2M111.227 51.697v-1.2M112.877 51.697v-1.2M112.877 51.697h-1.2M116.178 53.348v-1.2M116.72 53.348h-.092M116.178 51.697v-1.2M116.178 53.348h-1.2M116.178 51.697h-1.2M107.926 53.348v-1.2M107.926 53.348h-.564M107.926 51.697v-1.2M107.926 51.697h-.564M108.597 50.108c-.682 0-1.234.553-1.234 1.234M105.922 48.668l-.206-.206M109.577 53.348v-1.2M109.577 51.697v-1.2M109.577 53.348h-1.2M109.577 51.697h-1.2"/><path stroke-width=".5" stroke="#67000d" d="M235.469 242.099h2.132v8.528h-2.132M235.469 227.172h2.132v-2.132h-2.132M17.964 231.436V154.67M22.229 231.436V154.67M17.964 108.824V48.05M22.229 108.824V48.05M9.435 231.436h8.53M13.7 235.701h6.397M92.598 135.479v15.993M90.466 135.479v15.993M154.438 135.479h-36.25M158.703 133.347h-40.516M118.187 135.479v-2.132M96.863 135.479h-4.265M96.863 133.347h-4.265M96.863 135.479v-2.132M158.703 133.347v76.766M154.438 135.479v74.634M165.1 110.956h-42.648M160.835 108.824h-36.251M231.204 214.377h-17.06M231.204 210.113h-17.06M214.144 214.377v-4.265M175.762 214.377H156.57M175.762 210.113h-17.06M175.762 214.377v-4.265M62.745 110.956v22.39M60.612 110.956v24.522M90.466 135.479h-2.132M92.598 133.347h-4.265M88.334 135.479v-2.132M67.01 135.479h-4.266M67.01 133.347h-4.266M67.01 135.479v-2.132M86.201 110.956h-3.199M86.201 108.824h-3.199M83.002 110.956v-2.133M63.811 110.956h-1.066M63.811 108.824h-1.066M63.811 110.956v-2.133M88.334 48.05v60.774M84.069 48.05v60.774M92.598 235.701H65.943M90.466 231.436H65.944M65.943 235.701v-4.265M124.584 48.05v60.774M122.452 48.05v60.774M94.73 214.377v19.191M90.466 212.245v19.191M94.73 233.569v2.132M94.73 235.701h-2.132M92.598 246.363v2.132M94.73 246.363h-2.132M60.612 110.956H22.23M62.745 108.824H22.229M62.745 154.67H22.229M62.745 135.479h-2.132M62.745 152.538v2.132M62.745 152.538H22.229M86.201 48.05h-13.86M86.201 43.786h-13.86M72.34 48.05v-4.264M33.958 48.05H20.097M33.958 43.786H20.097M33.958 48.05v-4.264M156.57 214.377h-12.794M154.438 210.113h-10.662M143.776 214.377v-4.265M105.393 214.377H94.73M105.393 210.113H94.73M105.393 214.377v-4.265M160.835 48.05v29.855M235.469 242.099v8.529M231.204 242.099v4.264M235.469 242.099h-4.265M235.469 199.45v12.795M231.204 197.318v12.794M17.964 248.495v-12.794M22.229 248.495v-12.794M17.964 235.701h4.265M26.494 235.701h-6.397M30.759 231.436h-8.53M160.835 77.904v2.132M165.1 80.037h-4.265M165.1 104.559v6.397M160.835 104.559v4.265M165.1 104.559h-4.265M156.57 246.363h10.662M156.57 250.628h10.662M156.57 246.363v4.265M167.232 246.363v4.265M94.73 246.363h8.53M92.598 250.628h10.662M103.26 246.363v4.265M235.469 250.628h-10.662M231.204 246.363h-6.397M224.807 250.628v-4.265M231.204 80.037h-19.197M212.007 80.037h-20.252M191.754 80.037V75.77h43.714M166.166 80.037H165.1M166.166 75.772H165.1M166.166 80.037V75.77M235.469 75.772v81.03M231.204 80.037v78.898M160.835 48.05h-14.927M165.1 75.772V43.786h-21.324v4.265M9.435 235.701v-4.265M9.435 235.701H13.7M30.759 235.701v-4.265M26.494 235.701h4.265M22.229 248.495h10.662M20.097 250.628H32.89M32.891 248.495v2.132M64.877 248.495v2.132M64.877 248.495v-14.927M67.01 248.495v-14.927M64.877 233.569h2.132M94.73 151.472h-2.132M94.73 151.472v58.64M90.466 151.472v60.773M22.229 152.538v-41.582M17.964 110.956h4.265M248.263 193.054v2.132M248.263 199.45H235.47M248.263 193.054H235.47M122.452 48.05h-8.53M122.452 43.786h-8.53M113.922 48.05v-4.264M94.73 48.05h-8.528M94.73 43.786h-8.528M94.73 48.05v-4.264M122.452 110.956h-14.927M122.452 108.824h-14.927M107.525 110.956v-2.133M90.466 110.956H86.2M90.466 108.824H86.2M90.466 110.956v-2.133M17.964 43.786h2.132M17.964 48.05h2.132M17.964 43.786v4.265M22.229 110.956v-2.133M17.964 110.956h4.265M235.469 212.245v14.927M231.204 214.377v12.794M235.469 227.172h-4.265M148.04 43.786V3.27h-4.264v9.596M145.908 48.05h-2.132M124.584 43.786h-2.132M124.584 48.05v-4.264M92.598 250.628v-2.132M67.01 250.628h-2.133M67.01 250.628v-2.132M235.469 161.067v31.986M231.204 158.935v38.383M162.967 43.786v-3.732M165.1 45.918v-5.864M162.967 40.054h2.132M143.776 12.866v30.92M20.097 250.628H7.303M17.964 248.495H7.302M7.302 250.628v-2.132M17.964 154.67v-43.714M235.472 156.81v4.276M248.116 194.51v4.769M30.872 231.367H66.52M30.73 235.784h35.078M63.82 108.876h19.239v2.094H63.82zM90.459 108.824h17.061v2.162H90.459zM60.576 135.504h2.12v17.017h-2.12zM90.381 235.614h4.271v10.669h-4.271zM105.448 210.16h38.335v4.237h-38.335zM175.789 210.017h38.324v4.423h-38.324zM96.79 133.365h21.502v2.089H96.79zM160.861 80.147h4.136v24.441h-4.136z"/><path stroke-width=".5" stroke="#67000d" d="M166.044 75.86h25.712v4.221h-25.712z"/><path stroke-width=".25" stroke="#000" d="M97.929 134.412h-1.066v20.791h1.066zM97.93 155.197c11.27-.29 20.257-9.51 20.257-20.784M195.691 212.778h-19.93v-.533h19.93zM181.519 211.712h7.677l-3.146-.308v.308M214.145 211.712h-20.112v.533h20.112zM208.387 212.778h-7.676l3.145.308v-.308M125.323 212.778h-19.93v-.533h19.93zM111.15 211.712h7.677l-3.145-.308v.308M143.776 211.712h-20.113v.533h20.113zM138.018 212.778h-7.676l3.145.308v-.308M166.806 77.941h-.64V58.658h.64zM191.754 77.904h-.64v-6.449h.64z"/><path stroke-width=".25" stroke="#000" d="M185.357 77.86c-.05-10.333-8.226-18.796-18.552-19.202M191.115 71.455a6.416 6.416 0 0 0-5.757 6.407M88.333 134.412h-1.066v20.791h1.066z"/><path stroke-width=".25" stroke="#000" d="M67.01 134.412c0 11.275 8.986 20.495 20.257 20.784M83.002 91.178h-.959v18.712h.959z"/><path stroke-width=".25" stroke="#000" d="M82.043 91.184c-10.144.26-18.232 8.558-18.232 18.706M91.319 93.257h-.853v16.633h.853zM107.525 109.89c0-9.02-7.19-16.396-16.206-16.627M61.679 152.538H45.046v-.853h16.633zM61.679 135.479c-9.02 0-16.396 7.189-16.627 16.206M160.835 80.037h-.796v24.522h.796zM160.643 104.559V80.037M161.102 97.202v-8.788l.413 1.911h-.413M93.665 235.701l7.539 7.54M93.665 246.363c2.828 0 5.54-1.123 7.539-3.123"/><path stroke-width=".5" stroke="#08519c" d="M92.598 250.628H67.01v-2.132h25.588zM67.01 249.917h25.588"/><path stroke-width=".5" stroke="#08519c" d="m68.65 249.917-1.64-.71h25.588M68.75 249.206l1.64.711M70.49 249.206l1.64.711M72.228 249.206l1.642.711M73.969 249.206l1.64.711M75.709 249.206l1.64.711M77.448 249.206l1.641.711M79.188 249.206l1.64.711M80.928 249.206l1.64.711M82.668 249.206l1.64.711M84.407 249.206l1.641.711M86.147 249.206l1.641.711M87.887 249.206l1.641.711M89.627 249.206l1.641.711M91.367 249.206l1.23.534"/><path stroke-width=".25" stroke="#000" d="M227.774 135.79a.215.215 0 0 0 .058-.243M223.59 137.417a6.734 6.734 0 0 0 4.185-1.626M227.832 135.547a.426.426 0 0 0-.394-.262M225.892 135.285a1.44 1.44 0 0 0 1.44-1.439M227.332 129.048c0-.795-.644-1.44-1.44-1.44M227.332 133.846v-4.798M227.832 100.723a.213.213 0 0 0-.058-.244M227.774 100.479a6.726 6.726 0 0 0-4.184-1.626M227.439 100.985a.429.429 0 0 0 .394-.262M227.332 102.424c0-.795-.644-1.439-1.44-1.439M227.332 102.424v4.798M225.892 108.662a1.44 1.44 0 0 0 1.44-1.44M217.736 133.846a1.44 1.44 0 0 0 1.439 1.439M213.128 135.79a.215.215 0 0 0 .058-.243M213.186 135.547a.426.426 0 0 0-.394-.262M217.293 135.79a6.726 6.726 0 0 0 4.184 1.627"/><path stroke-width=".25" stroke="#000" d="M217.236 135.547a.213.213 0 0 0 .058.244M217.63 135.285a.427.427 0 0 0-.395.262M206.831 137.417h2.114M202.983 135.285a.427.427 0 0 0-.394.262M203.09 133.846a1.44 1.44 0 0 0 1.439 1.439M202.59 135.547a.213.213 0 0 0 .058.244M202.648 135.79a6.726 6.726 0 0 0 4.184 1.627M202.648 135.79c3.486.318 6.995.318 10.48 0M208.945 137.417a6.734 6.734 0 0 0 4.184-1.626M211.247 135.285a1.44 1.44 0 0 0 1.439-1.439M202.983 135.285h9.81M219.175 127.608a1.44 1.44 0 0 0-1.439 1.44M204.53 127.608a1.44 1.44 0 0 0-1.44 1.44M204.53 127.608h6.716M211.247 108.662h-6.717M212.686 129.048a1.44 1.44 0 0 0-1.439-1.44M203.09 133.846v-4.798M212.686 133.846v-4.798M217.736 133.846v-4.798M219.175 100.985a1.44 1.44 0 0 0-1.439 1.439M217.736 102.424v4.798M213.186 100.723a.213.213 0 0 0-.058-.244M212.792 100.985a.429.429 0 0 0 .394-.262M212.686 102.424v4.798M221.477 98.852a6.734 6.734 0 0 0-4.184 1.626M217.293 100.479a.214.214 0 0 0-.058.244M217.236 100.723a.425.425 0 0 0 .394.262M208.945 98.852h-2.114M202.59 100.723a.426.426 0 0 0 .394.262M204.53 100.985a1.44 1.44 0 0 0-1.44 1.439M202.648 100.479a.214.214 0 0 0-.058.244M203.09 102.424v4.798M206.831 98.852a6.734 6.734 0 0 0-4.184 1.626M213.128 100.479a57.875 57.875 0 0 0-10.48 0M213.128 100.479a6.726 6.726 0 0 0-4.184-1.626M212.686 102.424a1.44 1.44 0 0 0-1.439-1.439M212.792 100.985h-9.809M211.247 108.662a1.44 1.44 0 0 0 1.439-1.44M203.09 107.222a1.44 1.44 0 0 0 1.439 1.44M217.736 107.222a1.44 1.44 0 0 0 1.439 1.44M227.774 100.479a57.875 57.875 0 0 0-10.48 0M227.439 100.985h-9.81M223.59 98.852h-2.113M225.892 108.662h-6.717M219.175 127.608h6.717"/><path stroke-width=".25" stroke="#000" d="M217.293 135.79c3.486.318 6.994.318 10.481 0M217.63 135.285h9.808M221.477 137.417h2.114"/><path stroke-width=".5" stroke="#fbb03b" d="M233.87 227.172v14.927M234.935 227.172v14.927M224.807 247.963h-57.575M224.807 246.896h-57.575M103.26 247.963h53.31M103.26 246.896h53.31M119.786 43.786V30.458h23.99"/><path stroke-width=".5" stroke="#fbb03b" d="M118.72 43.786V29.392h25.056"/><path stroke-width=".25" stroke="#000" d="M230.138 126.131c.589 0 1.066-.477 1.066-1.066M231.204 111.204c0-.588-.478-1.066-1.066-1.066M231.204 111.204v13.862M199.218 125.065v-13.86M200.284 110.139c-.589 0-1.066.477-1.066 1.066M199.218 125.065c0 .59.478 1.066 1.066 1.066M200.284 110.139h29.854M230.138 126.131h-29.854M101.547 50.981v9.446M100.737 61.238a.81.81 0 0 0 .81-.811M100.737 61.238h-10.83M89.098 60.427a.81.81 0 0 0 .81.811M89.098 60.427v-9.446M101.298 62.349H89.346M88.334 61.336c0 .56.453 1.013 1.013 1.013M88.334 61.336V48.05M88.334 48.05h13.977M102.311 48.05v13.287M101.298 62.349c.56 0 1.013-.453 1.013-1.013M88.413 50.981h13.835M101.012 50.275h.574v-.602h-.574zM95.647 48.567"/><path stroke-width=".25" stroke="#000" d="M101.873 49.501h-3.472v.975h3.472z"/><path stroke-width=".25" stroke="#000" d="M98.625 49.788h.276v.258h-.276zM99.141 49.788h.276v.258h-.276zM99.639 49.788h.276v.258h-.276zM100.173 49.788h.276v.258h-.276zM93.883 61.238v-.56h2.878v.56"/><path stroke-width=".5" stroke="#4292c6" d="M94.73 48.05h19.193M94.73 46.629h19.193M94.73 45.207h19.193M94.73 43.786h19.193M33.958 48.05H72.34M33.958 46.629H72.34M33.958 45.207H72.34M33.958 43.786H72.34M124.584 48.05h19.192M124.584 46.629h19.192M124.584 45.207h19.192M124.584 43.786h19.192M32.891 250.628h31.986M32.891 249.917h31.986M32.891 249.206h31.986M32.891 248.495h31.986"/><path stroke-width=".25" stroke="#000" d="M230.561 144.163v10.28M230.953 143.771v11.063M219.658 154.444v-10.281M219.267 154.835v-11.063M219.658 144.163h10.903M219.267 143.772h11.686M230.561 154.443h-10.903M230.953 154.835h-11.686M210.906 151.042l-10.854-6.774M212.177 149.007c.312-.5.159-1.157-.34-1.469M203.198 148.034l-.149.21M206.006 148.647l-.384-.564M206.285 148.171l-1.485-.817M197.212 147.568l-.427.781M197.773 141.275l-5.385 8.629M213.917 148.836l-13.206-8.242M202.792 141.893a1.066 1.066 0 0 0-1.47.34M198.814 141.622l1.175.734M198.814 141.622a1.065 1.065 0 0 0-1.47.34M200.711 140.595a2.132 2.132 0 0 0-2.938.68M202.656 146.828l-1.288-.062M203.05 146.893l-3.336-2.083M204.8 147.354l-.969-.331M205.068 147.673l-.74-.22M204.328 147.453l-.643.064M203.832 147.023l-1.175-.195M203.685 147.517l-.487.517M205.622 148.083l-.553-.41M197.872 147.277l-.66.291M201.369 146.766l-1.645.188M200.617 143.364c-.312.5-.16 1.157.34 1.469"/><path stroke-width=".25" stroke="#000" d="M200.617 143.364c-.312.5-.16 1.157.34 1.469"/><path stroke-width=".25" stroke="#000" d="M200.33 143.825c.311-.5.16-1.157-.34-1.469M200.894 142.92l.429-.686M200.617 143.364l.706-1.13M199.724 146.954l-1.852.323M198.211 147.218l.938-1.502M200.618 145.375a1.066 1.066 0 0 0-1.469.34"/><path stroke-width=".25" stroke="#000" d="M200.618 145.375a1.066 1.066 0 0 0-1.469.34M198.211 147.218l2.118-3.393M207.743 160.744l-1.176-.734M207.743 160.744c.5.312 1.157.16 1.469-.34M196.358 159.954l-2.144 1.406M200.044 161.373l.149-1.66M203.097 160.42l.379.091M203.476 160.511l.558-.953M202.397 160.504l.283-.098M202.68 160.406l.247.073M202.317 160.088l-.071.437M202.927 160.479l.17-.06M192.919 160.54l.182-.664M200.484 159.117l2.97 1.854M204.923 160.63l.739-1.185M204.923 160.63l1.304-2.09M198.048 159.093l-.134 1.725M206.227 158.54l3.777-6.05M206.227 158.54l4.957-7.94M207.698 155.03l.541-.82M201.684 155.493l.516-1.35M201.61 157.577l3.803-3.848M206.231 154.08l-.875 1.411M202.671 153.948l.42.394M197.26 154.34l-.204-.218M197.662 154.57l.033-.454M196.914 153.594l-.218.93M194.069 153.856c-.312.5-.16 1.157.34 1.469M199.533 152.467l-1.315 4.73M214.597 151.774l-5.385 8.63M214.597 151.774a2.132 2.132 0 0 0-.68-2.938M214.168 152.462c.312-.5.16-1.157-.34-1.47M206.917 148.903l-.632-.731M207.4 149.94l-.483-1.038M208.588 153.202l-.124-1.002M207.735 151.185l-.334-1.246M208.464 152.2l-.213-.528M208.251 151.672l-.516-.487M208.239 154.21l.35-1.008M210.568 151.585l-3.385-2.112M210.003 152.49c.312-.5.16-1.157-.34-1.47"/><path stroke-width=".25" stroke="#000" d="M210.003 152.49c.312-.5.16-1.157-.34-1.47M211.471 150.138l.706-1.13M211.748 149.695l.429-.687M212.652 150.26a1.066 1.066 0 0 0-1.47.34"/><path stroke-width=".25" stroke="#000" d="M210.002 150.478c.5.312 1.157.16 1.469-.34"/><path stroke-width=".25" stroke="#000" d="M210.002 150.478c.5.312 1.157.16 1.469-.34M201.432 153.015l1.31-1.435M202.2 154.048l-.916-.634M205.98 149.765l-.06-.169M202.456 149.462l-.163.722M205.92 149.596l.092-.38M203.049 148.244l-.076-.037M206.012 149.216l-.006-.568M202.733 148.797l-.277.666M202.973 148.207l-.24.59M203.105 151.898l.319-.263M203.32 152.52l-.145.779M203.176 153.3l.135.206M203.31 153.506l-.147.399M203.596 151.76l-.276.76M204.844 151.339l-.43.069M204.428 151.695l.634-.5M204.189 151.298l-.383.052M204.536 150.83l-.347.467M204.414 151.408l.122-.577M203.88 151.757l.547-.062M203.806 151.35l-.417-.124M203.424 151.636l.456.122M204.107 151.652l-.55-.109M205.062 151.194l.543-.952M205.606 150.243l.374-.478M204.667 152.942l-.546.252M204.121 153.194l-.68.045M205.431 153.597l-.458-.412M204.973 153.185l-.305-.243M205.414 153.73l.454-.063M203.712 153.937l.434-.118M203.315 153.885l.398.052M205.867 153.667l.364.413M202.87 151.415l.04.418M202.491 151.128l.378.287M202.279 150.695l.212.433M202.89 150.864l-.31-.508M202.747 151.18l-.233-.304M202.292 150.184l-.014.511M202.58 150.356l-.115-.415M203.389 151.226l-.5-.362M202.91 151.833l.195.065M203.163 153.905l-.964.143M197.91 152.901l.206-.229M197.99 153.317l-.08-.416M197.975 153.734l.015-.417M198.452 150.339l-.028-.91M198.116 152.672l.22-.741M198.335 151.931l.116-1.592M195.373 151.767l1.402-2.246M196.785 148.35l-.018 1.97M196.613 151.893l.103.85M196.767 150.32l-.154 1.573M197.175 153.25l.378-.004M196.742 153.463l.171.13M196.716 152.744l.026.719M196.913 153.5l.263-.25M197.695 154.116l-.022-.34M197.673 153.775l.302-.042M197.554 153.246l.287.281M198.424 149.43l.602-.366M195.373 151.767l1.402-2.246M192.388 149.904c-.312.5-.16 1.157.34 1.469M193.904 152.107c.5.312 1.157.159 1.469-.34M194.069 153.856l1.304-2.09M192.728 151.373l1.176.734M194.069 153.856l.739-1.185M200.165 149.43l.2 1.04M199.65 149.133l.515.298M200.82 152.34l-.387-.753M199.88 151.27l-.347 1.197M200.481 150.715l-.341-.072M200.365 150.47l.116.245M200.14 150.642l-.26.628M200.256 150.982l.112-.134M200.433 151.586l-.177-.604M200.788 152.984l-.518-.676M201.58 152.71l-.76-.37M201.28 153.035l-.493-.052M201.284 153.414l.147-.4M199.026 149.064l.625.069M213.828 150.993l-1.176-.734M206.051 156.866l1.647-1.836M202.089 159.977l.228.11M203.883 157.742l-.664-.087M202.982 158.433l.152.074M204.478 157.583l.375.63M204.099 157.492l.379.091M203.974 157.362l-.09.38M204.893 158.375l.482-.99M204.666 158.358l.228.017M205.375 157.385l.676-.52M202.264 158.555l.096.094M202.375 158.326l-.111.23M202.36 158.648l.622-.215M203.22 157.654l-.845.672M205.356 155.491l-1.382 1.871M204.034 159.558l.631-1.2M203.134 158.507l-1.045 1.47M206.227 158.54c-.312.5-.16 1.157.34 1.47M195.408 159.586l-.117-.34M193.101 159.876l.772-.425M196.255 159.788h.8M196.583 159.782l-.831.16M195.752 159.942l-.344-.356M197.819 159.691l-1.236.09M196.696 154.524l.204 1.418M197.537 155.31l.052-.493M197.588 154.818l.073-.247M197.302 154.696l-.042-.355M197.371 154.897l-.069-.201M197.534 154.857l-.163.04M198.218 157.197l-.17 1.896M197.701 157.72l-1.934.813M197.423 157.186l.17-.059M194.93 159.118l.49-.232M197.584 156.276l-.048-.965M197.666 156.786l-.081-.51M197.494 156.656l.172.13M197.593 157.128l-.1-.472M196.9 155.942l.523 1.244M194.409 155.325l3.767 2.351M200.768 158.533l.842-.956M200.693 158.59l.44-1.386M200.901 157.935l-.003-.001M201.133 157.203l.551-1.71M200.193 159.713l.575-1.18M193.873 159.451l1.057-.333M195.29 159.246l.316-.647M198.17 166.534l.252.506M199.647 167.02l.425-1.065M203.454 160.97c.5.312 1.157.16 1.469-.34M197.914 160.817l.186 1.07M193.304 161.2l-.385-.66M198.1 161.886l.559.98M194.214 161.36l-.91-.16M199.817 163.288l-.06-.359M199.884 162.378l.16-1.005M200.264 162.563l-.38-.185M199.471 162.743l.281-.287M200.44 163.167l-.176-.604M199.689 163.65l.129-.362M200.335 163.964l.105-.797M198.962 162.918l.509-.176M202.246 160.524l.15-.02M198.638 164.55l-.468 1.984M199.93 164.991l.18-.949M198.821 163.98l-.184.57M198.767 164.19l.547-.158M200.072 165.955l-.143-.964M198.659 162.865l.163 1.115M200.109 164.042l.227-.078M199.314 164.032l.375-.383M206.005 158.895l.072.045M195.079 152.076l.073.045M205.38 189.645h-8.374M197.006 189.645V172.78M197.006 172.78h8.373M205.379 172.78v16.865M206.18 190.444h-9.974M196.207 190.445V171.98M196.207 171.98h9.972M206.179 171.98v18.464M154.437 196.785h-10.662v10.662h10.662zM144.444 202.116h9.326M149.106 206.779v-9.326M143.776 164.8h10.662v-10.662h-10.662zM153.77 159.469h-9.327M149.106 154.805v9.326M22.23 214.371h10.662v10.662H22.23zM32.224 219.702h-9.326M27.561 224.365v-9.326M22.23 182.386h10.662v-10.662H22.23zM32.224 177.055h-9.326M27.561 172.392v9.326"/></g></g></svg>