<svg xmlns="http://www.w3.org/2000/svg" width="94.471" height="26.471" viewBox="0 0 70.853 19.854"><g data-name="图层 1" stroke-width=".25" stroke-miterlimit="2.976" fill="none"><path stroke="#08519c" d="M15.641 2.154h7.816v15.632h-7.816z"/><path stroke="#08519c" d="M16.031 2.544h7.035v14.851h-7.035z"/><path stroke="#000" d="M61.236 2.48H49.51M60.975 2.74h-5.47M55.243 2.74h-5.47M61.236 11.599v-9.12M49.511 2.48v9.118M60.975 11.599V2.74M49.772 2.74v8.858M55.504 2.74v8.858M55.243 2.74v8.858M40.392 2.48H28.668M40.132 2.74H34.66M34.4 2.74h-5.472M40.392 11.599v-9.12M28.668 2.48v9.118M40.132 11.599V2.74M28.928 2.74v8.858M34.66 2.74v8.858M34.4 2.74v8.858"/><path stroke="#fbb03b" d="M46.254 11.599h17.587M46.254 11.924h17.587M58.305 11.924v5.862M57.914 11.924v5.862M51.791 11.924v5.862M52.182 11.924v5.862M26.714 11.599h16.284M26.714 11.924h16.284M38.764 11.924v5.862M38.373 11.924v5.862M32.25 11.924v5.862M32.641 11.924v5.862"/><path stroke="#4292c6" d="M5.544 14.53v-3.583H9.94v3.582H5.544z"/><path stroke="#4292c6" d="M14.989 14.855H5.218V3.131h9.771z"/><path stroke="#4292c6" d="M5.544 10.622V3.457H9.94v7.165H5.544zM14.664 14.53v-3.583h-4.397v3.582h4.397M14.664 3.457v7.165h-4.397V3.458h4.397"/><path stroke="#000" d="M46.254 17.787h17.587M28.017 17.787h14.98M68.182 17.787H26.714M68.24 18.894H2.613M68.182.949H2.613M63.841.949v17.945M46.254.949v17.945M42.998.998v17.945M2.613.91v17.946M26.82.949v17.945M68.111.949v17.945"/></g></svg>